<svg id="apple-app-store_en" xmlns="http://www.w3.org/2000/svg" width="123.595" height="36.985" viewBox="0 0 123.595 36.985">
  <g id="Group_570" data-name="Group 570" transform="translate(0 0)">
    <g id="Group_568" data-name="Group 568">
      <path id="Path_5069" data-name="Path 5069" d="M113.753,0H9.848c-.379,0-.753,0-1.131,0-.316,0-.63.007-.949.012A15.207,15.207,0,0,0,5.7.177a7.459,7.459,0,0,0-1.963.58,6.671,6.671,0,0,0-1.672,1.09,5.862,5.862,0,0,0-1.217,1.5A5.669,5.669,0,0,0,.2,5.105,10.79,10.79,0,0,0,.016,6.956c-.01.283-.011.568-.016.851V29.179c.005.287.006.565.016.852A10.79,10.79,0,0,0,.2,31.883a5.657,5.657,0,0,0,.646,1.761,5.818,5.818,0,0,0,1.217,1.493,6.5,6.5,0,0,0,1.672,1.09,7.5,7.5,0,0,0,1.963.583,15.485,15.485,0,0,0,2.07.163c.319.006.633.01.949.01.378,0,.752,0,1.131,0h103.9c.371,0,.748,0,1.12,0,.315,0,.637,0,.952-.01a15.281,15.281,0,0,0,2.066-.163,7.615,7.615,0,0,0,1.971-.583,6.5,6.5,0,0,0,1.67-1.09,6,6,0,0,0,1.22-1.493,5.668,5.668,0,0,0,.639-1.761,11.214,11.214,0,0,0,.192-1.851c0-.287,0-.565,0-.852.008-.336.008-.67.008-1.011V8.817c0-.339,0-.674-.008-1.009,0-.284,0-.568,0-.851a11.215,11.215,0,0,0-.192-1.851,5.68,5.68,0,0,0-.639-1.76A6.373,6.373,0,0,0,119.861.757a7.576,7.576,0,0,0-1.971-.58,15.011,15.011,0,0,0-2.066-.163c-.315,0-.637-.01-.952-.012-.371,0-.748,0-1.12,0Z" transform="translate(0 0)" fill="#a6a6a6"/>
      <path id="Path_5070" data-name="Path 5070" d="M8.707,36.257c-.315,0-.623,0-.936-.01A14.644,14.644,0,0,1,5.837,36.1a6.6,6.6,0,0,1-1.714-.507,5.612,5.612,0,0,1-1.445-.94,4.991,4.991,0,0,1-1.056-1.292,4.911,4.911,0,0,1-.562-1.533A10.3,10.3,0,0,1,.888,30.09c-.007-.2-.015-.845-.015-.845V7.877s.009-.64.015-.827a10.265,10.265,0,0,1,.171-1.732A4.94,4.94,0,0,1,1.622,3.78a5.036,5.036,0,0,1,1.05-1.293,5.776,5.776,0,0,1,1.451-.946,6.535,6.535,0,0,1,1.711-.5A14.526,14.526,0,0,1,7.774.886L8.707.875H115.03l.945.012a14.3,14.3,0,0,1,1.923.15,6.665,6.665,0,0,1,1.729.507,5.519,5.519,0,0,1,2.5,2.239,4.944,4.944,0,0,1,.554,1.525,10.787,10.787,0,0,1,.18,1.746c0,.262,0,.543,0,.823.008.347.008.677.008,1.01v19.36c0,.336,0,.664-.008.995,0,.3,0,.576,0,.86a10.567,10.567,0,0,1-.177,1.715,4.923,4.923,0,0,1-.559,1.545,5.144,5.144,0,0,1-1.051,1.282,5.616,5.616,0,0,1-1.448.946,6.578,6.578,0,0,1-1.726.509,14.476,14.476,0,0,1-1.934.151c-.3.006-.62.01-.928.01l-1.121,0Z" transform="translate(-0.074 -0.074)"/>
    </g>
    <g id="_Group_" data-name="&lt;Group&gt;" transform="translate(17.753 8.192)">
      <g id="_Group_2" data-name="&lt;Group&gt;">
        <g id="_Group_3" data-name="&lt;Group&gt;">
          <path id="_Path_" data-name="&lt;Path&gt;" d="M23.519,19.766a4.531,4.531,0,0,1,2.158-3.8,4.638,4.638,0,0,0-3.654-1.975c-1.537-.161-3.028.92-3.811.92-.8,0-2-.9-3.3-.877a4.866,4.866,0,0,0-4.1,2.5c-1.771,3.066-.45,7.571,1.246,10.049.849,1.213,1.84,2.569,3.138,2.521,1.27-.053,1.744-.81,3.277-.81s1.964.81,3.288.779c1.363-.022,2.221-1.219,3.04-2.444a10.036,10.036,0,0,0,1.39-2.831A4.378,4.378,0,0,1,23.519,19.766Z" transform="translate(-9.972 -9.164)" fill="#fff"/>
          <path id="_Path_2" data-name="&lt;Path&gt;" d="M21.763,11.916a4.461,4.461,0,0,0,1.02-3.2,4.539,4.539,0,0,0-2.937,1.519A4.245,4.245,0,0,0,18.8,13.317,3.753,3.753,0,0,0,21.763,11.916Z" transform="translate(-10.716 -8.72)" fill="#fff"/>
        </g>
      </g>
      <g id="Group_569" data-name="Group 569" transform="translate(23.487 8.378)">
        <path id="Path_5071" data-name="Path 5071" d="M41.637,26.374H37.3l-1.041,3.073H34.427l4.1-11.369h1.907l4.1,11.369H42.677Zm-3.885-1.418h3.435l-1.693-4.987h-.047Z" transform="translate(-34.427 -17.889)" fill="#fff"/>
        <path id="Path_5072" data-name="Path 5072" d="M54.439,25.579c0,2.576-1.379,4.231-3.459,4.231a2.81,2.81,0,0,1-2.608-1.45h-.039v4.106h-1.7V21.434h1.647v1.379h.031a2.94,2.94,0,0,1,2.639-1.465C53.053,21.348,54.439,23.011,54.439,25.579Zm-1.749,0c0-1.678-.867-2.782-2.191-2.782-1.3,0-2.174,1.127-2.174,2.782,0,1.67.874,2.789,2.174,2.789C51.823,28.368,52.691,27.273,52.691,25.579Z" transform="translate(-35.458 -18.165)" fill="#fff"/>
        <path id="Path_5073" data-name="Path 5073" d="M64.4,25.579c0,2.576-1.379,4.231-3.459,4.231a2.81,2.81,0,0,1-2.608-1.45H58.3v4.106H56.6V21.434h1.647v1.379h.031a2.94,2.94,0,0,1,2.639-1.465C63.018,21.348,64.4,23.011,64.4,25.579Zm-1.749,0c0-1.678-.867-2.782-2.191-2.782-1.3,0-2.174,1.127-2.174,2.782,0,1.67.874,2.789,2.174,2.789,1.323,0,2.191-1.1,2.191-2.789Z" transform="translate(-36.299 -18.165)" fill="#fff"/>
        <path id="Path_5074" data-name="Path 5074" d="M71.55,26.262c.126,1.127,1.221,1.868,2.718,1.868,1.434,0,2.466-.74,2.466-1.757,0-.882-.622-1.411-2.1-1.773l-1.473-.355c-2.088-.5-3.057-1.481-3.057-3.065,0-1.962,1.71-3.309,4.137-3.309,2.4,0,4.049,1.347,4.1,3.309H76.632c-.1-1.135-1.041-1.819-2.411-1.819s-2.309.693-2.309,1.7c0,.8.6,1.277,2.064,1.639l1.253.308c2.333.552,3.3,1.489,3.3,3.152,0,2.127-1.694,3.459-4.389,3.459-2.521,0-4.224-1.3-4.334-3.357Z" transform="translate(-37.415 -17.871)" fill="#fff"/>
        <path id="Path_5075" data-name="Path 5075" d="M83.077,19.3v1.962h1.576v1.347H83.077v4.57c0,.71.316,1.041,1.009,1.041a5.315,5.315,0,0,0,.56-.039v1.339a4.672,4.672,0,0,1-.945.079c-1.678,0-2.333-.63-2.333-2.238V22.609H80.163V21.261h1.205V19.3Z" transform="translate(-38.29 -17.992)" fill="#fff"/>
        <path id="Path_5076" data-name="Path 5076" d="M86.065,25.578c0-2.608,1.536-4.247,3.931-4.247s3.932,1.639,3.932,4.247S92.408,29.825,90,29.825,86.065,28.193,86.065,25.578Zm6.13,0c0-1.789-.82-2.845-2.2-2.845s-2.2,1.064-2.2,2.845c0,1.8.819,2.844,2.2,2.844s2.2-1.048,2.2-2.844Z" transform="translate(-38.788 -18.163)" fill="#fff"/>
        <path id="Path_5077" data-name="Path 5077" d="M96.186,21.434h1.623v1.411h.039a1.977,1.977,0,0,1,1.994-1.5,2.624,2.624,0,0,1,.583.063V23a2.379,2.379,0,0,0-.764-.1,1.714,1.714,0,0,0-1.773,1.907v4.917h-1.7Z" transform="translate(-39.643 -18.165)" fill="#fff"/>
        <path id="Path_5078" data-name="Path 5078" d="M108.695,27.287c-.229,1.5-1.694,2.537-3.569,2.537-2.411,0-3.908-1.616-3.908-4.208s1.5-4.286,3.837-4.286c2.293,0,3.736,1.575,3.736,4.089V26h-5.854v.1a2.159,2.159,0,0,0,2.23,2.348,1.875,1.875,0,0,0,1.914-1.166Zm-5.752-2.474h4.144a1.993,1.993,0,0,0-2.033-2.1,2.1,2.1,0,0,0-2.111,2.1Z" transform="translate(-40.068 -18.163)" fill="#fff"/>
      </g>
    </g>
  </g>
  <g id="_Group_4" data-name="&lt;Group&gt;" transform="translate(41.282 7.816)">
    <g id="Group_571" data-name="Group 571">
      <path id="Path_5079" data-name="Path 5079" d="M37.644,8.73a2.417,2.417,0,0,1,2.571,2.714,2.428,2.428,0,0,1-2.571,2.748H35.671V8.73Zm-1.125,4.69h1.03a1.717,1.717,0,0,0,1.8-1.965,1.722,1.722,0,0,0-1.8-1.954h-1.03Z" transform="translate(-35.671 -8.461)" fill="#fff"/>
      <path id="Path_5080" data-name="Path 5080" d="M41.68,12.247a1.953,1.953,0,1,1,3.888,0,1.953,1.953,0,1,1-3.888,0Zm3.052,0c0-.894-.4-1.416-1.106-1.416s-1.105.523-1.105,1.416.4,1.419,1.105,1.419,1.106-.522,1.106-1.419Z" transform="translate(-36.178 -8.578)" fill="#fff"/>
      <path id="Path_5081" data-name="Path 5081" d="M51.151,14.317h-.844l-.852-3.036H49.39l-.848,3.036h-.836l-1.136-4.123h.825l.739,3.146h.061l.848-3.146h.781l.848,3.146h.064l.735-3.146h.814Z" transform="translate(-36.591 -8.585)" fill="#fff"/>
      <path id="Path_5082" data-name="Path 5082" d="M53.854,10.187h.783v.655H54.7a1.234,1.234,0,0,1,1.23-.734,1.341,1.341,0,0,1,1.427,1.533V14.31h-.814V11.845c0-.663-.288-.992-.89-.992a.946.946,0,0,0-.984,1.045V14.31h-.814Z" transform="translate(-37.206 -8.578)" fill="#fff"/>
      <path id="Path_5083" data-name="Path 5083" d="M59.094,8.437h.814v5.732h-.814Z" transform="translate(-37.649 -8.437)" fill="#fff"/>
      <path id="Path_5084" data-name="Path 5084" d="M61.217,12.247a1.953,1.953,0,1,1,3.889,0,1.954,1.954,0,1,1-3.889,0Zm3.052,0c0-.894-.4-1.416-1.106-1.416s-1.105.523-1.105,1.416.4,1.419,1.105,1.419,1.106-.522,1.106-1.419Z" transform="translate(-37.828 -8.578)" fill="#fff"/>
      <path id="Path_5085" data-name="Path 5085" d="M66.4,13.144c0-.742.553-1.17,1.533-1.231l1.117-.064v-.356c0-.435-.288-.681-.844-.681-.454,0-.769.167-.859.458H66.56c.083-.708.749-1.162,1.684-1.162,1.034,0,1.617.515,1.617,1.385V14.31h-.783v-.579h-.064a1.387,1.387,0,0,1-1.238.647A1.245,1.245,0,0,1,66.4,13.144Zm2.65-.352v-.345l-1.007.064c-.568.038-.825.231-.825.595s.322.587.764.587a.972.972,0,0,0,1.068-.9Z" transform="translate(-38.266 -8.578)" fill="#fff"/>
      <path id="Path_5086" data-name="Path 5086" d="M71.348,12.106c0-1.3.67-2.128,1.711-2.128a1.359,1.359,0,0,1,1.264.723h.061V8.437H75.2v5.732h-.78v-.651h-.064a1.431,1.431,0,0,1-1.295.719C72.011,14.237,71.348,13.412,71.348,12.106Zm.84,0c0,.874.412,1.4,1.1,1.4s1.11-.534,1.11-1.4-.428-1.4-1.11-1.4-1.1.53-1.1,1.4Z" transform="translate(-38.684 -8.437)" fill="#fff"/>
      <path id="Path_5087" data-name="Path 5087" d="M79.229,12.247a1.953,1.953,0,1,1,3.888,0,1.953,1.953,0,1,1-3.888,0Zm3.052,0c0-.894-.4-1.416-1.106-1.416s-1.105.523-1.105,1.416.4,1.419,1.105,1.419S82.281,13.144,82.281,12.247Z" transform="translate(-39.349 -8.578)" fill="#fff"/>
      <path id="Path_5088" data-name="Path 5088" d="M84.669,10.187h.783v.655h.061a1.234,1.234,0,0,1,1.23-.734,1.341,1.341,0,0,1,1.427,1.533V14.31h-.814V11.845c0-.663-.288-.992-.89-.992a.946.946,0,0,0-.984,1.045V14.31h-.814Z" transform="translate(-39.809 -8.578)" fill="#fff"/>
      <path id="Path_5089" data-name="Path 5089" d="M93.38,9.074v1.045h.893V10.8H93.38v2.12c0,.432.178.621.583.621a2.716,2.716,0,0,0,.31-.019V14.2a2.669,2.669,0,0,1-.443.042c-.9,0-1.265-.318-1.265-1.113V10.8h-.654v-.685h.654V9.074Z" transform="translate(-40.421 -8.491)" fill="#fff"/>
      <path id="Path_5090" data-name="Path 5090" d="M95.7,8.437h.806v2.272h.064a1.269,1.269,0,0,1,1.257-.739,1.358,1.358,0,0,1,1.42,1.537v2.662h-.814V11.708c0-.658-.307-.992-.882-.992a.963.963,0,0,0-1.038,1.045v2.408H95.7Z" transform="translate(-40.741 -8.437)" fill="#fff"/>
      <path id="Path_5091" data-name="Path 5091" d="M104.419,13.2a1.674,1.674,0,0,1-1.786,1.193,1.873,1.873,0,0,1-1.9-2.128,1.9,1.9,0,0,1,1.9-2.154c1.147,0,1.839.784,1.839,2.078v.284h-2.911v.046a1.09,1.09,0,0,0,1.1,1.181.988.988,0,0,0,.981-.5Zm-2.862-1.329h2.082a.995.995,0,0,0-1.015-1.068,1.054,1.054,0,0,0-1.068,1.068Z" transform="translate(-41.164 -8.578)" fill="#fff"/>
    </g>
  </g>
</svg>
