<svg xmlns="http://www.w3.org/2000/svg" xmlns:xlink="http://www.w3.org/1999/xlink" width="109.775" height="17.282" viewBox="0 0 109.775 17.282">
  <defs>
    <clipPath id="clip-path">
      <rect id="Rectangle_52" data-name="Rectangle 52" width="109.775" height="17.282" fill="none"/>
    </clipPath>
  </defs>
  <g id="Group_26" data-name="Group 26" clip-path="url(#clip-path)">
    <path id="Path_17" data-name="Path 17" d="M53.555,5.833a5.063,5.063,0,0,0-1.646-3.642,4.451,4.451,0,0,0-1.993-1.155A15.784,15.784,0,0,0,46.479.748H43.305V17.257h3.4V10.988h.917A6.151,6.151,0,0,0,51.8,9.617a4.89,4.89,0,0,0,1.759-3.744v-.04ZM49.486,7.249h0a3.39,3.39,0,0,1-2.074.506s0,0,0,0h-.7V3.971h.614a3.726,3.726,0,0,1,2.149.5,1.626,1.626,0,0,1,.76,1.357,1.741,1.741,0,0,1-.745,1.426m.135.176h0Z" transform="translate(-8.666 -0.15)" fill="#fff"/>
    <path id="Path_18" data-name="Path 18" d="M70.341,5.833a5.061,5.061,0,0,0-1.647-3.642A4.445,4.445,0,0,0,66.7,1.036,15.776,15.776,0,0,0,63.266.748H60.091V17.257h3.4V10.988h.918a6.153,6.153,0,0,0,4.172-1.371,4.892,4.892,0,0,0,1.758-3.744v0c0-.027,0-.036,0-.036M66.272,7.249a3.394,3.394,0,0,1-2.074.506s0,0,0,0h-.7V3.971h.616a3.723,3.723,0,0,1,2.148.5,1.617,1.617,0,0,1,.758,1.357,1.733,1.733,0,0,1-.744,1.426Z" transform="translate(-12.026 -0.15)" fill="#fff"/>
    <path id="Path_19" data-name="Path 19" d="M124.516.411H124.5l-.018,0a8.32,8.32,0,0,0-6.012,2.47,8.017,8.017,0,0,0-2.525,5.9v.047a8.036,8.036,0,0,0,2.776,6.308,8.4,8.4,0,0,0,5.64,2.178h.046a8.408,8.408,0,0,0,6.057-2.454,8.047,8.047,0,0,0,2.516-5.947.124.124,0,0,1,0-.024l0-.017a8.163,8.163,0,0,0-2.5-5.969l.04-.04-.04.039A8.169,8.169,0,0,0,124.516.411m3.405,12a4.739,4.739,0,0,1-3.507,1.432,4.688,4.688,0,0,1-3.379-1.413,4.751,4.751,0,0,1-1.469-3.605,4.736,4.736,0,0,1,1.42-3.509,4.678,4.678,0,0,1,3.486-1.437,4.63,4.63,0,0,1,3.466,1.432,4.82,4.82,0,0,1,1.414,3.551,4.853,4.853,0,0,1-1.431,3.551" transform="translate(-23.203 -0.082)" fill="#fff"/>
    <path id="Path_20" data-name="Path 20" d="M9.273.733v6.2H3.406V.733H0V17.25H3.406V10.206H9.273V17.25h3.4V.733Z" transform="translate(0 -0.147)" fill="#fff"/>
    <path id="Path_21" data-name="Path 21" d="M27.7,0l-.2.4L19.188,17.1h3.707l1.639-3.291h6.105L32.168,17.1h3.746Zm-.058,7.423,1.545,3.291H26.03Z" transform="translate(-3.84 0)" fill="#fff"/>
    <path id="Path_22" data-name="Path 22" d="M84.515.733,81.288,6.36,78.067.733H74.147l5.43,9.451V17.25h3.407V10.185L88.438.733Z" transform="translate(-14.839 -0.147)" fill="#fff"/>
    <path id="Path_23" data-name="Path 23" d="M109.341,11.126c-.011-.052-.167-.37-.167-.37l-2.61-2.464-.43-.334-.92-.266.714,2.74c0,.051,0,.112.006.174a3.338,3.338,0,0,1-1.188,2.461,4.038,4.038,0,0,1-2.755.889,4.9,4.9,0,0,1-3.319-1.366,4.7,4.7,0,0,1-1.63-3.7,5.022,5.022,0,0,1,5.118-5.109,4.638,4.638,0,0,1,3.159,1.212l.038.034,2.456-2.456-.046-.038a8.836,8.836,0,0,0-2.008-1.369,8.579,8.579,0,0,0-3.637-.786h-.012l-.01,0a8.448,8.448,0,0,0-6.116,2.488,8.166,8.166,0,0,0-2.528,6.014l0,.01,0,.006a.085.085,0,0,0,0,.018l0,.007v.006a8.183,8.183,0,0,0,2.486,5.954,8.173,8.173,0,0,0,5.945,2.478h.057a7.574,7.574,0,0,0,5.91-2.431,5.924,5.924,0,0,0,1.355-2.505,3.136,3.136,0,0,0,.13-.739,2.366,2.366,0,0,0,0-.557" transform="translate(-18.703 -0.076)" fill="#fff"/>
    <path id="Path_24" data-name="Path 24" d="M110.755,12.035c-.448-.43-2.142-2.04-2.295-2.176a1.9,1.9,0,0,0-1.541-.528H103.1v3.045h5.683c.738,0,.956.006,1.239.006a1.443,1.443,0,0,1,1.249.487,1.43,1.43,0,0,0-.511-.835" transform="translate(-20.632 -1.868)" fill="#fff"/>
    <path id="Path_25" data-name="Path 25" d="M102.267,13.49h7.547a1.942,1.942,0,0,1,1.6.8" transform="translate(-20.466 -2.7)" fill="none" stroke="#a6a7a7" stroke-width="0.835"/>
  </g>
</svg>
