<svg xmlns="http://www.w3.org/2000/svg" width="123.598" height="36.985" viewBox="0 0 123.598 36.985">
  <g id="hwhvev8raccdx2sjzhno" transform="translate(0)">
    <path id="Path_5092" data-name="Path 5092" d="M119.02,36.984H4.578A4.614,4.614,0,0,1,0,32.361V4.623A4.614,4.614,0,0,1,4.578,0H119.02A4.614,4.614,0,0,1,123.6,4.623V32.361A4.614,4.614,0,0,1,119.02,36.984Z" transform="translate(0)"/>
    <path id="Path_5093" data-name="Path 5093" d="M119.02.74a3.869,3.869,0,0,1,3.845,3.884V32.362a3.869,3.869,0,0,1-3.845,3.884H4.578A3.869,3.869,0,0,1,.732,32.362V4.624A3.869,3.869,0,0,1,4.578.74H119.02m0-.739H4.578A4.614,4.614,0,0,0,0,4.624V32.362a4.614,4.614,0,0,0,4.578,4.623H119.02a4.614,4.614,0,0,0,4.578-4.623V4.624A4.614,4.614,0,0,0,119.02,0Z" transform="translate(0 -0.001)" fill="#a6a6a6"/>
    <path id="Path_5094" data-name="Path 5094" d="M203.455,35.958a2.488,2.488,0,0,1-.685,1.841,2.656,2.656,0,0,1-2.026.816,2.881,2.881,0,1,1,0-5.762,3.065,3.065,0,0,1,1.148.216,2.3,2.3,0,0,1,.886.609l-.508.508a1.71,1.71,0,0,0-.659-.481,2.175,2.175,0,0,0-.867-.173,2.075,2.075,0,0,0-1.525.624,2.332,2.332,0,0,0,0,3.158,2.074,2.074,0,0,0,1.525.624,2.053,2.053,0,0,0,1.371-.462,1.844,1.844,0,0,0,.632-1.271h-2v-.663h2.673A2.368,2.368,0,0,1,203.455,35.958Zm4.237-2.981v.678h-2.511V35.4h2.265v.663h-2.265v1.749h2.511v.678h-3.22V32.977Zm2.989.678v4.838h-.709V33.654h-1.541v-.678h3.79v.678Zm4.991,4.838h-.709V32.977h.709Zm3.143-4.838v4.838h-.709V33.654h-1.541v-.678h3.79v.678Zm9.529,2.08a2.8,2.8,0,0,1-.816,2.049,2.864,2.864,0,0,1-4.037,0,2.979,2.979,0,0,1,0-4.1,2.855,2.855,0,0,1,4.037.008A2.787,2.787,0,0,1,228.344,35.734Zm-4.945,0a2.185,2.185,0,0,0,.6,1.579,2.023,2.023,0,0,0,1.51.624,2,2,0,0,0,1.5-.624,2.353,2.353,0,0,0,0-3.158,2,2,0,0,0-1.5-.624,2.024,2.024,0,0,0-1.51.624A2.184,2.184,0,0,0,223.4,35.734Zm6.648,2.758h-.709V32.977h.863l2.681,4.291h.031l-.031-1.063V32.977h.709v5.515h-.74l-2.8-4.5h-.031l.031,1.063v3.436Z" transform="translate(-160.08 -26.498)" fill="#fff" stroke="#fff" stroke-miterlimit="10" stroke-width="0.2"/>
    <path id="Path_5095" data-name="Path 5095" d="M221.3,85.9a3.91,3.91,0,1,0,3.924,3.91A3.854,3.854,0,0,0,221.3,85.9Zm0,6.279a2.376,2.376,0,1,1,2.207-2.37A2.262,2.262,0,0,1,221.3,92.179ZM212.737,85.9a3.91,3.91,0,1,0,3.924,3.91A3.854,3.854,0,0,0,212.737,85.9Zm0,6.279a2.376,2.376,0,1,1,2.207-2.37A2.262,2.262,0,0,1,212.737,92.179ZM202.553,87.1v1.659h3.969a3.46,3.46,0,0,1-.9,2.088,4.063,4.063,0,0,1-3.066,1.214,4.414,4.414,0,0,1,0-8.826,4.231,4.231,0,0,1,2.992,1.185l1.17-1.17a5.786,5.786,0,0,0-4.162-1.673,6.072,6.072,0,1,0,0,12.144,5.552,5.552,0,0,0,4.236-1.7,5.481,5.481,0,0,0,1.437-3.88,5.4,5.4,0,0,0-.089-1.037h-5.583Zm41.65,1.288a3.634,3.634,0,0,0-3.347-2.488,3.716,3.716,0,0,0-3.688,3.91,3.826,3.826,0,0,0,3.88,3.91,3.889,3.889,0,0,0,3.258-1.733l-1.333-.888a2.233,2.233,0,0,1-1.925,1.081,1.989,1.989,0,0,1-1.9-1.185l5.228-2.162Zm-5.331,1.3a2.144,2.144,0,0,1,2.044-2.281,1.514,1.514,0,0,1,1.451.829Zm-4.251,3.791h1.718V81.991H234.62Zm-2.814-6.709h-.059a2.709,2.709,0,0,0-2.059-.874,3.913,3.913,0,0,0,0,7.819,2.666,2.666,0,0,0,2.059-.888h.059v.563c0,1.5-.8,2.3-2.088,2.3a2.163,2.163,0,0,1-1.97-1.392l-1.5.622a3.726,3.726,0,0,0,3.465,2.31c2.014,0,3.717-1.185,3.717-4.073v-7.02h-1.629Zm-1.97,5.405a2.378,2.378,0,0,1,0-4.739,2.389,2.389,0,0,1,0,4.739Zm22.412-10.189h-4.11V93.483h1.715V89.129h2.4a3.574,3.574,0,1,0,0-7.138Zm.044,5.539h-2.439V83.59h2.439a1.97,1.97,0,1,1,0,3.939Zm10.6-1.65a3.221,3.221,0,0,0-3.06,1.759l1.523.636a1.625,1.625,0,0,1,1.567-.843,1.652,1.652,0,0,1,1.8,1.478v.118a3.793,3.793,0,0,0-1.789-.444c-1.641,0-3.312.9-3.312,2.587A2.655,2.655,0,0,0,262.48,93.7a2.42,2.42,0,0,0,2.188-1.124h.059v.887h1.656V89.058c0-2.04-1.523-3.179-3.489-3.179Zm-.207,6.3c-.562,0-1.345-.281-1.345-.976,0-.887.976-1.227,1.818-1.227a3.056,3.056,0,0,1,1.567.384,2.079,2.079,0,0,1-2.04,1.818Zm9.728-6.047-1.966,4.982h-.059l-2.04-4.982H266.5l3.06,6.964-1.744,3.874h1.789l4.716-10.837h-1.907Zm-15.45,7.352h1.715V81.991h-1.715Z" transform="translate(-159.165 -65.691)" fill="#fff"/>
    <path id="Path_5096" data-name="Path 5096" d="M57.977,92.948,48.19,103.336l0,.006a2.646,2.646,0,0,0,3.894,1.594l.031-.019,11.016-6.356-5.156-5.613Z" transform="translate(-38.933 -74.936)" fill="#ea4335"/>
    <path id="Path_5097" data-name="Path 5097" d="M108.1,72.119l-.009-.006-4.756-2.757-5.358,4.768,5.377,5.376,4.731-2.73a2.645,2.645,0,0,0,.016-4.651Z" transform="translate(-79.241 -55.924)" fill="#fbbc04"/>
    <path id="Path_5098" data-name="Path 5098" d="M47.81,44.393a2.66,2.66,0,0,0-.09.688V63.635a2.608,2.608,0,0,0,.09.687L57.934,54.091Z" transform="translate(-38.553 -35.865)" fill="#4285f4"/>
    <path id="Path_5099" data-name="Path 5099" d="M58.048,45.991l5.065-5.064-11-6.38a2.648,2.648,0,0,0-3.921,1.584v0Z" transform="translate(-38.931 -27.549)" fill="#34a853"/>
  </g>
</svg>
