<svg id="Group_559" data-name="Group 559" xmlns="http://www.w3.org/2000/svg" xmlns:xlink="http://www.w3.org/1999/xlink" width="80" height="80" viewBox="0 0 80 80">
  <defs>
    <clipPath id="clip-path">
      <rect id="Rectangle_258" data-name="Rectangle 258" width="80" height="80" fill="none"/>
    </clipPath>
  </defs>
  <g id="Group_558" data-name="Group 558" clip-path="url(#clip-path)">
    <path id="Path_5035" data-name="Path 5035" d="M80,40A40,40,0,1,1,40,0,40,40,0,0,1,80,40" fill="#f08500"/>
    <path id="Path_5036" data-name="Path 5036" d="M73.956,71.98l-1.211-6.563a.678.678,0,0,0-.534-.541L62.683,62.97a.677.677,0,0,0-.612.185l-4.2,4.2c-7.1-3.088-10.9-6.9-14.282-14.294l4.189-4.189a.677.677,0,0,0,.185-.612l-1.906-9.528a.676.676,0,0,0-.541-.533l-6.563-1.212a.685.685,0,0,0-.273.006,8.736,8.736,0,0,0-4.247,2.346c-2.022,2.022-2.789,5-2.22,8.618,1,6.339,4.1,15.154,9.8,20.885l.039.04.031.031.01.01c5.73,5.707,14.545,8.806,20.884,9.8a14.441,14.441,0,0,0,2.234.182,8.457,8.457,0,0,0,8.731-6.65.684.684,0,0,0,.005-.273" transform="translate(-12.766 -14.733)" fill="#ffd2a9"/>
    <path id="Path_5037" data-name="Path 5037" d="M43.593,53.067,38.685,37a8.738,8.738,0,0,0-4.247,2.346c-2.022,2.022-2.79,5-2.221,8.618,1,6.34,4.1,15.155,9.8,20.885l.039.04.031.031.01.01c5.729,5.707,14.545,8.806,20.884,9.8a14.427,14.427,0,0,0,2.233.182,8.457,8.457,0,0,0,8.731-6.65l-16.076-4.9c-7.1-3.089-10.9-6.9-14.282-14.294" transform="translate(-12.766 -14.744)" fill="#ffd2a9"/>
    <path id="Path_5038" data-name="Path 5038" d="M66.591,78.659a14.355,14.355,0,0,1-2.233-.182c-6.34-1-15.155-4.1-20.884-9.8l-.01-.01-.031-.031-.039-.04c-5.708-5.731-8.807-14.546-9.8-20.885a10.1,10.1,0,0,1,1.459-7.731c-.211.174-.416.359-.611.555-2.022,2.021-2.79,5-2.221,8.618,1,6.339,4.1,15.154,9.8,20.885l.039.04.031.03.01.01c5.73,5.706,14.545,8.805,20.884,9.8a14.353,14.353,0,0,0,2.233.182A8.726,8.726,0,0,0,71.6,77.7a8.882,8.882,0,0,0,.813-.937,8.945,8.945,0,0,1-5.826,1.9" transform="translate(-12.766 -15.931)" fill="#dd6b2c"/>
    <path id="Path_5039" data-name="Path 5039" d="M75.647,35.728c-6.724,0-12.195,4.559-12.195,10.162a9.5,9.5,0,0,0,4.322,7.764l-2.227,4.825a.677.677,0,0,0,.944.876l6.41-3.561a14.6,14.6,0,0,0,2.746.259c6.724,0,12.195-4.559,12.195-10.162S82.371,35.728,75.647,35.728" transform="translate(-25.285 -14.237)" fill="#fff"/>
    <path id="Path_5040" data-name="Path 5040" d="M83.734,49.244h-2.71a.678.678,0,0,0-.678.677v7.453a.678.678,0,0,0,.678.677h2.71a.677.677,0,0,0,.677-.677V49.921a.676.676,0,0,0-.677-.677" transform="translate(-32.018 -19.624)" fill="#f08500"/>
    <path id="Path_5041" data-name="Path 5041" d="M82.379,41.36a2.032,2.032,0,1,0,2.032,2.032,2.035,2.035,0,0,0-2.032-2.032" transform="translate(-32.018 -16.482)" fill="#f08500"/>
  </g>
</svg>
