<svg xmlns="http://www.w3.org/2000/svg" xmlns:xlink="http://www.w3.org/1999/xlink" width="28.153" height="27.979" viewBox="0 0 28.153 27.979">
  <defs>
    <clipPath id="clip-path">
      <rect id="Rectangle_255" data-name="Rectangle 255" width="20.707" height="20.199" transform="translate(-2 -2)" fill="#f58723" stroke="#f58823" stroke-linecap="round" stroke-linejoin="round" stroke-width="1"/>
    </clipPath>
  </defs>
  <g id="Group_548" data-name="Group 548" transform="translate(2.744 11.349) rotate(-31)">
    <g id="Group_547" data-name="Group 547" transform="translate(0 0)" clip-path="url(#clip-path)">
      <path id="Path_5020" data-name="Path 5020" d="M8.24,14.663c-.3,0-.608-.014-.909-.041l-4.01-.363H.957A.861.861,0,0,1,.1,13.354a.879.879,0,0,1,.9-.814h.444a1.684,1.684,0,0,0,1.682-1.682V6.4a5.121,5.121,0,0,1,10.242,0v4.459a1.684,1.684,0,0,0,1.682,1.682h.7a.889.889,0,0,1,.882.708.86.86,0,0,1-.847,1.012H13.14l-3.989.362c-.3.027-.606.041-.91.041M.994,12.984a.44.44,0,0,0-.451.394.416.416,0,0,0,.415.439H3.341l4.03.364a9.623,9.623,0,0,0,1.739,0l4.009-.363h2.66a.418.418,0,0,0,.41-.493.442.442,0,0,0-.445-.34h-.7a2.128,2.128,0,0,1-2.125-2.125V6.4a4.678,4.678,0,1,0-9.355,0v4.459a2.128,2.128,0,0,1-2.125,2.125Z" transform="translate(-0.015 -0.196)" fill="#f58723" stroke="#f58823" stroke-linecap="round" stroke-linejoin="round" stroke-width="1"/>
      <path id="Path_5021" data-name="Path 5021" d="M8.225,14.731c-.306,0-.615-.014-.917-.041L3.3,14.326l-2.357,0a.947.947,0,0,1-.684-.294.937.937,0,0,1-.257-.7.962.962,0,0,1,.978-.893h.444a1.6,1.6,0,0,0,1.6-1.6V6.383a5.2,5.2,0,1,1,10.408,0v4.46a1.6,1.6,0,0,0,1.6,1.6h.7a.974.974,0,0,1,.964.777.943.943,0,0,1-.929,1.109H13.125l-3.982.362c-.3.028-.611.041-.917.041m-4.92-.571,4.017.364a10.2,10.2,0,0,0,1.805,0l3.989-.362h2.647a.777.777,0,0,0,.765-.915.8.8,0,0,0-.8-.638h-.7a1.767,1.767,0,0,1-1.765-1.765V6.383a5.038,5.038,0,0,0-10.076,0v4.46a1.767,1.767,0,0,1-1.765,1.765H.979a.8.8,0,0,0-.812.735.776.776,0,0,0,.776.818Zm4.92.127c-.293,0-.587-.013-.877-.04l-4.03-.364H.942a.5.5,0,0,1-.5-.527.525.525,0,0,1,.534-.472h.444a2.044,2.044,0,0,0,2.042-2.042V6.383a4.761,4.761,0,0,1,9.521,0v4.46a2.044,2.044,0,0,0,2.042,2.042h.7a.524.524,0,0,1,.527.409.5.5,0,0,1-.491.59H13.1l-4,.362c-.291.027-.584.04-.877.04M.979,13.051a.358.358,0,0,0-.368.314.332.332,0,0,0,.332.351H3.326l4.037.365a9.619,9.619,0,0,0,1.725,0l4.009-.363,2.667,0a.333.333,0,0,0,.328-.395.357.357,0,0,0-.363-.271h-.7a2.211,2.211,0,0,1-2.208-2.208V6.383a4.595,4.595,0,0,0-9.189,0v4.46a2.211,2.211,0,0,1-2.208,2.208Z" transform="translate(0 -0.181)" fill="#f58723" stroke="#f58823" stroke-linecap="round" stroke-linejoin="round" stroke-width="1"/>
      <path id="Path_5022" data-name="Path 5022" d="M9.388,18.663a1.811,1.811,0,0,1-1.81-1.81.222.222,0,0,1,.444,0,1.366,1.366,0,0,0,2.732,0,.222.222,0,0,1,.444,0,1.812,1.812,0,0,1-1.81,1.81" transform="translate(-1.161 -2.549)" fill="#f58723" stroke="#f58823" stroke-linecap="round" stroke-linejoin="round" stroke-width="1"/>
      <path id="Path_5023" data-name="Path 5023" d="M9.373,18.732A1.9,1.9,0,0,1,7.48,16.84a.3.3,0,1,1,.61,0,1.282,1.282,0,0,0,2.565,0,.305.305,0,1,1,.611,0,1.9,1.9,0,0,1-1.893,1.893M7.785,16.7a.139.139,0,0,0-.139.139,1.726,1.726,0,1,0,3.452,0,.138.138,0,1,0-.277,0,1.449,1.449,0,1,1-2.9,0,.139.139,0,0,0-.139-.139" transform="translate(-1.146 -2.534)" fill="#f58723" stroke="#f58823" stroke-linecap="round" stroke-linejoin="round" stroke-width="1"/>
      <path id="Path_5024" data-name="Path 5024" d="M9.675,3.3a.221.221,0,0,1-.222-.222V.32A.222.222,0,0,1,9.9.32V3.075a.222.222,0,0,1-.222.222" transform="translate(-1.449 -0.015)" fill="#f58723" stroke="#f58823" stroke-linecap="round" stroke-linejoin="round" stroke-width="1"/>
      <path id="Path_5025" data-name="Path 5025" d="M9.66,3.365a.3.3,0,0,1-.3-.3V.3a.3.3,0,1,1,.61,0V3.06a.3.3,0,0,1-.3.3m0-3.2A.139.139,0,0,0,9.521.3V3.06a.138.138,0,1,0,.277,0V.3A.139.139,0,0,0,9.66.166" transform="translate(-1.434 0)" fill="#f58723" stroke="#f58823" stroke-linecap="round" stroke-linejoin="round" stroke-width="1"/>
    </g>
  </g>
</svg>
