<svg id="Group_22" data-name="Group 22" xmlns="http://www.w3.org/2000/svg" xmlns:xlink="http://www.w3.org/1999/xlink" width="40" height="40" viewBox="0 0 40 40">
  <defs>
    <clipPath id="clip-path">
      <rect id="Rectangle_121" data-name="Rectangle 121" width="21.94" height="21.941" fill="#fff"/>
    </clipPath>
  </defs>
  <path id="Path_3564" data-name="Path 3564" d="M20,0A20,20,0,1,1,0,20,20,20,0,0,1,20,0Z" transform="translate(0)" fill="#e1306c"/>
  <g id="Group_163" data-name="Group 163" transform="translate(9.03 9.03)">
    <g id="Group_162" data-name="Group 162" transform="translate(0 0)" clip-path="url(#clip-path)">
      <path id="Path_3555" data-name="Path 3555" d="M20.719,4.914A1.286,1.286,0,1,0,22,6.2a1.286,1.286,0,0,0-1.286-1.286" transform="translate(-3.94 -0.996)" fill="#fff"/>
      <path id="Path_3556" data-name="Path 3556" d="M12.5,6.983a5.4,5.4,0,1,0,5.4,5.4,5.41,5.41,0,0,0-5.4-5.4m0,8.865a3.461,3.461,0,1,1,3.461-3.461A3.465,3.465,0,0,1,12.5,15.848" transform="translate(-1.439 -1.415)" fill="#fff"/>
      <path id="Path_3557" data-name="Path 3557" d="M15.35,21.94H6.59A6.6,6.6,0,0,1,0,15.35V6.59A6.6,6.6,0,0,1,6.59,0h8.76a6.6,6.6,0,0,1,6.59,6.59v8.76a6.6,6.6,0,0,1-6.59,6.59M6.59,2.064A4.53,4.53,0,0,0,2.064,6.59v8.76A4.53,4.53,0,0,0,6.59,19.876h8.76a4.531,4.531,0,0,0,4.526-4.526V6.59A4.531,4.531,0,0,0,15.35,2.064Z" transform="translate(0 0)" fill="#fff"/>
    </g>
  </g>
</svg>
