<svg xmlns="http://www.w3.org/2000/svg" xmlns:xlink="http://www.w3.org/1999/xlink" width="40" height="40" viewBox="0 0 40 40">
  <defs>
    <clipPath id="clip-path">
      <rect id="Rectangle_123" data-name="Rectangle 123" width="25.37" height="8.864" fill="#fff"/>
    </clipPath>
  </defs>
  <g id="Group_23" data-name="Group 23" transform="translate(0.242 -0.256)">
    <circle id="Ellipse_13" data-name="Ellipse 13" cx="20" cy="20" r="20" transform="translate(-0.242 0.256)" fill="#06c755"/>
    <g id="Group_167" data-name="Group 167" transform="translate(7.045 15.169)">
      <g id="Group_166" data-name="Group 166" transform="translate(0 1)" clip-path="url(#clip-path)">
        <path id="Path_3559" data-name="Path 3559" d="M91.888,8.864a.357.357,0,0,0,.357-.357V7.183a.358.358,0,0,0-.357-.357H88.322V5.451h3.566a.357.357,0,0,0,.357-.357V3.77a.358.358,0,0,0-.357-.357H88.322V2.038h3.566a.357.357,0,0,0,.357-.357V.357A.358.358,0,0,0,91.888,0H86.641a.357.357,0,0,0-.357.357V.364h0V8.5h0v.006a.357.357,0,0,0,.357.357h5.247Z" transform="translate(-66.874 0)" fill="#fff"/>
        <path id="Path_3560" data-name="Path 3560" d="M5.6,8.864a.357.357,0,0,0,.357-.357V7.183A.358.358,0,0,0,5.6,6.826H2.038V.357A.358.358,0,0,0,1.681,0H.357A.357.357,0,0,0,0,.357V8.5H0v.006a.357.357,0,0,0,.357.357H5.6Z" transform="translate(0 0)" fill="#fff"/>
        <path id="Path_3561" data-name="Path 3561" d="M33.162,0H31.838a.357.357,0,0,0-.357.357V8.508a.357.357,0,0,0,.357.357h1.325a.357.357,0,0,0,.357-.357V.357A.357.357,0,0,0,33.162,0" transform="translate(-24.399)" fill="#fff"/>
        <path id="Path_3562" data-name="Path 3562" d="M53.587,0H52.262a.357.357,0,0,0-.357.357V5.2L48.176.162a.321.321,0,0,0-.029-.037l0,0L48.124.1,48.117.094,48.1.077,48.088.07,48.07.057,48.059.051,48.039.04,48.027.034,48.007.025,48,.021,47.974.014l-.013,0-.021,0-.015,0-.019,0H46.557A.357.357,0,0,0,46.2.357V8.508a.357.357,0,0,0,.357.357h1.325a.357.357,0,0,0,.357-.357V3.668l3.734,5.043a.356.356,0,0,0,.092.09l0,0,.022.013.01.006.017.008.018.007.011,0,.025.008h.005a.363.363,0,0,0,.093.012h1.317a.357.357,0,0,0,.357-.357V.357A.357.357,0,0,0,53.587,0" transform="translate(-35.807)" fill="#fff"/>
      </g>
    </g>
  </g>
</svg>
