<svg xmlns="http://www.w3.org/2000/svg" xmlns:xlink="http://www.w3.org/1999/xlink" width="80" height="80" viewBox="0 0 80 80">
  <defs>
    <clipPath id="clip-path">
      <rect id="Rectangle_260" data-name="Rectangle 260" width="80" height="80" fill="none"/>
    </clipPath>
  </defs>
  <g id="Group_563" data-name="Group 563" transform="translate(0 -4.811)">
    <g id="Group_562" data-name="Group 562" transform="translate(0 4.811)" clip-path="url(#clip-path)">
      <path id="Path_5048" data-name="Path 5048" d="M80,40A40,40,0,1,1,40,0,40,40,0,0,1,80,40" fill="#f08500"/>
      <path id="Path_5049" data-name="Path 5049" d="M74.414,30.216A15.007,15.007,0,1,0,89.421,45.223,15.024,15.024,0,0,0,74.414,30.216" transform="translate(-23.673 -12.041)" fill="#dd6b2c"/>
      <path id="Path_5050" data-name="Path 5050" d="M91.973,52.643l-1.35-1.012a6.587,6.587,0,0,0,.718-3.016c0-3.267-2.3-5.924-5.134-5.924s-5.134,2.656-5.134,5.924,2.3,5.924,5.134,5.924a4.647,4.647,0,0,0,2.928-1.063l1.416,1.063a.79.79,0,0,0,1.106-.158l.474-.632a.79.79,0,0,0-.158-1.106m-5.766-.474c-1.524,0-2.765-1.595-2.765-3.554s1.24-3.554,2.765-3.554,2.765,1.595,2.765,3.554a4.385,4.385,0,0,1-.283,1.565l-.506-.381a.791.791,0,0,0-1.106.158l-.473.632a.789.789,0,0,0,.158,1.106l.363.272a2.219,2.219,0,0,1-.916.2" transform="translate(-32.307 -17.012)" fill="#fff"/>
      <path id="Path_5051" data-name="Path 5051" d="M40.274,30.216A15.007,15.007,0,1,0,55.281,45.223,15.024,15.024,0,0,0,40.274,30.216" transform="translate(-10.069 -12.041)" fill="#fff"/>
      <path id="Path_5052" data-name="Path 5052" d="M42.643,59.719a15.006,15.006,0,0,1-5.906-28.8A15.007,15.007,0,1,0,46.179,59.3a15,15,0,0,1-3.536.422" transform="translate(-10.069 -12.32)" fill="#ffd2a9"/>
      <path id="Path_5053" data-name="Path 5053" d="M49.055,45.584v-.79a.789.789,0,0,0-.79-.789H41.552a1.185,1.185,0,0,0-1.185,1.185v9.477a.79.79,0,0,0,.79.79h.79a.79.79,0,0,0,.79-.79V51.113h3.949a.79.79,0,0,0,.79-.79v-.789a.79.79,0,0,0-.79-.79H42.736V46.373h5.529a.79.79,0,0,0,.79-.79" transform="translate(-16.086 -17.535)" fill="#dd6b2c"/>
      <path id="Path_5054" data-name="Path 5054" d="M57.344,56.478A15.006,15.006,0,0,0,47.073,82.425l-1.536,4.606A.8.8,0,0,0,46.613,88l5.436-2.471a15.008,15.008,0,1,0,5.3-29.051" transform="translate(-16.871 -22.506)" fill="#ffd2a9"/>
      <path id="Path_5055" data-name="Path 5055" d="M47.906,87.031l1.536-4.607a15.006,15.006,0,0,1,9.086-25.9q-.586-.046-1.184-.046A15.006,15.006,0,0,0,47.073,82.424l-1.536,4.607A.8.8,0,0,0,46.613,88l1.27-.577a.749.749,0,0,1,.023-.392" transform="translate(-16.871 -22.506)" fill="#dd6b2c"/>
      <path id="Path_5056" data-name="Path 5056" d="M68.188,82.164l.706-.353a.79.79,0,0,0,.354-1.06l-1.631-3.377h-.058L64.332,70.92a1.187,1.187,0,0,0-1.268-.637,1.219,1.219,0,0,0-.867.668l-3.269,6.423v.115L57.3,80.751a.79.79,0,0,0,.353,1.06l.707.353a.789.789,0,0,0,1.059-.353l1.034-2.068h5.644l1.034,2.068a.79.79,0,0,0,1.06.353m-6.553-4.79L63.272,74.1l1.637,3.275Z" transform="translate(-22.799 -28)" fill="#f08500"/>
    </g>
  </g>
</svg>
