<svg xmlns="http://www.w3.org/2000/svg" xmlns:xlink="http://www.w3.org/1999/xlink" width="80" height="80" viewBox="0 0 80 80">
  <defs>
    <clipPath id="clip-path">
      <rect id="長方形_1211" data-name="長方形 1211" width="80" height="80" fill="none"/>
    </clipPath>
    <clipPath id="clip-path-2">
      <rect id="長方形_1210" data-name="長方形 1210" width="50.829" height="47.519" fill="none"/>
    </clipPath>
  </defs>
  <g id="グループ_2423" data-name="グループ 2423" transform="translate(-106 93)">
    <g id="グループ_2427" data-name="グループ 2427" transform="translate(106 -93)" clip-path="url(#clip-path)">
      <path id="パス_12658" data-name="パス 12658" d="M80,40A40,40,0,1,1,40,0,40,40,0,0,1,80,40" fill="#f08502"/>
      <path id="パス_12659" data-name="パス 12659" d="M67.164,66.348a14.145,14.145,0,1,0-22.4-2.682l-.082,5.8,5.8-.317a14.231,14.231,0,0,0,16.683-2.8" transform="translate(-17.066 -16.895)" fill="#ce713d"/>
      <g id="グループ_2426" data-name="グループ 2426" transform="translate(15.282 16.479)">
        <g id="グループ_2425" data-name="グループ 2425" clip-path="url(#clip-path-2)">
          <g id="グループ_2424" data-name="グループ 2424">
            <g id="グループ_2423-2" data-name="グループ 2423" clip-path="url(#clip-path-2)">
              <path id="パス_12660" data-name="パス 12660" d="M76.231,46.817v6.528a3.675,3.675,0,0,1-3.639,3.639h-.744A22.354,22.354,0,0,1,54.66,71.608,3.889,3.889,0,1,1,54.5,69.8a20.559,20.559,0,0,0,15.45-12.811h-.906a.918.918,0,0,1-.913-.913V44.01a.918.918,0,0,1,.913-.913H70.2a20.412,20.412,0,0,0-38.678,0h1.157a.922.922,0,0,1,.913.913v11.98a.922.922,0,0,1-.913.913H29.044A3.671,3.671,0,0,1,25.4,53.263V46.736A3.671,3.671,0,0,1,29.044,43.1h.575a22.217,22.217,0,0,1,42.479,0h.575a3.571,3.571,0,0,1,3.558,3.72m-1.738,6.528V46.736a1.833,1.833,0,0,0-1.82-1.82H69.948V55.164h2.726a1.833,1.833,0,0,0,1.82-1.82M52.922,71.114a2.063,2.063,0,1,0-2.063,2.063,2.094,2.094,0,0,0,2.063-2.063M31.77,55.164V45H29.044a1.833,1.833,0,0,0-1.82,1.82v6.528a1.833,1.833,0,0,0,1.82,1.82Z" transform="translate(-25.405 -27.397)" fill="#ffd2a9"/>
              <path id="パス_12661" data-name="パス 12661" d="M104,58.343v6.609a1.833,1.833,0,0,1-1.82,1.82H99.458V56.523h2.726a1.833,1.833,0,0,1,1.82,1.82" transform="translate(-54.915 -39.004)" fill="#ffd2a9"/>
              <path id="パス_12662" data-name="パス 12662" d="M66.356,96.646a2.041,2.041,0,0,1,2.063,2.063,2.094,2.094,0,0,1-2.063,2.064,2.063,2.063,0,0,1,0-4.127" transform="translate(-40.902 -54.992)" fill="#ffd2a9"/>
              <path id="パス_12663" data-name="パス 12663" d="M32.976,56.658V66.825H30.25a1.833,1.833,0,0,1-1.82-1.82V58.478a1.833,1.833,0,0,1,1.82-1.82Z" transform="translate(-26.611 -39.057)" fill="#ffd2a9"/>
            </g>
          </g>
        </g>
      </g>
      <path id="パス_12664" data-name="パス 12664" d="M72.675,43.1H72.1a22.217,22.217,0,0,0-42.479,0h-.575a3.671,3.671,0,0,0-3.639,3.639v6.528A3.671,3.671,0,0,0,29.045,56.9h3.632a.922.922,0,0,0,.913-.913V44.01a.922.922,0,0,0-.913-.913H31.521a20.412,20.412,0,0,1,38.678,0H69.042a.918.918,0,0,0-.913.913V56.071a.918.918,0,0,0,.913.913h.906A20.559,20.559,0,0,1,54.5,69.8,3.824,3.824,0,0,0,50.86,67.15a3.883,3.883,0,1,0,3.8,4.458A22.354,22.354,0,0,0,71.849,56.984h.744a3.675,3.675,0,0,0,3.639-3.639V46.817A3.571,3.571,0,0,0,72.675,43.1Z" transform="translate(-10.124 -10.918)" fill="none" stroke="#ffd2a9" stroke-miterlimit="10" stroke-width="1"/>
      <path id="パス_12665" data-name="パス 12665" d="M32.976,66.825H30.25a1.833,1.833,0,0,1-1.82-1.82V58.478a1.833,1.833,0,0,1,1.82-1.82h2.726Z" transform="translate(-11.329 -22.578)" fill="none" stroke="#ffd2a9" stroke-miterlimit="10" stroke-width="1"/>
      <path id="パス_12666" data-name="パス 12666" d="M66.356,100.773a2.063,2.063,0,1,1,2.063-2.063A2.093,2.093,0,0,1,66.356,100.773Z" transform="translate(-25.621 -38.513)" fill="none" stroke="#ffd2a9" stroke-miterlimit="10" stroke-width="1"/>
      <path id="パス_12667" data-name="パス 12667" d="M104,64.951a1.833,1.833,0,0,1-1.82,1.82H99.458V56.523h2.726a1.833,1.833,0,0,1,1.82,1.82Z" transform="translate(-39.634 -22.524)" fill="none" stroke="#ffd2a9" stroke-miterlimit="10" stroke-width="1"/>
      <path id="パス_12668" data-name="パス 12668" d="M70.08,64.249a14.145,14.145,0,1,0-22.4-2.682l-.082,5.8,5.8-.317a14.231,14.231,0,0,0,16.683-2.8" transform="translate(-18.228 -16.059)" fill="#fff"/>
      <path id="パス_12669" data-name="パス 12669" d="M55.344,61.287a2.036,2.036,0,0,1,2.659,0,1.788,1.788,0,0,1,.512,1.329A1.717,1.717,0,0,1,58,63.926a1.98,1.98,0,0,1-2.659,0,1.717,1.717,0,0,1-.512-1.31,1.788,1.788,0,0,1,.512-1.329" transform="translate(-21.85 -24.226)" fill="#ef8933"/>
      <path id="パス_12670" data-name="パス 12670" d="M66.709,61.287a2.036,2.036,0,0,1,2.659,0,1.788,1.788,0,0,1,.512,1.329,1.717,1.717,0,0,1-.512,1.31,1.98,1.98,0,0,1-2.659,0,1.717,1.717,0,0,1-.512-1.31,1.788,1.788,0,0,1,.512-1.329" transform="translate(-26.379 -24.226)" fill="#ef8933"/>
      <path id="パス_12671" data-name="パス 12671" d="M78.074,61.287a2.034,2.034,0,0,1,2.657,0,1.786,1.786,0,0,1,.512,1.329,1.715,1.715,0,0,1-.512,1.31,1.979,1.979,0,0,1-2.657,0,1.715,1.715,0,0,1-.513-1.31,1.786,1.786,0,0,1,.513-1.329" transform="translate(-30.908 -24.226)" fill="#ef8933"/>
    </g>
  </g>
</svg>
