<svg id="Group_587" data-name="Group 587" xmlns="http://www.w3.org/2000/svg" xmlns:xlink="http://www.w3.org/1999/xlink" width="12.901" height="18.13" viewBox="0 0 12.901 18.13">
  <defs>
    <clipPath id="clip-path">
      <rect id="Rectangle_269" data-name="Rectangle 269" width="12.901" height="18.13" fill="none"/>
    </clipPath>
  </defs>
  <g id="Group_586" data-name="Group 586" transform="translate(0 0)" clip-path="url(#clip-path)">
    <path id="Path_5103" data-name="Path 5103" d="M9.966,0H2.935A2.938,2.938,0,0,0,0,2.935V15.2A2.938,2.938,0,0,0,2.935,18.13H9.966A2.938,2.938,0,0,0,12.9,15.2V2.935A2.938,2.938,0,0,0,9.966,0M1.9,2.935A1.033,1.033,0,0,1,2.935,1.9H9.966A1.032,1.032,0,0,1,11,2.935V15.2a1.032,1.032,0,0,1-1.032,1.031H2.935A1.033,1.033,0,0,1,1.9,15.2Z" transform="translate(0 0)"/>
    <path id="Path_5104" data-name="Path 5104" d="M8.282,17.985H6.553a.951.951,0,1,1,0-1.9H8.282a.951.951,0,1,1,0,1.9" transform="translate(-0.967 -2.777)"/>
  </g>
</svg>
