<svg xmlns="http://www.w3.org/2000/svg" xmlns:xlink="http://www.w3.org/1999/xlink" width="18.13" height="18.13" viewBox="0 0 18.13 18.13">
  <defs>
    <clipPath id="clip-path">
      <rect id="Rectangle_641" data-name="Rectangle 641" width="18.13" height="18.13" transform="translate(0 0)" fill="#270089"/>
    </clipPath>
  </defs>
  <g id="Group_1386" data-name="Group 1386" transform="translate(0 0)">
    <g id="Group_1385" data-name="Group 1385" transform="translate(0 0)" clip-path="url(#clip-path)">
      <path id="Path_9392" data-name="Path 9392" d="M17,3.4H13.945l2.361-1.427A.615.615,0,0,0,15.69.906L13.015,2.524a2.161,2.161,0,0,0,.015-.258A2.258,2.258,0,0,0,9.065.782a2.258,2.258,0,0,0-3.95,1.742L2.439.906a.615.615,0,0,0-.615,1.066L4.185,3.4H1.133A1.133,1.133,0,0,0,0,4.532v3.06A1.133,1.133,0,0,0,1.133,8.726v7.138A2.266,2.266,0,0,0,3.4,18.129H14.73A2.267,2.267,0,0,0,17,15.863V8.725A1.133,1.133,0,0,0,18.13,7.592V4.532A1.133,1.133,0,0,0,17,3.4M1.7,7.592a.567.567,0,0,1-.567-.566v-2c0-.577.414-.495.567-.495h4.89v3.06ZM3.4,17a1.133,1.133,0,0,1-1.133-1.133V8.725H6.589l0,8.271ZM6.232,2.266A1.133,1.133,0,1,1,7.365,3.4,1.133,1.133,0,0,1,6.232,2.266M7.816,17l0-12.464h2.49l0,12.464ZM9.631,2.266A1.133,1.133,0,1,1,10.765,3.4,1.133,1.133,0,0,1,9.631,2.266m6.232,13.6A1.133,1.133,0,0,1,14.73,17H11.536l0-8.271h4.323ZM17,7.026a.566.566,0,0,1-.567.566H11.54V4.532h4.89c.18,0,.567-.114.567.567Z" transform="translate(0 0)" fill="#270089" fill-rule="evenodd"/>
    </g>
  </g>
</svg>
