<svg id="Group_561" data-name="Group 561" xmlns="http://www.w3.org/2000/svg" xmlns:xlink="http://www.w3.org/1999/xlink" width="80" height="80" viewBox="0 0 80 80">
  <defs>
    <clipPath id="clip-path">
      <rect id="Rectangle_259" data-name="Rectangle 259" width="80" height="80" fill="none"/>
    </clipPath>
  </defs>
  <g id="Group_560" data-name="Group 560" clip-path="url(#clip-path)">
    <path id="Path_5042" data-name="Path 5042" d="M80,40A40,40,0,1,1,40,0,40,40,0,0,1,80,40" fill="#f08500"/>
    <path id="Path_5043" data-name="Path 5043" d="M73.536,72.4H30.045a.7.7,0,0,1-.7-.7V46.447L51.339,27.889a.7.7,0,0,1,.9,0L74.238,46.447V71.7a.7.7,0,0,1-.7.7" transform="translate(-11.693 -11.048)" fill="#ffd2a9"/>
    <path id="Path_5044" data-name="Path 5044" d="M72.589,33.195H34.71a.7.7,0,0,0-.7.7V71.074a.7.7,0,0,0,.7.7H72.589a.7.7,0,0,0,.7-.7V33.9a.7.7,0,0,0-.7-.7" transform="translate(-13.552 -13.228)" fill="#fff"/>
    <path id="Path_5045" data-name="Path 5045" d="M29.784,84.652a.7.7,0,0,0,.437.153H73.712a.7.7,0,0,0,.7-.7V58.851Z" transform="translate(-11.869 -23.452)" fill="#ffd2a9"/>
    <path id="Path_5046" data-name="Path 5046" d="M29.344,58.851V84.1a.7.7,0,0,0,.7.7H73.536a.7.7,0,0,0,.437-.153Z" transform="translate(-11.693 -23.452)" fill="#dd6b2c"/>
    <path id="Path_5047" data-name="Path 5047" d="M67.1,40a11.436,11.436,0,0,0-7.643-2.721,10.873,10.873,0,1,0,.12,21.746h.231a.7.7,0,0,0,.7-.7v-.7a.7.7,0,0,0-.7-.7h-.254a8.768,8.768,0,1,1-.1-17.536c5.163,0,8.768,3.317,8.768,8.067A4.8,4.8,0,0,1,64.018,52.6V42.888a.7.7,0,0,0-.7-.7h-.7a.7.7,0,0,0-.7.7v.831a4.108,4.108,0,0,0-2.455-.831c-2.514,0-4.559,2.36-4.559,5.261s2.045,5.261,4.559,5.261a4.1,4.1,0,0,0,2.455-.831v1.183a1.052,1.052,0,0,0,1.052,1.052A8.534,8.534,0,0,0,67.207,53.6a6.784,6.784,0,0,0,3.125-6.153A9.79,9.79,0,0,0,67.1,40M59.459,51.305C58.1,51.305,57,49.89,57,48.149s1.1-3.157,2.455-3.157,2.455,1.416,2.455,3.157-1.1,3.157-2.455,3.157" transform="translate(-19.361 -14.854)" fill="#f08500"/>
  </g>
</svg>
