<svg id="Group_2258" data-name="Group 2258" xmlns="http://www.w3.org/2000/svg" xmlns:xlink="http://www.w3.org/1999/xlink" width="149.024" height="151.8" viewBox="0 0 149.024 151.8">
  <defs>
    <clipPath id="clip-path">
      <rect id="Rectangle_1129" data-name="Rectangle 1129" width="149.024" height="151.8" fill="none"/>
    </clipPath>
    <clipPath id="clip-path-2">
      <rect id="Rectangle_1122" data-name="Rectangle 1122" width="130.48" height="102.909" transform="translate(1.25 47.641)" fill="none"/>
    </clipPath>
    <clipPath id="clip-path-4">
      <rect id="Rectangle_1124" data-name="Rectangle 1124" width="45.256" height="53.22" transform="translate(19.2 1.25)" fill="none"/>
    </clipPath>
    <clipPath id="clip-path-6">
      <rect id="Rectangle_1126" data-name="Rectangle 1126" width="67.892" height="100.4" transform="translate(80.632 31.831)" fill="none"/>
    </clipPath>
    <clipPath id="clip-path-8">
      <rect id="Rectangle_1128" data-name="Rectangle 1128" width="35.258" height="33.538" transform="translate(96.738 47.294)" fill="none"/>
    </clipPath>
  </defs>
  <g id="Group_2257" data-name="Group 2257" clip-path="url(#clip-path)">
    <path id="Path_12466" data-name="Path 12466" d="M36.15,55.83c0,4.971-6.716,9-15,9s-15-4.029-15-9,6.716-9,15-9,15,4.029,15,9" fill="#fff"/>
    <path id="Path_12467" data-name="Path 12467" d="M131.15,138.83c0,4.971-6.716,9-15,9s-15-4.029-15-9,6.716-9,15-9,15,4.029,15,9" fill="#fff"/>
    <g id="Group_2244" data-name="Group 2244">
      <g id="Group_2243" data-name="Group 2243" clip-path="url(#clip-path-2)">
        <g id="Group_2242" data-name="Group 2242">
          <g id="Group_2241" data-name="Group 2241" clip-path="url(#clip-path-2)">
            <path id="Path_12468" data-name="Path 12468" d="M32.79,114.84c.01,4.57-6.64,8.45-14.53,8.47S3.71,119.49,3.7,114.92s6.64-8.45,14.52-8.47,14.56,3.82,14.57,8.39" fill="#fff"/>
            <path id="Path_12469" data-name="Path 12469" d="M87.06,84.02c.01,4.57-6.64,8.45-14.52,8.47S57.98,88.67,57.97,84.1s6.64-8.45,14.52-8.47,14.56,3.83,14.57,8.39" fill="#fff"/>
            <path id="Path_12470" data-name="Path 12470" d="M57.97,84.1c.01,4.57,6.68,8.41,14.57,8.39s14.53-3.9,14.52-8.47-6.68-8.41-14.57-8.39-14.53,3.9-14.52,8.47M18.22,106.45c-7.88.02-14.53,3.9-14.52,8.47s6.68,8.41,14.56,8.39,14.54-3.9,14.53-8.47-6.68-8.41-14.57-8.39M10.47,50.32c-2.83,1.61-4.46,3.81-4.45,6.05.01,4.57,6.68,8.41,14.56,8.39S35.12,60.87,35.1,56.3c0-2.41-1.85-4.72-5.07-6.34a1.225,1.225,0,0,1,1.1-2.19c4.07,2.05,6.42,5.15,6.42,8.52a8.123,8.123,0,0,1-2.2,5.45L62.76,75.12a24.244,24.244,0,0,1,9.73-1.94c9.53-.02,17,4.74,17.02,10.84S82.07,94.91,72.54,94.94a27.021,27.021,0,0,1-5.43-.54L33.44,109.92a7.97,7.97,0,0,1,1.8,4.92,8.33,8.33,0,0,1-2.53,5.8l65.05,18.53c.22-2.94,2.26-5.7,5.68-7.64a1.225,1.225,0,0,1,1.21,2.13c-2.84,1.61-4.46,3.81-4.46,6.05.01,4.57,6.68,8.41,14.57,8.39s14.53-3.89,14.52-8.46c-.01-2.41-1.86-4.72-5.07-6.34a1.225,1.225,0,1,1,1.1-2.19c4.07,2.05,6.41,5.15,6.42,8.52.02,6.1-7.44,10.9-16.97,10.92-8.41.02-15.22-3.68-16.71-8.75L30.4,122.53a22.558,22.558,0,0,1-12.13,3.23c-9.53.02-17-4.74-17.02-10.84S8.69,104.03,18.22,104c5.49-.01,10.29,1.56,13.38,4.07L63.53,93.35c-4.83-1.88-8-5.28-8.01-9.25,0-2.95,1.74-5.59,4.61-7.54L33.4,63.51a21.955,21.955,0,0,1-12.81,3.7c-9.53.03-17.01-4.73-17.02-10.83-.01-3.15,2.07-6.13,5.69-8.19a1.225,1.225,0,0,1,1.21,2.13" fill="#270089"/>
          </g>
        </g>
      </g>
    </g>
    <path id="Path_12471" data-name="Path 12471" d="M125.31,131.11a1.225,1.225,0,1,0-1.1,2.19c3.21,1.62,5.06,3.93,5.07,6.34.01,4.57-6.64,8.44-14.52,8.46s-14.56-3.82-14.57-8.39c0-2.24,1.62-4.44,4.46-6.05a1.225,1.225,0,0,0-1.21-2.13c-3.42,1.94-5.46,4.7-5.68,7.64L32.71,120.64a8.33,8.33,0,0,0,2.53-5.8,7.97,7.97,0,0,0-1.8-4.92L67.11,94.4a27.021,27.021,0,0,0,5.43.54c9.53-.03,16.99-4.82,16.97-10.92S82.02,73.16,72.49,73.18a24.244,24.244,0,0,0-9.73,1.94L35.35,61.74a8.123,8.123,0,0,0,2.2-5.45c0-3.37-2.35-6.47-6.42-8.52a1.225,1.225,0,0,0-1.1,2.19c3.22,1.62,5.07,3.93,5.07,6.34.02,4.57-6.63,8.44-14.52,8.46S6.03,60.94,6.02,56.37c-.01-2.24,1.62-4.44,4.45-6.05a1.225,1.225,0,0,0-1.21-2.13c-3.62,2.06-5.7,5.04-5.69,8.19.01,6.1,7.49,10.86,17.02,10.83a21.955,21.955,0,0,0,12.81-3.7L60.13,76.56c-2.87,1.95-4.61,4.59-4.61,7.54.01,3.97,3.18,7.37,8.01,9.25L31.6,108.07c-3.09-2.51-7.89-4.08-13.38-4.07-9.53.03-16.99,4.82-16.97,10.92s7.49,10.86,17.02,10.84a22.558,22.558,0,0,0,12.13-3.23L98.05,141.8c1.49,5.07,8.3,8.77,16.71,8.75,9.53-.02,16.99-4.82,16.97-10.92C131.72,136.26,129.38,133.16,125.31,131.11Z" fill="none" stroke="#270089" stroke-miterlimit="10" stroke-width="2.5"/>
    <path id="Path_12472" data-name="Path 12472" d="M57.97,84.1c-.01-4.57,6.64-8.45,14.52-8.47s14.56,3.83,14.57,8.39-6.64,8.45-14.52,8.47S57.98,88.67,57.97,84.1Z" fill="none" stroke="#270089" stroke-miterlimit="10" stroke-width="2.5"/>
    <path id="Path_12473" data-name="Path 12473" d="M3.7,114.92c-.01-4.57,6.64-8.45,14.52-8.47s14.56,3.82,14.57,8.39-6.64,8.45-14.53,8.47S3.71,119.49,3.7,114.92Z" fill="none" stroke="#270089" stroke-miterlimit="10" stroke-width="2.5"/>
    <g id="Group_2248" data-name="Group 2248">
      <g id="Group_2247" data-name="Group 2247" clip-path="url(#clip-path-4)">
        <g id="Group_2246" data-name="Group 2246">
          <g id="Group_2245" data-name="Group 2245" clip-path="url(#clip-path-4)">
            <path id="Path_12474" data-name="Path 12474" d="M60.71,25.99l-23.99.06-.01-2.81L36.67,7.42l4.52-.01,19.47-.05-8.3,8.24a1.534,1.534,0,0,0,.01,2.2Z" fill="#fff"/>
            <path id="Path_12475" data-name="Path 12475" d="M21.65,3.75,40.28,3.7V4.96l-4.51.01a1.56,1.56,0,0,0-1.55,1.56l.04,15.81-12.56.03Z" fill="#fff"/>
            <path id="Path_12476" data-name="Path 12476" d="M19.2,2.85V2.53A1.221,1.221,0,0,1,20.42,1.3a.985.985,0,0,1,.17.02.772.772,0,0,1,.15-.02l20.43-.05a1.551,1.551,0,0,1,1.56,1.54V4.96l20.12-.05a1.535,1.535,0,0,1,1.44.95,1.573,1.573,0,0,1-.34,1.7l-9.22,9.13,9.26,9.09a1.553,1.553,0,0,1-1.08,2.66l-27.08.07a1.56,1.56,0,0,1-1.56-1.55V24.79l-12.56.03.07,28.42a1.225,1.225,0,0,1-2.45.01l-.08-29.97ZM36.67,7.42l.04,15.82.01,2.81,23.99-.06L52.37,17.8a1.534,1.534,0,0,1-.01-2.2l8.3-8.24-19.47.05ZM34.26,22.34,34.22,6.53a1.56,1.56,0,0,1,1.55-1.56l4.51-.01V3.7l-18.63.05.05,18.62Z" fill="#270089"/>
          </g>
        </g>
      </g>
    </g>
    <path id="Path_12477" data-name="Path 12477" d="M20.56,54.47a1.227,1.227,0,0,0,1.22-1.23l-.07-28.42,12.56-.03v2.17a1.56,1.56,0,0,0,1.56,1.55l27.08-.07a1.553,1.553,0,0,0,1.08-2.66l-9.26-9.09,9.22-9.13a1.573,1.573,0,0,0,.34-1.7,1.535,1.535,0,0,0-1.44-.95l-20.12.05V2.79a1.551,1.551,0,0,0-1.56-1.54L20.74,1.3a.772.772,0,0,0-.15.02.985.985,0,0,0-.17-.02A1.221,1.221,0,0,0,19.2,2.53v.32l.05,20.43.08,29.97A1.221,1.221,0,0,0,20.56,54.47Z" fill="none" stroke="#270089" stroke-miterlimit="10" stroke-width="2.5"/>
    <path id="Path_12478" data-name="Path 12478" d="M52.36,15.6a1.534,1.534,0,0,0,.01,2.2l8.34,8.19-23.99.06-.01-2.81L36.67,7.42l4.52-.01,19.47-.05Z" fill="none" stroke="#270089" stroke-miterlimit="10" stroke-width="2.5"/>
    <path id="Path_12479" data-name="Path 12479" d="M40.28,4.96l-4.51.01a1.56,1.56,0,0,0-1.55,1.56l.04,15.81-12.56.03L21.65,3.75,40.28,3.7Z" fill="none" stroke="#270089" stroke-miterlimit="10" stroke-width="2.5"/>
    <g id="Group_2252" data-name="Group 2252">
      <g id="Group_2251" data-name="Group 2251" clip-path="url(#clip-path-6)">
        <g id="Group_2250" data-name="Group 2250">
          <g id="Group_2249" data-name="Group 2249" clip-path="url(#clip-path-6)">
            <path id="Path_12480" data-name="Path 12480" d="M148.161,61.235c1.748,10.966-3.143,18.358-7.865,25.511-.976,1.472-1.982,2.985-2.938,4.537l-.7,1.152c-5.288,8.594-15.117,24.589-18.525,37.238a3.457,3.457,0,0,1-6.68-.013c-3.019-11.423-11.545-25.4-17.189-34.646-.964-1.568-1.848-3.026-2.631-4.334-.653-1.1-1.486-2.346-2.369-3.664-3.634-5.45-8.614-12.908-8.635-21.148a34.079,34.079,0,0,1,33.383-34.035l.47,0c16.81-.043,30.932,12.251,33.676,29.4M136.63,84.315c4.652-7.032,8.676-13.112,7.193-22.389-2.4-14.994-14.7-25.742-29.326-25.7h-.41A29.671,29.671,0,0,0,85.022,65.857c.018,6.91,4.385,13.459,7.9,18.72.914,1.368,1.777,2.665,2.49,3.854.774,1.3,1.647,2.735,2.6,4.293,5.3,8.686,13.085,21.437,16.794,32.787,4.138-12.65,13.121-27.254,18.11-35.376l.707-1.142c.986-1.613,2.012-3.175,3.008-4.678" fill="#270089"/>
            <path id="Path_12481" data-name="Path 12481" d="M143.823,61.926c1.484,9.276-2.541,15.357-7.193,22.389-1,1.5-2.022,3.065-3.008,4.677l-.707,1.142c-4.989,8.123-13.972,22.726-18.109,35.377-3.709-11.351-11.492-24.1-16.794-32.787-.954-1.558-1.828-3-2.6-4.294-.713-1.188-1.577-2.486-2.49-3.853-3.514-5.261-7.881-11.81-7.9-18.72a29.67,29.67,0,0,1,29.064-29.635h.41c14.63-.038,26.928,10.711,29.326,25.7" fill="#ef8933"/>
          </g>
        </g>
      </g>
    </g>
    <path id="Path_12482" data-name="Path 12482" d="M91.636,90.68c.783,1.308,1.667,2.766,2.631,4.333,5.644,9.246,14.17,23.224,17.189,34.646a3.457,3.457,0,0,0,6.68.013c3.408-12.648,13.237-28.644,18.525-37.237l.7-1.152c.956-1.553,1.962-3.065,2.938-4.538,4.722-7.152,9.613-14.544,7.865-25.51-2.744-17.153-16.866-29.447-33.676-29.4h-.47A34.081,34.081,0,0,0,80.632,65.868c.021,8.24,5,15.7,8.635,21.148C90.15,88.334,90.983,89.582,91.636,90.68Z" fill="none" stroke="#270089" stroke-miterlimit="10" stroke-width="1"/>
    <path id="Path_12483" data-name="Path 12483" d="M114.087,36.222h.41c14.63-.038,26.928,10.711,29.326,25.7,1.484,9.276-2.541,15.357-7.193,22.389-1,1.5-2.022,3.065-3.008,4.677l-.707,1.142c-4.989,8.123-13.972,22.726-18.109,35.377-3.709-11.351-11.492-24.1-16.794-32.787-.954-1.558-1.828-3-2.6-4.294-.713-1.188-1.577-2.486-2.49-3.853-3.514-5.261-7.881-11.81-7.9-18.72A29.67,29.67,0,0,1,114.087,36.222Z" fill="none" stroke="#270089" stroke-miterlimit="10" stroke-width="1"/>
    <g id="Group_2256" data-name="Group 2256">
      <g id="Group_2255" data-name="Group 2255" clip-path="url(#clip-path-8)">
        <g id="Group_2254" data-name="Group 2254">
          <g id="Group_2253" data-name="Group 2253" clip-path="url(#clip-path-8)">
            <path id="Path_12484" data-name="Path 12484" d="M132,60.108l-8.384,8.179a1.118,1.118,0,0,0-.334,1l1.977,11.543-10.362-5.457a1.139,1.139,0,0,0-1.053,0l-10.374,5.457,1.99-11.543a1.118,1.118,0,0,0-.334-1l-8.384-8.179,11.594-1.682a1.15,1.15,0,0,0,.848-.629l5.187-10.5,5.187,10.5a1.106,1.106,0,0,0,.848.629Z" fill="#fff"/>
          </g>
        </g>
      </g>
    </g>
    <path id="Path_12485" data-name="Path 12485" d="M123.612,68.287a1.118,1.118,0,0,0-.334,1l1.978,11.543-10.362-5.457a1.141,1.141,0,0,0-1.054,0l-10.375,5.457,1.991-11.543a1.117,1.117,0,0,0-.333-1l-8.385-8.179,11.6-1.682a1.15,1.15,0,0,0,.847-.629l5.187-10.5,5.188,10.5a1.106,1.106,0,0,0,.847.629l11.593,1.682Z" fill="none" stroke="#270089" stroke-linejoin="round" stroke-width="5"/>
  </g>
</svg>
