<svg id="Group_2211" data-name="Group 2211" xmlns="http://www.w3.org/2000/svg" xmlns:xlink="http://www.w3.org/1999/xlink" width="152.84" height="149.808" viewBox="0 0 152.84 149.808">
  <defs>
    <clipPath id="clip-path">
      <rect id="Rectangle_1098" data-name="Rectangle 1098" width="152.84" height="149.808" fill="none"/>
    </clipPath>
    <clipPath id="clip-path-2">
      <rect id="Rectangle_1095" data-name="Rectangle 1095" width="87.001" height="70.724" fill="none"/>
    </clipPath>
  </defs>
  <g id="Group_2210" data-name="Group 2210" clip-path="url(#clip-path)">
    <path id="Path_12363" data-name="Path 12363" d="M75.738,146.957H17.006A14.506,14.506,0,0,1,2.5,132.451V17.007A14.506,14.506,0,0,1,17.006,2.5H75.738A14.507,14.507,0,0,1,90.245,17.007V132.451a14.507,14.507,0,0,1-14.507,14.507" transform="translate(0.175 0.175)" fill="#fff"/>
    <path id="Rectangle_1093" data-name="Rectangle 1093" d="M13.557,0H74.189A13.556,13.556,0,0,1,87.745,13.556V130.9a13.556,13.556,0,0,1-13.556,13.556H13.557A13.557,13.557,0,0,1,0,130.9V13.557A13.557,13.557,0,0,1,13.557,0Z" transform="translate(2.676 2.675)" fill="none" stroke="#270089" stroke-miterlimit="10" stroke-width="5"/>
    <line id="Line_138" data-name="Line 138" x2="84.534" transform="translate(4.28 17.121)" fill="none" stroke="#270089" stroke-miterlimit="10" stroke-width="5"/>
    <line id="Line_139" data-name="Line 139" x2="84.534" transform="translate(4.815 132.687)" fill="none" stroke="#270089" stroke-miterlimit="10" stroke-width="5"/>
    <g id="Group_2205" data-name="Group 2205" transform="translate(47.562 49.754)">
      <g id="Group_2204" data-name="Group 2204" clip-path="url(#clip-path-2)">
        <g id="Group_2203" data-name="Group 2203">
          <g id="Group_2202" data-name="Group 2202" clip-path="url(#clip-path-2)">
            <path id="Path_12364" data-name="Path 12364" d="M124.868,46.5a2.553,2.553,0,1,1,0,5.105h-10.65a8.221,8.221,0,0,0-7.255,5.49l-2.078,7.354a2.169,2.169,0,0,1-.205.492l.1-.592a9.1,9.1,0,0,0-1.926-7.389,7.846,7.846,0,0,0-.9-.914l.1-.34A13.231,13.231,0,0,1,114.217,46.5Z" transform="translate(-40.42 -46.497)" fill="#270089"/>
            <path id="Path_12365" data-name="Path 12365" d="M102.987,56.334a9.1,9.1,0,0,1,1.926,7.39l-.1.591a2.548,2.548,0,0,1-2.258,1.361,2.646,2.646,0,0,1-.689-.1,2.548,2.548,0,0,1-1.836-2.8c.017-.116.045-.232.072-.349l1.98-7a7.93,7.93,0,0,1,.9.914" transform="translate(-40.556 -45.872)" fill="#270089"/>
            <path id="Path_12366" data-name="Path 12366" d="M105.051,63.834l-3.207,19.32c-.035.224-.08.448-.134.663a2.552,2.552,0,0,0-5.007-.78l-.063-.017a5.024,5.024,0,0,0,.162-.7l3.314-19.912a.73.73,0,0,0,.018-.134l.134.017a2.549,2.549,0,0,0,1.836,2.8,2.654,2.654,0,0,0,.69.1,2.545,2.545,0,0,0,2.257-1.361" transform="translate(-40.791 -45.392)" fill="#270089"/>
            <path id="Path_12367" data-name="Path 12367" d="M105.975,55.564l-1.98,7c-.027.117-.054.232-.072.349l-.134-.018a3.885,3.885,0,0,0-.807-3.116A3.944,3.944,0,0,0,99.9,58.474H52.26a2.829,2.829,0,0,0-2.418.941,2.836,2.836,0,0,0,.045,2.6l8.581,20.851a9.833,9.833,0,0,0,8.177,5.473H94.1a6.818,6.818,0,0,0,6.2-4.693l.063.017c-.018.072-.036.143-.055.225l-1.567,8.5a11.085,11.085,0,0,1-4.64,1.057H66.645a14.855,14.855,0,0,1-12.9-8.634L45.167,63.948A7.283,7.283,0,0,1,52.26,53.369H99.9a9.233,9.233,0,0,1,6.073,2.195" transform="translate(-44.448 -46.016)" fill="#270089"/>
            <path id="Path_12368" data-name="Path 12368" d="M99.724,79.982a2.541,2.541,0,0,1,2.087,2.6,12.085,12.085,0,0,1-6.628,7.945l1.568-8.5c.018-.08.035-.152.053-.224a2.554,2.554,0,0,1,2.92-1.818" transform="translate(-40.894 -44.154)" fill="#270089"/>
            <path id="Path_12369" data-name="Path 12369" d="M102.349,82.407c-.009.125-.027.25-.045.377L99.169,99.747a2.546,2.546,0,0,1-2.507,2.088H95.623a9,9,0,0,0-8.107-5.106h7.023l1.182-6.376a12.093,12.093,0,0,0,6.628-7.945" transform="translate(-41.431 -43.981)" fill="#270089"/>
            <path id="Path_12370" data-name="Path 12370" d="M102.649,59.449a3.885,3.885,0,0,1,.807,3.116.694.694,0,0,1-.018.134L100.124,82.61a4.92,4.92,0,0,1-.162.7A6.816,6.816,0,0,1,93.764,88H66.311a9.834,9.834,0,0,1-8.177-5.472L49.553,61.679a2.834,2.834,0,0,1-.045-2.6,2.826,2.826,0,0,1,2.418-.941H99.568a3.943,3.943,0,0,1,3.081,1.308m-8.536,4.674a2.55,2.55,0,0,0-5.052-.7L86.67,80.684a2.543,2.543,0,0,0,2.176,2.876,2.267,2.267,0,0,0,.35.027,2.546,2.546,0,0,0,2.525-2.2ZM78.144,83.587a2.552,2.552,0,0,0,2.5-2.606L80.3,63.73a2.553,2.553,0,1,0-5.105.1l.34,17.26a2.552,2.552,0,0,0,2.552,2.5Zm-11.062-.035A2.557,2.557,0,0,0,69.168,80.6L66.079,62.5a2.554,2.554,0,0,0-5.035.861l3.09,18.1a2.544,2.544,0,0,0,2.508,2.122,2.49,2.49,0,0,0,.439-.035" transform="translate(-44.114 -45.681)" fill="#ef8933"/>
            <path id="Path_12371" data-name="Path 12371" d="M96.21,100.562a8.991,8.991,0,1,1-16.212,0h8.108a3.883,3.883,0,1,0,3.885,3.888,3.9,3.9,0,0,0-3.885-3.888Z" transform="translate(-42.019 -42.709)" fill="#270089"/>
            <path id="Path_12372" data-name="Path 12372" d="M96.152,100.9H79.94a8.988,8.988,0,0,1,16.212,0" transform="translate(-41.961 -43.044)" fill="#270089"/>
            <path id="Path_12373" data-name="Path 12373" d="M89.486,61.047a2.546,2.546,0,0,1,2.176,2.875l-2.392,17.26a2.547,2.547,0,0,1-2.525,2.2,2.267,2.267,0,0,1-.35-.027,2.541,2.541,0,0,1-2.176-2.875l2.392-17.26a2.548,2.548,0,0,1,2.875-2.176" transform="translate(-41.663 -45.479)" fill="#270089"/>
            <path id="Path_12374" data-name="Path 12374" d="M87.771,100.562a3.883,3.883,0,1,1-3.888,3.888,3.9,3.9,0,0,1,3.888-3.888" transform="translate(-41.685 -42.709)" fill="#fff"/>
            <path id="Path_12375" data-name="Path 12375" d="M66.71,95.791H89A9,9,0,0,0,80.9,100.9H73.553a8.987,8.987,0,0,0-7.264-5.07,2.167,2.167,0,0,1,.421-.035" transform="translate(-42.918 -43.044)" fill="#270089"/>
            <path id="Path_12376" data-name="Path 12376" d="M78.942,80.779a2.552,2.552,0,0,1-2.5,2.607h-.055a2.552,2.552,0,0,1-2.552-2.5l-.34-17.26a2.553,2.553,0,1,1,5.105-.1Z" transform="translate(-42.413 -45.48)" fill="#270089"/>
            <path id="Path_12377" data-name="Path 12377" d="M74.2,100.9a8.861,8.861,0,0,1,.887,3.888A8.988,8.988,0,1,1,66.1,95.791c.278,0,.555.009.833.035a2.553,2.553,0,0,0,.421,5.07Zm-4.219,3.888a3.883,3.883,0,1,0-3.878,3.878,3.887,3.887,0,0,0,3.878-3.878" transform="translate(-43.561 -43.044)" fill="#270089"/>
            <path id="Path_12378" data-name="Path 12378" d="M73.692,100.894H66.849a2.552,2.552,0,0,1-.421-5.07,8.987,8.987,0,0,1,7.264,5.07" transform="translate(-43.057 -43.041)" fill="#270089"/>
            <path id="Path_12379" data-name="Path 12379" d="M65.765,100.562a3.883,3.883,0,1,1-3.888,3.888,3.887,3.887,0,0,1,3.888-3.888" transform="translate(-43.227 -42.709)" fill="#fff"/>
            <path id="Path_12380" data-name="Path 12380" d="M68.4,80.458a2.557,2.557,0,0,1-2.087,2.947,2.506,2.506,0,0,1-.439.035,2.543,2.543,0,0,1-2.508-2.122l-3.09-18.1a2.553,2.553,0,0,1,5.034-.86Z" transform="translate(-43.342 -45.535)" fill="#270089"/>
          </g>
        </g>
      </g>
    </g>
    <path id="Path_12381" data-name="Path 12381" d="M98.738,92.385a11.089,11.089,0,0,1-4.64,1.057H66.644a14.856,14.856,0,0,1-12.9-8.634L45.167,63.948A7.284,7.284,0,0,1,52.26,53.369H99.9a9.234,9.234,0,0,1,6.074,2.195,7.855,7.855,0,0,1,.905.914,9.1,9.1,0,0,1,1.924,7.389l-.1.592L105.5,83.778c-.036.224-.081.447-.135.662A12.09,12.09,0,0,1,98.738,92.385Z" transform="translate(3.114 3.739)" fill="none" stroke="#fff" stroke-miterlimit="10" stroke-width="5"/>
    <path id="Path_12382" data-name="Path 12382" d="M103.456,62.565a3.9,3.9,0,0,0-.806-3.117,3.946,3.946,0,0,0-3.083-1.308H51.926a2.829,2.829,0,0,0-2.418.941,2.837,2.837,0,0,0,.045,2.6L58.134,82.53A9.835,9.835,0,0,0,66.31,88H93.764a6.816,6.816,0,0,0,6.2-4.693,5.139,5.139,0,0,0,.161-.7L103.438,62.7A.729.729,0,0,0,103.456,62.565Z" transform="translate(3.448 4.073)" fill="none" stroke="#fff" stroke-miterlimit="10" stroke-width="5"/>
    <path id="Path_12383" data-name="Path 12383" d="M104.815,64.939a2.545,2.545,0,0,1-2.257,1.361,2.654,2.654,0,0,1-.69-.1,2.549,2.549,0,0,1-1.836-2.8c.018-.117.045-.232.072-.349l1.98-7,.1-.34A13.233,13.233,0,0,1,114.354,46.5H125a2.553,2.553,0,1,1,0,5.105H114.354a8.222,8.222,0,0,0-7.256,5.49l-2.077,7.354A2.221,2.221,0,0,1,104.815,64.939Z" transform="translate(7.006 3.257)" fill="none" stroke="#fff" stroke-miterlimit="10" stroke-width="5"/>
    <path id="Path_12384" data-name="Path 12384" d="M74.2,100.9a8.843,8.843,0,0,1,.887,3.888A8.988,8.988,0,1,1,66.1,95.791c.278,0,.555.009.834.035A8.987,8.987,0,0,1,74.2,100.9Z" transform="translate(4.001 6.711)" fill="none" stroke="#fff" stroke-miterlimit="10" stroke-width="5"/>
    <path id="Path_12385" data-name="Path 12385" d="M65.765,100.562a3.883,3.883,0,1,0,3.878,3.888A3.9,3.9,0,0,0,65.765,100.562Z" transform="translate(4.335 7.045)" fill="none" stroke="#fff" stroke-miterlimit="10" stroke-width="5"/>
    <path id="Path_12386" data-name="Path 12386" d="M96.21,100.9a8.988,8.988,0,1,1-8.1-5.105A8.979,8.979,0,0,1,96.21,100.9Z" transform="translate(5.542 6.711)" fill="none" stroke="#fff" stroke-miterlimit="10" stroke-width="5"/>
    <path id="Path_12387" data-name="Path 12387" d="M87.771,100.562a3.883,3.883,0,1,0,3.888,3.888A3.9,3.9,0,0,0,87.771,100.562Z" transform="translate(5.876 7.045)" fill="none" stroke="#fff" stroke-miterlimit="10" stroke-width="5"/>
    <path id="Path_12388" data-name="Path 12388" d="M103.976,82.58c-.009.125-.027.25-.045.377L100.8,99.92a2.546,2.546,0,0,1-2.507,2.088H66.849a2.552,2.552,0,0,1-.421-5.07,2.086,2.086,0,0,1,.421-.036H96.165l1.182-6.376,1.568-8.5c.017-.08.035-.152.053-.224a2.552,2.552,0,0,1,5.007.779Z" transform="translate(4.504 5.6)" fill="none" stroke="#fff" stroke-miterlimit="10" stroke-width="5"/>
    <path id="Path_12389" data-name="Path 12389" d="M65.871,83.44a2.545,2.545,0,0,1-2.508-2.123l-3.09-18.1a2.554,2.554,0,1,1,5.035-.859l3.089,18.1a2.556,2.556,0,0,1-2.087,2.947A2.49,2.49,0,0,1,65.871,83.44Z" transform="translate(4.22 4.22)" fill="none" stroke="#fff" stroke-miterlimit="10" stroke-width="5"/>
    <path id="Path_12390" data-name="Path 12390" d="M76.388,83.385a2.553,2.553,0,0,1-2.553-2.5l-.34-17.26a2.554,2.554,0,1,1,5.106-.1l.34,17.25a2.553,2.553,0,0,1-2.5,2.607Z" transform="translate(5.149 4.275)" fill="none" stroke="#fff" stroke-miterlimit="10" stroke-width="5"/>
    <path id="Path_12391" data-name="Path 12391" d="M86.746,83.385a2.243,2.243,0,0,1-.349-.027,2.541,2.541,0,0,1-2.176-2.875l2.391-17.26a2.55,2.55,0,1,1,5.052.7l-2.392,17.26A2.546,2.546,0,0,1,86.746,83.385Z" transform="translate(5.898 4.275)" fill="none" stroke="#fff" stroke-miterlimit="10" stroke-width="5"/>
    <line id="Line_140" data-name="Line 140" x2="28.214" transform="translate(121.951 91.735)" fill="none" stroke="#270089" stroke-linecap="round" stroke-miterlimit="10" stroke-width="5"/>
    <line id="Line_141" data-name="Line 141" x2="17.914" transform="translate(117.025 103.827)" fill="none" stroke="#270089" stroke-linecap="round" stroke-miterlimit="10" stroke-width="5"/>
    <line id="Line_142" data-name="Line 142" x2="17.914" transform="translate(122.399 79.644)" fill="none" stroke="#270089" stroke-linecap="round" stroke-miterlimit="10" stroke-width="5"/>
    <g id="Group_2209" data-name="Group 2209" transform="translate(47.562 49.754)">
      <g id="Group_2208" data-name="Group 2208" clip-path="url(#clip-path-2)">
        <g id="Group_2207" data-name="Group 2207">
          <g id="Group_2206" data-name="Group 2206" clip-path="url(#clip-path-2)">
            <path id="Path_12392" data-name="Path 12392" d="M124.868,46.5a2.553,2.553,0,1,1,0,5.105h-10.65a8.221,8.221,0,0,0-7.255,5.49l-2.078,7.354a2.169,2.169,0,0,1-.205.492l.1-.592a9.1,9.1,0,0,0-1.926-7.389,7.846,7.846,0,0,0-.9-.914l.1-.34A13.231,13.231,0,0,1,114.217,46.5Z" transform="translate(-40.42 -46.497)" fill="#270089"/>
            <path id="Path_12393" data-name="Path 12393" d="M102.987,56.334a9.1,9.1,0,0,1,1.926,7.39l-.1.591a2.548,2.548,0,0,1-2.258,1.361,2.646,2.646,0,0,1-.689-.1,2.548,2.548,0,0,1-1.836-2.8c.017-.116.045-.232.072-.349l1.98-7a7.93,7.93,0,0,1,.9.914" transform="translate(-40.556 -45.872)" fill="#270089"/>
            <path id="Path_12394" data-name="Path 12394" d="M105.051,63.834l-3.207,19.32c-.035.224-.08.448-.134.663a2.552,2.552,0,0,0-5.007-.78l-.063-.017a5.024,5.024,0,0,0,.162-.7l3.314-19.912a.73.73,0,0,0,.018-.134l.134.017a2.549,2.549,0,0,0,1.836,2.8,2.654,2.654,0,0,0,.69.1,2.545,2.545,0,0,0,2.257-1.361" transform="translate(-40.791 -45.392)" fill="#270089"/>
            <path id="Path_12395" data-name="Path 12395" d="M105.975,55.564l-1.98,7c-.027.117-.054.232-.072.349l-.134-.018a3.885,3.885,0,0,0-.807-3.116A3.944,3.944,0,0,0,99.9,58.474H52.26a2.829,2.829,0,0,0-2.418.941,2.836,2.836,0,0,0,.045,2.6l8.581,20.851a9.833,9.833,0,0,0,8.177,5.473H94.1a6.818,6.818,0,0,0,6.2-4.693l.063.017c-.018.072-.036.143-.055.225l-1.567,8.5a11.085,11.085,0,0,1-4.64,1.057H66.645a14.855,14.855,0,0,1-12.9-8.634L45.167,63.948A7.283,7.283,0,0,1,52.26,53.369H99.9a9.233,9.233,0,0,1,6.073,2.195" transform="translate(-44.448 -46.016)" fill="#270089"/>
            <path id="Path_12396" data-name="Path 12396" d="M99.724,79.982a2.541,2.541,0,0,1,2.087,2.6,12.085,12.085,0,0,1-6.628,7.945l1.568-8.5c.018-.08.035-.152.053-.224a2.554,2.554,0,0,1,2.92-1.818" transform="translate(-40.894 -44.154)" fill="#270089"/>
            <path id="Path_12397" data-name="Path 12397" d="M102.349,82.407c-.009.125-.027.25-.045.377L99.169,99.747a2.546,2.546,0,0,1-2.507,2.088H95.623a9,9,0,0,0-8.107-5.106h7.023l1.182-6.376a12.093,12.093,0,0,0,6.628-7.945" transform="translate(-41.431 -43.981)" fill="#270089"/>
            <path id="Path_12398" data-name="Path 12398" d="M102.649,59.449a3.885,3.885,0,0,1,.807,3.116.694.694,0,0,1-.018.134L100.124,82.61a4.92,4.92,0,0,1-.162.7A6.816,6.816,0,0,1,93.764,88H66.311a9.834,9.834,0,0,1-8.177-5.472L49.553,61.679a2.834,2.834,0,0,1-.045-2.6,2.826,2.826,0,0,1,2.418-.941H99.568a3.943,3.943,0,0,1,3.081,1.308m-8.536,4.674a2.55,2.55,0,0,0-5.052-.7L86.67,80.684a2.543,2.543,0,0,0,2.176,2.876,2.267,2.267,0,0,0,.35.027,2.546,2.546,0,0,0,2.525-2.2ZM78.144,83.587a2.552,2.552,0,0,0,2.5-2.606L80.3,63.73a2.553,2.553,0,1,0-5.105.1l.34,17.26a2.552,2.552,0,0,0,2.552,2.5Zm-11.062-.035A2.557,2.557,0,0,0,69.168,80.6L66.079,62.5a2.554,2.554,0,0,0-5.035.861l3.09,18.1a2.544,2.544,0,0,0,2.508,2.122,2.49,2.49,0,0,0,.439-.035" transform="translate(-44.114 -45.681)" fill="#ef8933"/>
            <path id="Path_12399" data-name="Path 12399" d="M96.21,100.562a8.991,8.991,0,1,1-16.212,0h8.108a3.883,3.883,0,1,0,3.885,3.888,3.9,3.9,0,0,0-3.885-3.888Z" transform="translate(-42.019 -42.709)" fill="#270089"/>
            <path id="Path_12400" data-name="Path 12400" d="M96.152,100.9H79.94a8.988,8.988,0,0,1,16.212,0" transform="translate(-41.961 -43.044)" fill="#270089"/>
            <path id="Path_12401" data-name="Path 12401" d="M89.486,61.047a2.546,2.546,0,0,1,2.176,2.875l-2.392,17.26a2.547,2.547,0,0,1-2.525,2.2,2.267,2.267,0,0,1-.35-.027,2.541,2.541,0,0,1-2.176-2.875l2.392-17.26a2.548,2.548,0,0,1,2.875-2.176" transform="translate(-41.663 -45.479)" fill="#270089"/>
            <path id="Path_12402" data-name="Path 12402" d="M87.771,100.562a3.883,3.883,0,1,1-3.888,3.888,3.9,3.9,0,0,1,3.888-3.888" transform="translate(-41.685 -42.709)" fill="#fff"/>
            <path id="Path_12403" data-name="Path 12403" d="M66.71,95.791H89A9,9,0,0,0,80.9,100.9H73.553a8.987,8.987,0,0,0-7.264-5.07,2.167,2.167,0,0,1,.421-.035" transform="translate(-42.918 -43.044)" fill="#270089"/>
            <path id="Path_12404" data-name="Path 12404" d="M78.942,80.779a2.552,2.552,0,0,1-2.5,2.607h-.055a2.552,2.552,0,0,1-2.552-2.5l-.34-17.26a2.553,2.553,0,1,1,5.105-.1Z" transform="translate(-42.413 -45.48)" fill="#270089"/>
            <path id="Path_12405" data-name="Path 12405" d="M74.2,100.9a8.861,8.861,0,0,1,.887,3.888A8.988,8.988,0,1,1,66.1,95.791c.278,0,.555.009.833.035a2.553,2.553,0,0,0,.421,5.07Zm-4.219,3.888a3.883,3.883,0,1,0-3.878,3.878,3.887,3.887,0,0,0,3.878-3.878" transform="translate(-43.561 -43.044)" fill="#270089"/>
            <path id="Path_12406" data-name="Path 12406" d="M73.692,100.894H66.849a2.552,2.552,0,0,1-.421-5.07,8.987,8.987,0,0,1,7.264,5.07" transform="translate(-43.057 -43.041)" fill="#270089"/>
            <path id="Path_12407" data-name="Path 12407" d="M65.765,100.562a3.883,3.883,0,1,1-3.888,3.888,3.887,3.887,0,0,1,3.888-3.888" transform="translate(-43.227 -42.709)" fill="#fff"/>
            <path id="Path_12408" data-name="Path 12408" d="M68.4,80.458a2.557,2.557,0,0,1-2.087,2.947,2.506,2.506,0,0,1-.439.035,2.543,2.543,0,0,1-2.508-2.122l-3.09-18.1a2.553,2.553,0,0,1,5.034-.86Z" transform="translate(-43.342 -45.535)" fill="#270089"/>
          </g>
        </g>
      </g>
    </g>
  </g>
</svg>
