<svg id="Group_2091" data-name="Group 2091" xmlns="http://www.w3.org/2000/svg" xmlns:xlink="http://www.w3.org/1999/xlink" width="171.408" height="145.348" viewBox="0 0 171.408 145.348">
  <defs>
    <clipPath id="clip-path">
      <rect id="Rectangle_1030" data-name="Rectangle 1030" width="171.408" height="145.348" fill="none"/>
    </clipPath>
    <clipPath id="clip-path-2">
      <rect id="Rectangle_1029" data-name="Rectangle 1029" width="170.915" height="111.039" transform="translate(0.248 34.06)" fill="none"/>
    </clipPath>
  </defs>
  <g id="Group_2090" data-name="Group 2090" clip-path="url(#clip-path)">
    <path id="Path_12144" data-name="Path 12144" d="M140.153,65.213c3.534-4.727,6.392-10.484,4.889-15.645-1.051-3.608-4.032-6.319-8.875-8.08,1.275-4.6,3.535-15.648-1.819-22.371-3.044-3.825-7.914-5.579-14.509-5.221-.849-5.285-4.694-12.7-15.264-13.354-10.542-.644-15.3,6.194-16.8,11.3C81.3,10.67,76.25,11.8,72.751,15.211c-6.162,6-5.319,17.257-4.636,21.976a22.641,22.641,0,0,0-2.19.628l-1.592-6.588-.442-1.772a12.2,12.2,0,0,0-16.154-8.419l-7.922,3.032c-.6-3.987-.615-12.188,8.359-15.616a2.12,2.12,0,1,0-1.512-3.961A16.469,16.469,0,0,0,36.147,15.446l-4.4-11.522a2.12,2.12,0,0,0-3.961,1.513l4.4,11.519A16.473,16.473,0,0,0,17.047,15.8a2.121,2.121,0,0,0,1.513,3.962c8.984-3.428,14.435,2.7,16.642,6.07l-7.947,3.041A12.092,12.092,0,0,0,20.9,45.889l9.644,18.019c.005.014,0,.029.007.043a2.1,2.1,0,0,0,.251.438l.441.824m65.543,0a13.019,13.019,0,0,1,.865-4.478,12.723,12.723,0,0,1,4.8-6.045,13.041,13.041,0,0,1,7.182-2.18,12.868,12.868,0,0,1,12.847,12.7ZM70.874,40.98a2.119,2.119,0,0,0,1.757-2.545c-.031-.143-3-14.276,3.084-20.193,2.759-2.68,7.2-3.3,13.179-1.829A2.128,2.128,0,0,0,91.5,14.628c.146-1.08,1.748-10.53,12.815-9.855,11.126.683,11.473,10.319,11.476,11.415a2.12,2.12,0,0,0,.709,1.582,2.143,2.143,0,0,0,1.655.523c6.136-.718,10.472.452,12.872,3.459,5.284,6.626.548,20.27.5,20.407a2.121,2.121,0,0,0,1.425,2.749c4.564,1.282,7.262,3.249,8.018,5.846,1.005,3.448-1.3,8.691-6.278,14.459h-7.969a16.976,16.976,0,0,0-23.1-15.8l.047-.742,15.1-9.934a2.119,2.119,0,1,0-2.33-3.541l-12.435,8.182,1.288-20.42a2.12,2.12,0,0,0-4.231-.261l-1.5,24.343c0,.012,0,.024,0,.036l-.016.26-.315,4.513a17.117,17.117,0,0,0-4.645,5.438l-9.773-3.93a2.119,2.119,0,1,0-1.581,3.933l9.872,3.97a17.006,17.006,0,0,0-.566,3.955h-20l-5.61-23.218a19.663,19.663,0,0,1,3.94-1.015M24.633,43.889a7.852,7.852,0,0,1,4.136-11.055L39,28.92c.008,0,.016,0,.024,0s.012-.009.02-.012l.1-.039h0L49.251,25a7.949,7.949,0,0,1,10.514,5.45L48.731,34.66a2.12,2.12,0,1,0,1.512,3.961L60.775,34.6l7.407,30.615H36.045l-.486-.907,3.289-1.257a2.119,2.119,0,1,0-1.512-3.96l-3.793,1.449Z" fill="#270089"/>
    <path id="Path_12145" data-name="Path 12145" d="M140.153,65.213c3.534-4.727,6.392-10.484,4.889-15.645-1.051-3.608-4.032-6.319-8.875-8.08,1.275-4.6,3.535-15.648-1.819-22.371-3.044-3.825-7.914-5.579-14.509-5.221-.849-5.285-4.694-12.7-15.264-13.354-10.542-.644-15.3,6.194-16.8,11.3C81.3,10.67,76.25,11.8,72.751,15.211c-6.162,6-5.319,17.257-4.636,21.976a22.641,22.641,0,0,0-2.19.628l-1.592-6.588-.442-1.772a12.2,12.2,0,0,0-16.154-8.419l-7.922,3.032c-.6-3.987-.615-12.188,8.359-15.616a2.12,2.12,0,1,0-1.512-3.961A16.469,16.469,0,0,0,36.147,15.446l-4.4-11.522a2.12,2.12,0,0,0-3.961,1.513l4.4,11.519A16.473,16.473,0,0,0,17.047,15.8a2.121,2.121,0,0,0,1.513,3.962c8.984-3.428,14.435,2.7,16.642,6.07l-7.947,3.041A12.092,12.092,0,0,0,20.9,45.889l9.644,18.019c.005.014,0,.029.007.043a2.1,2.1,0,0,0,.251.438l.441.824m65.543,0a13.019,13.019,0,0,1,.865-4.478,12.723,12.723,0,0,1,4.8-6.045,13.041,13.041,0,0,1,7.182-2.18,12.868,12.868,0,0,1,12.847,12.7ZM70.874,40.98a2.119,2.119,0,0,0,1.757-2.545c-.031-.143-3-14.276,3.084-20.193,2.759-2.68,7.2-3.3,13.179-1.829A2.128,2.128,0,0,0,91.5,14.628c.146-1.08,1.748-10.53,12.815-9.855,11.126.683,11.473,10.319,11.476,11.415a2.12,2.12,0,0,0,.709,1.582,2.143,2.143,0,0,0,1.655.523c6.136-.718,10.472.452,12.872,3.459,5.284,6.626.548,20.27.5,20.407a2.121,2.121,0,0,0,1.425,2.749c4.564,1.282,7.262,3.249,8.018,5.846,1.005,3.448-1.3,8.691-6.278,14.459h-7.969a16.976,16.976,0,0,0-23.1-15.8l.047-.742,15.1-9.934a2.119,2.119,0,1,0-2.33-3.541l-12.435,8.182,1.288-20.42a2.12,2.12,0,0,0-4.231-.261l-1.5,24.343c0,.012,0,.024,0,.036l-.016.26-.315,4.513a17.117,17.117,0,0,0-4.645,5.438l-9.773-3.93a2.119,2.119,0,1,0-1.581,3.933l9.872,3.97a17.006,17.006,0,0,0-.566,3.955h-20l-5.61-23.218A19.663,19.663,0,0,1,70.874,40.98ZM24.633,43.889a7.852,7.852,0,0,1,4.136-11.055L39,28.92c.008,0,.016,0,.024,0s.012-.009.02-.012l.1-.039h0L49.251,25a7.949,7.949,0,0,1,10.514,5.45L48.731,34.66a2.12,2.12,0,1,0,1.512,3.961L60.775,34.6l7.407,30.615H36.045l-.486-.907,3.289-1.257a2.119,2.119,0,1,0-1.512-3.96l-3.793,1.449Z" fill="none" stroke="#270089" stroke-miterlimit="10" stroke-width="1"/>
    <path id="Path_12146" data-name="Path 12146" d="M90.69,66.622h0" fill="#242833"/>
    <g id="Group_2089" data-name="Group 2089">
      <g id="Group_2088" data-name="Group 2088" clip-path="url(#clip-path-2)">
        <g id="Group_2087" data-name="Group 2087">
          <g id="Group_2086" data-name="Group 2086" clip-path="url(#clip-path-2)">
            <path id="Path_12147" data-name="Path 12147" d="M142.99,70.075a12.08,12.08,0,0,1,1.06,1.674,2.608,2.608,0,0,1-2.558.511l-6.463-2.188-4.882-1.648a2.622,2.622,0,0,1-1.31-3.971h1.944c5.161,0,9.495,2,12.209,5.622" fill="#270089"/>
            <path id="Path_12148" data-name="Path 12148" d="M142.99,70.075c-2.714-3.619-7.048-5.62-12.209-5.622h-1.944a2.668,2.668,0,0,1,.325-.39l28.516-27.7a7.945,7.945,0,1,1,11.073,11.4l-24.6,23.893a1.047,1.047,0,0,1-.1.093,11.986,11.986,0,0,0-1.06-1.674m22.164-29.893a2.7,2.7,0,0,0-3.822-.057L135.9,64.836l5.756,1.946L165.1,44a2.705,2.705,0,0,0,.057-3.822" fill="#270089"/>
            <path id="Path_12149" data-name="Path 12149" d="M165.917,42.107A2.677,2.677,0,0,1,165.1,44L141.652,66.782,135.9,64.836l25.437-24.712a2.7,2.7,0,0,1,4.584,1.983" fill="#ef8933"/>
            <path id="Path_12150" data-name="Path 12150" d="M110.926,139.853c7.71,0,16.055-6.226,18.261-13.619l10.7-44.21c.009-.037.019-.083.028-.121.978-3.329.579-6.417-1.122-8.687a8.486,8.486,0,0,0-3.868-2.828l.1-.316,6.463,2.187a2.609,2.609,0,0,0,2.558-.51,15.171,15.171,0,0,1,.917,11.57l-10.7,44.219a.89.89,0,0,1-.037.121c-2.822,9.616-13.278,17.443-23.3,17.439l-51.189-.018c-10.026,0-20.477-7.838-23.291-17.455a.8.8,0,0,1-.037-.121L25.736,83.277a15.036,15.036,0,0,1,1.157-11.988l.335.326a2.62,2.62,0,0,0,2.669.605l5.851-1.979.037.112a8.468,8.468,0,0,0-3.87,2.826c-1.7,2.268-2.1,5.356-1.128,8.686.009.037.018.084.027.121L41.485,126.2c2.2,7.394,10.542,13.628,18.252,13.631Z" fill="#270089"/>
            <path id="Path_12151" data-name="Path 12151" d="M118.073,77.711a7.874,7.874,0,0,1,6.162,9.3l-7.965,39.32a7.912,7.912,0,0,1-7.731,6.321,7.429,7.429,0,0,1-1.572-.159,7.875,7.875,0,0,1-6.163-9.3l7.966-39.319a7.912,7.912,0,0,1,7.731-6.322,8.069,8.069,0,0,1,1.572.159M119.1,85.97a2.657,2.657,0,0,0-2.073-3.126,2.58,2.58,0,0,0-.53-.056,2.667,2.667,0,0,0-2.6,2.129l-7.965,39.319a2.63,2.63,0,0,0,.39,1.991,2.6,2.6,0,0,0,1.683,1.135,2.572,2.572,0,0,0,.53.056,2.656,2.656,0,0,0,2.6-2.129Z" fill="#270089"/>
            <path id="Path_12152" data-name="Path 12152" d="M93.247,85.04l-.015,40.113a7.9,7.9,0,1,1-15.792-.006l.015-40.112a7.9,7.9,0,0,1,15.792,0m-5.26,40.111L88,85.039a2.651,2.651,0,1,0-5.3,0l-.014,40.112a2.651,2.651,0,1,0,5.3,0" fill="#270089"/>
            <path id="Path_12153" data-name="Path 12153" d="M54.205,82.767a2.579,2.579,0,0,0-.53.055,2.643,2.643,0,0,0-1.684,1.134,2.6,2.6,0,0,0-.391,1.99l7.938,39.325a2.678,2.678,0,0,0,3.124,2.075,2.6,2.6,0,0,0,1.684-1.134,2.633,2.633,0,0,0,.391-1.99L56.8,84.9a2.665,2.665,0,0,0-2.594-2.13m7.925,49.871a7.9,7.9,0,0,1-7.726-6.327L46.456,86.986a7.9,7.9,0,0,1,6.179-9.3,8.066,8.066,0,0,1,1.572-.157,7.91,7.91,0,0,1,7.726,6.327l7.938,39.324a7.874,7.874,0,0,1-6.169,9.3,7.487,7.487,0,0,1-1.572.158" fill="#270089"/>
            <path id="Path_12154" data-name="Path 12154" d="M42.558,64.422a2.62,2.62,0,0,1-1.322,3.971l-5.488,1.849L29.9,72.221a2.621,2.621,0,0,1-2.669-.606l-.334-.326a12.653,12.653,0,0,1,.828-1.255c2.717-3.617,7.052-5.615,12.213-5.613Z" fill="#270089"/>
            <path id="Path_12155" data-name="Path 12155" d="M130.779,69.689l-90.846-.032a11.97,11.97,0,0,0-4.148.7l-.037-.112,5.488-1.848a2.62,2.62,0,0,0,1.322-3.971l86.279.03a2.622,2.622,0,0,0,1.31,3.972l4.882,1.648-.1.316a11.993,11.993,0,0,0-4.148-.7" fill="#270089"/>
            <path id="Path_12156" data-name="Path 12156" d="M39.935,64.421c-5.162,0-9.5,2-12.213,5.613a12.841,12.841,0,0,0-.829,1.255L2.656,47.7a7.947,7.947,0,0,1,3-13.224,7.925,7.925,0,0,1,8.081,1.835l28.5,27.716a2.614,2.614,0,0,1,.326.39ZM10.08,40.071a2.708,2.708,0,0,0-2.753-.624,2.655,2.655,0,0,0-1.069.678,2.7,2.7,0,0,0-.764,1.925,2.67,2.67,0,0,0,.818,1.9L29.741,66.742,35.5,64.8Z" fill="#270089"/>
            <path id="Path_12157" data-name="Path 12157" d="M124.235,87.013a7.875,7.875,0,0,0-6.163-9.3,8.128,8.128,0,0,0-1.571-.158,7.91,7.91,0,0,0-7.731,6.321L100.8,123.192a7.875,7.875,0,0,0,6.163,9.3,7.428,7.428,0,0,0,1.572.158,7.911,7.911,0,0,0,7.731-6.321Zm-62.3-3.156a7.911,7.911,0,0,0-7.726-6.327,8.145,8.145,0,0,0-1.572.157,7.9,7.9,0,0,0-6.179,9.3L54.4,126.31a7.9,7.9,0,0,0,7.726,6.327,7.552,7.552,0,0,0,1.572-.157,7.874,7.874,0,0,0,6.169-9.3ZM139.917,81.9c-.009.037-.018.084-.027.121l-10.7,44.21c-2.207,7.393-10.552,13.622-18.262,13.619l-51.189-.018c-7.71,0-16.05-6.237-18.252-13.632L30.815,81.986c-.009-.038-.019-.084-.028-.121-.975-3.33-.574-6.418,1.128-8.686a8.479,8.479,0,0,1,3.87-2.826,11.952,11.952,0,0,1,4.149-.7l90.845.032a11.946,11.946,0,0,1,4.148.7,8.473,8.473,0,0,1,3.868,2.828c1.7,2.27,2.1,5.358,1.122,8.687M93.233,125.152l.014-40.112a7.9,7.9,0,0,0-15.792-.006l-.014,40.112a7.9,7.9,0,0,0,15.792.006" fill="#ef8933"/>
            <path id="Path_12158" data-name="Path 12158" d="M29.741,66.742,6.312,43.948a2.708,2.708,0,0,1,1.015-4.5,2.708,2.708,0,0,1,2.753.624L35.5,64.8Z" fill="#ef8933"/>
          </g>
        </g>
      </g>
    </g>
  </g>
</svg>
