<svg id="Group_2230" data-name="Group 2230" xmlns="http://www.w3.org/2000/svg" xmlns:xlink="http://www.w3.org/1999/xlink" width="150.374" height="159.699" viewBox="0 0 150.374 159.699">
  <defs>
    <clipPath id="clip-path">
      <rect id="Rectangle_1115" data-name="Rectangle 1115" width="150.374" height="159.699" fill="none"/>
    </clipPath>
    <clipPath id="clip-path-2">
      <rect id="Rectangle_1114" data-name="Rectangle 1114" width="70.537" height="70.532" transform="translate(75.833 3.997)" fill="none"/>
    </clipPath>
  </defs>
  <g id="Group_2229" data-name="Group 2229" clip-path="url(#clip-path)">
    <path id="Path_12421" data-name="Path 12421" d="M116.727,99.033a56.5,56.5,0,1,1-56.5-56.5,56.5,56.5,0,0,1,56.5,56.5" fill="#fff"/>
    <path id="Path_12422" data-name="Path 12422" d="M117.227,99.033a57,57,0,1,1-57-57,57,57,0,0,1,57,57" fill="#fff"/>
    <path id="Path_12423" data-name="Path 12423" d="M120.107,99.141a59.694,59.694,0,0,0-19.5-44.075,1.55,1.55,0,0,0-2.086,2.294,56.246,56.246,0,0,1,5.765,6.1A77.422,77.422,0,0,1,84.819,71.4,86.231,86.231,0,0,0,64.7,42.858a56.586,56.586,0,0,1,7.642,1.063,1.55,1.55,0,0,0,.644-3.033,59.965,59.965,0,0,0-12.423-1.3c-.02-.012-.966,0-.966,0a59.557,59.557,0,0,0,.925,119.106c.021.013.968,0,.968,0a59.65,59.65,0,0,0,58.613-59.553M82.942,75.06a67.366,67.366,0,0,1,4.467,22.531H62.1V77.559a99.057,99.057,0,0,0,20.838-2.5M62.1,120.723V100.691h25.3a67.347,67.347,0,0,1-4.468,22.531,99.056,99.056,0,0,0-20.837-2.5m-23.952,2.5a67.39,67.39,0,0,1-4.467-22.537H59v20.032a98.84,98.84,0,0,0-20.851,2.5M59,77.559V97.591H33.685a67.39,67.39,0,0,1,4.467-22.537A98.824,98.824,0,0,0,59,77.559m0-32.911V74.459a95.886,95.886,0,0,1-19.679-2.316A83.655,83.655,0,0,1,59,44.648M30.584,97.591H4.14A56.122,56.122,0,0,1,14.932,65.946,80.111,80.111,0,0,0,35.126,74.3a70.407,70.407,0,0,0-4.542,23.3m0,3.1a70.407,70.407,0,0,0,4.542,23.295,80.1,80.1,0,0,0-20.194,8.35A56.122,56.122,0,0,1,4.14,100.691ZM59,123.823v29.81a83.651,83.651,0,0,1-19.679-27.494A95.9,95.9,0,0,1,59,123.823m3.1,29.8v-29.8a96.125,96.125,0,0,1,19.665,2.31A83.6,83.6,0,0,1,62.1,153.621m28.406-52.93h26.457a56.122,56.122,0,0,1-10.792,31.645,80.217,80.217,0,0,0-20.207-8.357,70.386,70.386,0,0,0,4.542-23.288m26.455-3.1H90.51A70.392,70.392,0,0,0,85.968,74.3a80.139,80.139,0,0,0,20.223-8.366,56.579,56.579,0,0,1,10.774,31.655M81.77,72.148A96.127,96.127,0,0,1,62.1,74.459v-29.8A83.626,83.626,0,0,1,81.77,72.148M56.389,42.858A86.252,86.252,0,0,0,36.276,71.394a77.4,77.4,0,0,1-19.44-7.923A56.389,56.389,0,0,1,56.389,42.858M16.836,134.811a77.4,77.4,0,0,1,19.439-7.923,86.28,86.28,0,0,0,20.114,28.536,56.385,56.385,0,0,1-39.553-20.613M64.7,155.425a86.244,86.244,0,0,0,20.115-28.544,77.473,77.473,0,0,1,19.451,7.93A56.384,56.384,0,0,1,64.7,155.425" fill="#270089"/>
    <path id="Path_12424" data-name="Path 12424" d="M120.107,99.141a59.694,59.694,0,0,0-19.5-44.075,1.55,1.55,0,0,0-2.086,2.294,56.246,56.246,0,0,1,5.765,6.1A77.422,77.422,0,0,1,84.819,71.4,86.231,86.231,0,0,0,64.7,42.858a56.586,56.586,0,0,1,7.642,1.063,1.55,1.55,0,0,0,.644-3.033,59.965,59.965,0,0,0-12.423-1.3c-.02-.012-.966,0-.966,0a59.557,59.557,0,0,0,.925,119.106c.021.013.968,0,.968,0A59.65,59.65,0,0,0,120.107,99.141ZM82.942,75.06a67.366,67.366,0,0,1,4.467,22.531H62.1V77.559A99.057,99.057,0,0,0,82.942,75.06ZM62.1,120.723V100.691h25.3a67.347,67.347,0,0,1-4.468,22.531A99.056,99.056,0,0,0,62.1,120.723Zm-23.952,2.5a67.39,67.39,0,0,1-4.467-22.537H59v20.032A98.84,98.84,0,0,0,38.152,123.228ZM59,77.559V97.591H33.685a67.39,67.39,0,0,1,4.467-22.537A98.824,98.824,0,0,0,59,77.559Zm0-32.911V74.459a95.886,95.886,0,0,1-19.679-2.316A83.655,83.655,0,0,1,59,44.648ZM30.584,97.591H4.14A56.122,56.122,0,0,1,14.932,65.946,80.111,80.111,0,0,0,35.126,74.3,70.407,70.407,0,0,0,30.584,97.591Zm0,3.1a70.407,70.407,0,0,0,4.542,23.295,80.1,80.1,0,0,0-20.194,8.35A56.122,56.122,0,0,1,4.14,100.691ZM59,123.823v29.81a83.651,83.651,0,0,1-19.679-27.494A95.9,95.9,0,0,1,59,123.823Zm3.1,29.8v-29.8a96.125,96.125,0,0,1,19.665,2.31A83.6,83.6,0,0,1,62.1,153.621Zm28.406-52.93h26.457a56.122,56.122,0,0,1-10.792,31.645,80.217,80.217,0,0,0-20.207-8.357A70.386,70.386,0,0,0,90.51,100.691Zm26.455-3.1H90.51A70.392,70.392,0,0,0,85.968,74.3a80.139,80.139,0,0,0,20.223-8.366A56.579,56.579,0,0,1,116.965,97.591ZM81.77,72.148A96.127,96.127,0,0,1,62.1,74.459v-29.8A83.626,83.626,0,0,1,81.77,72.148ZM56.389,42.858A86.252,86.252,0,0,0,36.276,71.394a77.4,77.4,0,0,1-19.44-7.923A56.389,56.389,0,0,1,56.389,42.858ZM16.836,134.811a77.4,77.4,0,0,1,19.439-7.923,86.28,86.28,0,0,0,20.114,28.536A56.385,56.385,0,0,1,16.836,134.811ZM64.7,155.425a86.244,86.244,0,0,0,20.115-28.544,77.473,77.473,0,0,1,19.451,7.93A56.384,56.384,0,0,1,64.7,155.425Z" fill="none" stroke="#270089" stroke-miterlimit="10" stroke-width="2"/>
    <path id="Path_12425" data-name="Path 12425" d="M79.614,76.533a3.474,3.474,0,0,1-2.7-1.258l-2.13-2.48a3.558,3.558,0,0,1-.7-3.315l3.633-12.414L75.6,54.936a5.985,5.985,0,0,1,4.238-10.217,5.978,5.978,0,0,1,1.447.176l.136-.461-2.09-2.09a5.984,5.984,0,0,1,5.647-10.049l1.645-5.6-5.661-5.661A32.188,32.188,0,0,1,75.744,13.2c-2.049-4.364-2.115-7.555-.2-9.486a5.005,5.005,0,0,1,3.687-1.376c4.561,0,11.2,4.346,13.63,6.78l5.661,5.66,5.6-1.643A6,6,0,0,1,114.19,7.482l2.092,2.093.445-.131a6.029,6.029,0,0,1,1.565-5.679,6.005,6.005,0,0,1,8.493-.01L128.9,5.871,141.341,2.23a3.645,3.645,0,0,1,.979-.135,3.557,3.557,0,0,1,2.294.833L147.142,5.1a3.533,3.533,0,0,1-.447,5.685L122.861,25.19l-8.494,5.438,11.166,11.156a25.474,25.474,0,0,1,2.7,3.2l1.243,1.756,10.8-3.443a3.45,3.45,0,0,1,1.062-.165,3.555,3.555,0,0,1,2.483,1.014l1.15,1.15a3.532,3.532,0,0,1-.466,5.385l-8.151,5.752,2.787,3.92a3.533,3.533,0,0,1-.388,4.536l-2.023,2.024a3.439,3.439,0,0,1-2.493,1.039,3.546,3.546,0,0,1-2.048-.656l-3.925-2.783L122.5,72.67a3.5,3.5,0,0,1-2.454,1.464,2.538,2.538,0,0,1-.431.032,3.553,3.553,0,0,1-2.492-1.038L116,72a3.489,3.489,0,0,1-.851-3.591l3.424-10.77-1.737-1.228a25.436,25.436,0,0,1-3.2-2.709L102.46,42.53l-5.49,8.556L82.638,74.831a3.559,3.559,0,0,1-2.751,1.7l-.075.006Z" fill="#ef8933"/>
    <path id="Path_12426" data-name="Path 12426" d="M122.544,4a3.985,3.985,0,0,1,2.827,1.168l2.955,2.956L141.9,4.15a1.593,1.593,0,0,1,.417-.056,1.558,1.558,0,0,1,1,.363l2.514,2.158a1.484,1.484,0,0,1,.528,1.288,1.531,1.531,0,0,1-.724,1.177l-23.816,14.4-10.633,6.807L124.12,43.2a23.375,23.375,0,0,1,2.489,2.944l2.085,2.943L140.885,45.2a1.479,1.479,0,0,1,.454-.071,1.568,1.568,0,0,1,1.091.451l1.128,1.128a1.532,1.532,0,0,1-.2,2.33l-9.8,6.917,3.949,5.556a1.526,1.526,0,0,1-.172,1.962l-2.023,2.023a1.483,1.483,0,0,1-1.079.454,1.539,1.539,0,0,1-.883-.282l-5.568-3.949-6.917,9.8a1.5,1.5,0,0,1-1.116.638.471.471,0,0,1-.135.012,1.536,1.536,0,0,1-1.079-.454l-1.128-1.128a1.5,1.5,0,0,1-.368-1.545l3.875-12.191-2.931-2.072a23.387,23.387,0,0,1-2.943-2.49L102.118,39.36,95.287,50.005,80.926,73.8a1.546,1.546,0,0,1-1.189.736h-.123A1.486,1.486,0,0,1,78.461,74L76.3,71.491A1.544,1.544,0,0,1,76,70.069L79.97,56.493l-2.956-2.968a3.987,3.987,0,0,1,5.507-5.764l1.153-3.9L80.742,40.93a3.985,3.985,0,0,1,2.808-6.806,4.015,4.015,0,0,1,2.674,1.017l2.649-9.026-6.5-6.5-.025-.025a30.492,30.492,0,0,1-4.795-7.248c-1.141-2.428-2.159-5.641-.589-7.223a3.09,3.09,0,0,1,2.268-.786c3.754,0,9.847,3.826,12.216,6.194l6.5,6.5,9.026-2.649a3.992,3.992,0,0,1,5.8-5.482l2.931,2.931,3.888-1.14A3.943,3.943,0,0,1,118.552,8a3.983,3.983,0,0,1,3.992-4m0-4a7.943,7.943,0,0,0-5.655,2.34,8.108,8.108,0,0,0-1.934,3.145,8,8,0,0,0-13,6.2l-2.858.839L94.277,7.7C91.709,5.131,84.66.334,79.233.333a6.96,6.96,0,0,0-5.1,1.958c-2.582,2.6-2.646,6.551-.2,11.752a34.348,34.348,0,0,0,5.517,8.3l.034.036.034.035,4.849,4.848-.839,2.859a7.983,7.983,0,0,0-6.2,12.989,7.84,7.84,0,0,0-3.167,1.965,7.967,7.967,0,0,0,.046,11.3l1.258,1.263-3.305,11.29a5.572,5.572,0,0,0,1.084,5.142l2.161,2.518a5.468,5.468,0,0,0,4.207,1.944h.273l.149-.012A5.553,5.553,0,0,0,84.329,75.9l14.355-23.78L102.8,45.7l9.414,9.413a27.474,27.474,0,0,0,3.447,2.917l.558.394-2.983,9.382a5.481,5.481,0,0,0,1.345,5.605l1.128,1.129a5.571,5.571,0,0,0,3.908,1.625,4.572,4.572,0,0,0,.734-.055,5.488,5.488,0,0,0,3.793-2.3l4.6-6.511,2.3,1.63a5.516,5.516,0,0,0,7.123-.625l2.005-2a5.524,5.524,0,0,0,.62-7.084l-1.641-2.309,6.521-4.6a5.532,5.532,0,0,0,.718-8.426l-1.129-1.129-.021-.021-.021-.021a5.543,5.543,0,0,0-3.877-1.58,5.486,5.486,0,0,0-1.667.259l-9.4,3-.393-.555a27.5,27.5,0,0,0-2.926-3.46l-9.407-9.4,6.4-4.1L147.712,12.5a5.559,5.559,0,0,0,2.639-4.248A5.487,5.487,0,0,0,148.41,3.55l-2.479-2.128A5.577,5.577,0,0,0,140.842.293L140.81.3l-.031.009-11.3,3.308L128.2,2.34A7.943,7.943,0,0,0,122.544,0" fill="#fff"/>
    <g id="Group_2228" data-name="Group 2228">
      <g id="Group_2227" data-name="Group 2227" clip-path="url(#clip-path-2)">
        <g id="Group_2226" data-name="Group 2226">
          <g id="Group_2225" data-name="Group 2225" clip-path="url(#clip-path-2)">
            <path id="Path_12427" data-name="Path 12427" d="M145.847,6.612a1.5,1.5,0,0,1,.515,1.287,1.531,1.531,0,0,1-.723,1.178l-23.817,14.4L111.2,30.281l12.913,12.914a22.488,22.488,0,0,1,2.49,2.943l2.085,2.943,12.19-3.887a1.535,1.535,0,0,1,1.545.38l1.129,1.128a1.533,1.533,0,0,1-.2,2.33l-9.8,6.917,3.949,5.556a1.527,1.527,0,0,1-.172,1.962l-2.024,2.024a1.533,1.533,0,0,1-1.079.453,1.572,1.572,0,0,1-.883-.282l-5.568-3.949-6.917,9.8a1.5,1.5,0,0,1-1.116.638.418.418,0,0,1-.122.012,1.489,1.489,0,0,1-1.079-.454l-1.141-1.128a1.5,1.5,0,0,1-.368-1.545l3.876-12.19-2.932-2.073a23.459,23.459,0,0,1-2.943-2.49L102.114,39.356,95.283,50,80.922,73.793a1.548,1.548,0,0,1-1.19.736H79.61A1.486,1.486,0,0,1,78.457,74L76.3,71.488a1.563,1.563,0,0,1-.306-1.435l3.973-13.564L77.01,53.521a3.986,3.986,0,0,1,5.506-5.764l1.153-3.9-2.931-2.931a4,4,0,0,1,0-5.641,3.981,3.981,0,0,1,5.482-.148L88.869,26.1l-6.5-6.5-.024-.012a30.494,30.494,0,0,1-4.8-7.248c-1.14-2.428-2.158-5.642-.588-7.224,2.771-2.771,11.528,2.453,14.483,5.409l6.5,6.5,9.026-2.649a3.992,3.992,0,0,1,5.8-5.482l2.931,2.931,3.888-1.141A3.947,3.947,0,0,1,118.548,8a3.992,3.992,0,0,1,6.818-2.833l2.956,2.956L141.9,4.147a1.572,1.572,0,0,1,1.423.306Zm-24.871,15.5L144.719,7.764,142.3,5.692,126.262,10.4l-5.384,1.57-3.888,1.14-8.732,2.564-9.026,2.636,10.8,10.8Zm11.651,32.524,9.737-6.868-1.042-1.03-11.663,3.7Zm3.532,7.739L125.293,47.07a20.3,20.3,0,0,0-2.306-2.747L90.316,11.652C86.968,8.3,79.6,4.747,78.089,6.256c-.54.527-.576,2.232.92,5.408A28.566,28.566,0,0,0,83.5,18.483l5.875,5.874,4.206,4.195,22.59,22.59A21.212,21.212,0,0,0,118.9,53.46l15.318,10.866ZM125.464,8.966l1.116-.331-2.342-2.342a2.388,2.388,0,0,0-3.385.012,2.356,2.356,0,0,0,0,3.373l.479.49Zm-5.849,61.553,6.867-9.725-4.194-2.981-3.716,11.663Zm-5.666-58.18-2.306-2.318a2.421,2.421,0,0,0-3.385,0,2.382,2.382,0,0,0-.7,1.7,2.326,2.326,0,0,0,.7,1.68l.454.466ZM93.922,49.155l7.039-10.964L90.157,27.4l-2.895,9.848-2.305,7.9-1.141,3.887-1.4,4.771L77.537,70.47l2.06,2.416ZM85.705,36.879l-.454-.466a2.4,2.4,0,0,0-3.385,0,2.4,2.4,0,0,0,0,3.385L84.172,42.1ZM80.971,53.055,82.013,49.5l-.49-.49a2.394,2.394,0,0,0-3.385,3.385l2.342,2.342Z" fill="#270089"/>
            <path id="Path_12428" data-name="Path 12428" d="M144.719,7.765,120.976,22.114l-10.939,7-10.805-10.8,9.026-2.637,8.732-2.563,3.888-1.14,5.384-1.57L142.3,5.692Z" fill="#ef8933"/>
            <path id="Path_12429" data-name="Path 12429" d="M142.364,47.77l-9.738,6.868-2.967-4.194,11.663-3.7Z" fill="#ef8933"/>
            <path id="Path_12430" data-name="Path 12430" d="M125.293,47.071l10.866,15.305-1.938,1.95L118.9,53.46a20.992,20.992,0,0,1-2.735-2.317l-22.59-22.59-4.207-4.195L83.5,18.484a28.6,28.6,0,0,1-4.489-6.819c-1.5-3.176-1.459-4.881-.92-5.408,1.509-1.509,8.879,2.048,12.227,5.4l32.671,32.671a20.237,20.237,0,0,1,2.306,2.747" fill="#ef8933"/>
            <path id="Path_12431" data-name="Path 12431" d="M126.581,8.635l-1.116.331-4.133,1.2-.478-.491a2.353,2.353,0,0,1,0-3.373,2.387,2.387,0,0,1,3.385-.011Z" fill="#ef8933"/>
            <path id="Path_12432" data-name="Path 12432" d="M126.483,60.794l-6.868,9.725-1.042-1.042,3.716-11.663Z" fill="#ef8933"/>
            <path id="Path_12433" data-name="Path 12433" d="M111.643,10.021l2.306,2.318-5.237,1.533-.454-.466a2.326,2.326,0,0,1-.7-1.68,2.382,2.382,0,0,1,.7-1.7,2.421,2.421,0,0,1,3.385,0" fill="#ef8933"/>
            <path id="Path_12434" data-name="Path 12434" d="M100.962,38.192,93.923,49.156,79.6,72.887l-2.06-2.416L82.419,53.8l1.4-4.771,1.141-3.887,2.305-7.9L90.157,27.4Z" fill="#ef8933"/>
            <path id="Path_12435" data-name="Path 12435" d="M85.251,36.413l.454.466L84.172,42.1,81.866,39.8a2.394,2.394,0,0,1,3.385-3.385" fill="#ef8933"/>
            <path id="Path_12436" data-name="Path 12436" d="M82.014,49.5l-1.042,3.557-.491,1.68-2.342-2.343a2.393,2.393,0,0,1,3.384-3.385Z" fill="#ef8933"/>
          </g>
        </g>
      </g>
    </g>
    <path id="Path_12437" data-name="Path 12437" d="M75.992,70.053a1.56,1.56,0,0,0,.307,1.435L78.457,74a1.486,1.486,0,0,0,1.153.527h.122a1.543,1.543,0,0,0,1.19-.736L95.283,50l6.831-10.646L115.04,52.283a23.472,23.472,0,0,0,2.944,2.489l2.931,2.073-3.876,12.19a1.5,1.5,0,0,0,.368,1.545l1.141,1.129a1.492,1.492,0,0,0,1.079.453.428.428,0,0,0,.123-.012,1.506,1.506,0,0,0,1.116-.638l6.916-9.8,5.568,3.949a1.58,1.58,0,0,0,.883.282,1.538,1.538,0,0,0,1.08-.454l2.023-2.024a1.527,1.527,0,0,0,.172-1.962l-3.949-5.556,9.8-6.916a1.533,1.533,0,0,0,.2-2.33l-1.128-1.129a1.539,1.539,0,0,0-1.546-.38l-12.19,3.888-2.085-2.944a22.479,22.479,0,0,0-2.489-2.943L111.2,30.281l10.62-6.806,23.817-14.4a1.529,1.529,0,0,0,.723-1.177,1.507,1.507,0,0,0-.515-1.288l-2.526-2.159a1.572,1.572,0,0,0-1.423-.306L128.322,8.12l-2.956-2.955A3.992,3.992,0,0,0,118.548,8a3.945,3.945,0,0,0,1.042,2.685L115.7,11.824l-2.932-2.931a3.992,3.992,0,0,0-5.8,5.482l-9.027,2.649-6.5-6.5c-2.956-2.956-11.713-8.18-14.484-5.408-1.57,1.582-.552,4.8.589,7.223a30.461,30.461,0,0,0,4.795,7.248l.024.012,6.5,6.5L86.22,35.138a3.98,3.98,0,0,0-5.482.147,4,4,0,0,0,0,5.641l2.931,2.931-1.153,3.9a3.986,3.986,0,0,0-5.506,5.764l2.956,2.968Z" fill="none" stroke="#270089" stroke-linejoin="round" stroke-width="3"/>
    <path id="Path_12438" data-name="Path 12438" d="M113.949,12.339l-5.237,1.533-.453-.466a2.325,2.325,0,0,1-.7-1.68,2.382,2.382,0,0,1,.7-1.7,2.42,2.42,0,0,1,3.384,0Z" fill="none" stroke="#270089" stroke-linejoin="round" stroke-width="3"/>
    <path id="Path_12439" data-name="Path 12439" d="M125.465,8.967l-4.133,1.2-.478-.491a2.352,2.352,0,0,1,0-3.372,2.387,2.387,0,0,1,3.385-.013l2.342,2.343Z" fill="none" stroke="#270089" stroke-linejoin="round" stroke-width="3"/>
    <path id="Path_12440" data-name="Path 12440" d="M120.976,22.114l-10.939,7L99.232,18.312l9.026-2.637,8.732-2.563,3.888-1.14,5.384-1.57L142.3,5.693l2.416,2.072Z" fill="none" stroke="#270089" stroke-linejoin="round" stroke-width="3"/>
    <path id="Path_12441" data-name="Path 12441" d="M82.014,49.5l-1.042,3.557-.491,1.68-2.342-2.343a2.393,2.393,0,0,1,3.384-3.385Z" fill="none" stroke="#270089" stroke-linejoin="round" stroke-width="3"/>
    <path id="Path_12442" data-name="Path 12442" d="M85.705,36.879,84.172,42.1,81.866,39.8a2.394,2.394,0,0,1,3.385-3.385Z" fill="none" stroke="#270089" stroke-linejoin="round" stroke-width="3"/>
    <path id="Path_12443" data-name="Path 12443" d="M132.627,54.638l-2.968-4.194,11.663-3.7,1.043,1.03Z" fill="none" stroke="#270089" stroke-linejoin="round" stroke-width="3"/>
    <path id="Path_12444" data-name="Path 12444" d="M122.288,57.814l4.194,2.98-6.868,9.725-1.042-1.042Z" fill="none" stroke="#270089" stroke-linejoin="round" stroke-width="3"/>
    <path id="Path_12445" data-name="Path 12445" d="M93.579,28.552l-4.207-4.194L83.5,18.483a28.611,28.611,0,0,1-4.489-6.818c-1.5-3.177-1.459-4.881-.919-5.409,1.508-1.508,8.879,2.048,12.227,5.4l32.671,32.671a20.351,20.351,0,0,1,2.305,2.747l10.866,15.306-1.937,1.95L118.9,53.46a21.066,21.066,0,0,1-2.735-2.318Z" fill="none" stroke="#270089" stroke-linejoin="round" stroke-width="3"/>
    <path id="Path_12446" data-name="Path 12446" d="M77.537,70.47,82.418,53.8l1.4-4.77,1.141-3.888,2.305-7.9,2.9-9.848,10.8,10.792L93.922,49.155,79.6,72.886Z" fill="none" stroke="#270089" stroke-linejoin="round" stroke-width="3"/>
  </g>
</svg>
