<svg id="Group_2387" data-name="Group 2387" xmlns="http://www.w3.org/2000/svg" xmlns:xlink="http://www.w3.org/1999/xlink" width="150.734" height="125.332" viewBox="0 0 150.734 125.332">
  <defs>
    <clipPath id="clip-path">
      <rect id="Rectangle_1188" data-name="Rectangle 1188" width="150.734" height="125.332" fill="none"/>
    </clipPath>
    <clipPath id="clip-path-2">
      <rect id="Rectangle_1183" data-name="Rectangle 1183" width="81.9" height="118.41" transform="translate(0.5 0.5)" fill="none"/>
    </clipPath>
    <clipPath id="clip-path-4">
      <rect id="Rectangle_1185" data-name="Rectangle 1185" width="86.939" height="86.932" transform="translate(62.795 37.4)" fill="none"/>
    </clipPath>
    <clipPath id="clip-path-6">
      <rect id="Rectangle_1187" data-name="Rectangle 1187" width="48.408" height="48.408" transform="translate(82.06 56.667)" fill="none"/>
    </clipPath>
  </defs>
  <g id="Group_2386" data-name="Group 2386" clip-path="url(#clip-path)">
    <g id="Group_2377" data-name="Group 2377">
      <g id="Group_2376" data-name="Group 2376" clip-path="url(#clip-path-2)">
        <g id="Group_2375" data-name="Group 2375">
          <g id="Group_2374" data-name="Group 2374" clip-path="url(#clip-path-2)">
            <path id="Path_12629" data-name="Path 12629" d="M82.4,14.84V104.4c0,.03-.01.06-.01.09s.01.06.01.09c0,4.76-5.14,8.66-14.86,11.29a103.864,103.864,0,0,1-26.09,3.04,103.864,103.864,0,0,1-26.09-3.04C5.64,113.24.5,109.34.5,104.58a2.734,2.734,0,0,1,.05-.5,2.937,2.937,0,0,1-.05-.51V14.84C.5,5.43,21.1.5,41.45.5S82.4,5.43,82.4,14.84m-4.99,89.65c0-.03-.01-.06-.01-.09V93.86a36.516,36.516,0,0,1-9.86,4.01,103.864,103.864,0,0,1-26.09,3.04,103.864,103.864,0,0,1-26.09-3.04A36.516,36.516,0,0,1,5.5,93.86v9.71a2.937,2.937,0,0,1-.05.51,2.734,2.734,0,0,1,.05.5c0,1.19,2.33,4.07,11.17,6.46a98.68,98.68,0,0,0,24.78,2.87,98.566,98.566,0,0,0,24.78-2.87c8.84-2.39,11.17-5.27,11.17-6.46,0-.03.01-.06.01-.09M77.4,86.58V75.86a36.516,36.516,0,0,1-9.86,4.01,103.864,103.864,0,0,1-26.09,3.04,103.864,103.864,0,0,1-26.09-3.04A36.516,36.516,0,0,1,5.5,75.86V86.58c0,1.19,2.33,4.07,11.17,6.46a98.68,98.68,0,0,0,24.78,2.87,98.566,98.566,0,0,0,24.78-2.87c8.84-2.39,11.17-5.27,11.17-6.46m0-18V57.86a36.516,36.516,0,0,1-9.86,4.01,103.864,103.864,0,0,1-26.09,3.04,103.864,103.864,0,0,1-26.09-3.04A36.516,36.516,0,0,1,5.5,57.86V68.58c0,1.19,2.33,4.07,11.17,6.46a98.68,98.68,0,0,0,24.78,2.87,98.566,98.566,0,0,0,24.78-2.87c8.84-2.39,11.17-5.27,11.17-6.46m0-18V39.86a36.516,36.516,0,0,1-9.86,4.01,103.864,103.864,0,0,1-26.09,3.04,103.864,103.864,0,0,1-26.09-3.04A36.516,36.516,0,0,1,5.5,39.86V50.58c0,1.19,2.33,4.07,11.17,6.46a98.68,98.68,0,0,0,24.78,2.87,98.566,98.566,0,0,0,24.78-2.87c8.84-2.39,11.17-5.27,11.17-6.46m0-18V22.07c-7.33,4.68-21.7,7.1-35.95,7.1S12.84,26.75,5.5,22.07V32.58c0,1.19,2.33,4.07,11.17,6.46a98.68,98.68,0,0,0,24.78,2.87,98.566,98.566,0,0,0,24.78-2.87c8.84-2.39,11.17-5.27,11.17-6.46m0-17.74c0-3.26-12.34-9.34-35.95-9.34S5.5,11.58,5.5,14.84s12.35,9.33,35.95,9.33S77.4,18.09,77.4,14.84" fill="#270089"/>
            <path id="Path_12630" data-name="Path 12630" d="M77.4,104.4c0,.03.01.06.01.09s-.01.06-.01.09c0,1.19-2.33,4.07-11.17,6.46a98.566,98.566,0,0,1-24.78,2.87,98.68,98.68,0,0,1-24.78-2.87c-8.84-2.39-11.17-5.27-11.17-6.46a2.734,2.734,0,0,0-.05-.5,2.937,2.937,0,0,0,.05-.51V93.86a36.516,36.516,0,0,0,9.86,4.01,103.864,103.864,0,0,0,26.09,3.04,103.864,103.864,0,0,0,26.09-3.04,36.516,36.516,0,0,0,9.86-4.01Z" fill="#fff"/>
            <path id="Path_12631" data-name="Path 12631" d="M77.4,75.86V86.58c0,1.19-2.33,4.07-11.17,6.46a98.566,98.566,0,0,1-24.78,2.87,98.68,98.68,0,0,1-24.78-2.87C7.83,90.65,5.5,87.77,5.5,86.58V75.86a36.516,36.516,0,0,0,9.86,4.01,103.864,103.864,0,0,0,26.09,3.04,103.864,103.864,0,0,0,26.09-3.04,36.516,36.516,0,0,0,9.86-4.01" fill="#fff"/>
            <path id="Path_12632" data-name="Path 12632" d="M77.4,57.86V68.58c0,1.19-2.33,4.07-11.17,6.46a98.566,98.566,0,0,1-24.78,2.87,98.68,98.68,0,0,1-24.78-2.87C7.83,72.65,5.5,69.77,5.5,68.58V57.86a36.516,36.516,0,0,0,9.86,4.01,103.864,103.864,0,0,0,26.09,3.04,103.864,103.864,0,0,0,26.09-3.04,36.516,36.516,0,0,0,9.86-4.01" fill="#fff"/>
            <path id="Path_12633" data-name="Path 12633" d="M77.4,39.86V50.58c0,1.19-2.33,4.07-11.17,6.46a98.566,98.566,0,0,1-24.78,2.87,98.68,98.68,0,0,1-24.78-2.87C7.83,54.65,5.5,51.77,5.5,50.58V39.86a36.516,36.516,0,0,0,9.86,4.01,103.864,103.864,0,0,0,26.09,3.04,103.864,103.864,0,0,0,26.09-3.04,36.516,36.516,0,0,0,9.86-4.01" fill="#fff"/>
            <path id="Path_12634" data-name="Path 12634" d="M77.4,22.07V32.58c0,1.19-2.33,4.07-11.17,6.46a98.566,98.566,0,0,1-24.78,2.87,98.68,98.68,0,0,1-24.78-2.87C7.83,36.65,5.5,33.77,5.5,32.58V22.07c7.34,4.68,21.7,7.1,35.95,7.1s28.62-2.42,35.95-7.1" fill="#fff"/>
            <path id="Path_12635" data-name="Path 12635" d="M41.45,5.5c23.61,0,35.95,6.08,35.95,9.34s-12.34,9.33-35.95,9.33S5.5,18.09,5.5,14.84,17.85,5.5,41.45,5.5" fill="#fff"/>
          </g>
        </g>
      </g>
    </g>
    <path id="Path_12636" data-name="Path 12636" d="M41.45.5C21.1.5.5,5.43.5,14.84v88.73a2.937,2.937,0,0,0,.05.51,2.734,2.734,0,0,0-.05.5c0,4.76,5.14,8.66,14.86,11.29a103.864,103.864,0,0,0,26.09,3.04,103.864,103.864,0,0,0,26.09-3.04c9.72-2.63,14.86-6.53,14.86-11.29,0-.03-.01-.06-.01-.09s.01-.06.01-.09V14.84C82.4,5.43,61.8.5,41.45.5Z" fill="none" stroke="#270089" stroke-miterlimit="10" stroke-width="1"/>
    <path id="Path_12637" data-name="Path 12637" d="M77.4,86.58c0,1.19-2.33,4.07-11.17,6.46a98.566,98.566,0,0,1-24.78,2.87,98.68,98.68,0,0,1-24.78-2.87C7.83,90.65,5.5,87.77,5.5,86.58V75.86a36.516,36.516,0,0,0,9.86,4.01,103.864,103.864,0,0,0,26.09,3.04,103.864,103.864,0,0,0,26.09-3.04,36.516,36.516,0,0,0,9.86-4.01Z" fill="none" stroke="#270089" stroke-miterlimit="10" stroke-width="1"/>
    <path id="Path_12638" data-name="Path 12638" d="M77.4,68.58c0,1.19-2.33,4.07-11.17,6.46a98.566,98.566,0,0,1-24.78,2.87,98.68,98.68,0,0,1-24.78-2.87C7.83,72.65,5.5,69.77,5.5,68.58V57.86a36.516,36.516,0,0,0,9.86,4.01,103.864,103.864,0,0,0,26.09,3.04,103.864,103.864,0,0,0,26.09-3.04,36.516,36.516,0,0,0,9.86-4.01Z" fill="none" stroke="#270089" stroke-miterlimit="10" stroke-width="1"/>
    <path id="Path_12639" data-name="Path 12639" d="M77.4,50.58c0,1.19-2.33,4.07-11.17,6.46a98.566,98.566,0,0,1-24.78,2.87,98.68,98.68,0,0,1-24.78-2.87C7.83,54.65,5.5,51.77,5.5,50.58V39.86a36.516,36.516,0,0,0,9.86,4.01,103.864,103.864,0,0,0,26.09,3.04,103.864,103.864,0,0,0,26.09-3.04,36.516,36.516,0,0,0,9.86-4.01Z" fill="none" stroke="#270089" stroke-miterlimit="10" stroke-width="1"/>
    <path id="Path_12640" data-name="Path 12640" d="M77.4,32.58c0,1.19-2.33,4.07-11.17,6.46a98.566,98.566,0,0,1-24.78,2.87,98.68,98.68,0,0,1-24.78-2.87C7.83,36.65,5.5,33.77,5.5,32.58V22.07c7.34,4.68,21.7,7.1,35.95,7.1s28.62-2.42,35.95-7.1Z" fill="none" stroke="#270089" stroke-miterlimit="10" stroke-width="1"/>
    <path id="Path_12641" data-name="Path 12641" d="M41.45,5.5c23.61,0,35.95,6.08,35.95,9.34s-12.34,9.33-35.95,9.33S5.5,18.09,5.5,14.84,17.85,5.5,41.45,5.5Z" fill="none" stroke="#270089" stroke-miterlimit="10" stroke-width="1"/>
    <path id="Path_12642" data-name="Path 12642" d="M66.23,111.04a98.566,98.566,0,0,1-24.78,2.87,98.68,98.68,0,0,1-24.78-2.87c-8.84-2.39-11.17-5.27-11.17-6.46a2.734,2.734,0,0,0-.05-.5,2.937,2.937,0,0,0,.05-.51V93.86a36.516,36.516,0,0,0,9.86,4.01,103.864,103.864,0,0,0,26.09,3.04,103.864,103.864,0,0,0,26.09-3.04,36.516,36.516,0,0,0,9.86-4.01V104.4c0,.03.01.06.01.09s-.01.06-.01.09C77.4,105.77,75.07,108.65,66.23,111.04Z" fill="none" stroke="#270089" stroke-miterlimit="10" stroke-width="1"/>
    <g id="Group_2381" data-name="Group 2381">
      <g id="Group_2380" data-name="Group 2380" clip-path="url(#clip-path-4)">
        <g id="Group_2379" data-name="Group 2379">
          <g id="Group_2378" data-name="Group 2378" clip-path="url(#clip-path-4)">
            <path id="Path_12643" data-name="Path 12643" d="M149.516,74.6a6.275,6.275,0,0,1-4.428,7.694l-5.506,1.493c-.083.913-.2,1.825-.363,2.758l4.946,2.841a6.28,6.28,0,0,1,2.312,8.575l-5.205,9.063a6.27,6.27,0,0,1-8.575,2.312l-4.977-2.862c-.694.591-1.42,1.151-2.177,1.69l1.493,5.527a6.288,6.288,0,0,1-4.428,7.694l-10.088,2.727a6.273,6.273,0,0,1-7.694-4.428l-1.5-5.558c-.891-.072-1.793-.2-2.706-.352l-2.882,5.008a6.21,6.21,0,0,1-3.806,2.924,5.929,5.929,0,0,1-1.638.228,6.284,6.284,0,0,1-3.121-.84l-9.062-5.215a6.264,6.264,0,0,1-2.313-8.565l2.883-5.029c-.581-.694-1.141-1.41-1.649-2.146l-5.589,1.5a6.391,6.391,0,0,1-1.648.218,6.26,6.26,0,0,1-6.056-4.645L63.019,87.129a6.274,6.274,0,0,1,4.417-7.7l5.589-1.5c.072-.891.2-1.783.352-2.685l-5.029-2.883a6.3,6.3,0,0,1-2.312-8.575l5.216-9.062A6.264,6.264,0,0,1,79.816,52.4l5.008,2.882c.716-.6,1.431-1.161,2.168-1.679l-1.514-5.568A6.287,6.287,0,0,1,89.9,40.345l10.089-2.727a6.279,6.279,0,0,1,7.694,4.427l1.5,5.537c.923.083,1.835.2,2.727.363l2.862-4.977a6.287,6.287,0,0,1,8.575-2.322l9.062,5.215a6.289,6.289,0,0,1,2.313,8.565l-2.841,4.956c.58.695,1.15,1.431,1.679,2.188l5.527-1.483a6.27,6.27,0,0,1,7.694,4.417Zm-3.557,3.08a2.86,2.86,0,0,0,.28-2.2L143.512,65.4a2.9,2.9,0,0,0-3.536-2.043l-6.657,1.794-.031.01a1.331,1.331,0,0,1-.4.052c-.01,0-.021.011-.031.011-.031,0-.052-.011-.083-.011l-.27-.031c-.041-.01-.072-.021-.114-.031a2.705,2.705,0,0,1-.269-.1.2.2,0,0,1-.083-.041,1.649,1.649,0,0,1-.311-.218l-.063-.062a1.578,1.578,0,0,1-.2-.239c-.01-.01-.031-.02-.041-.041a27.538,27.538,0,0,0-2.862-3.712.208.208,0,0,0-.041-.062,1.272,1.272,0,0,1-.1-.145,1.048,1.048,0,0,1-.083-.135c-.031-.052-.052-.1-.073-.145s-.041-.1-.062-.166c-.01-.042-.021-.094-.031-.145a1.081,1.081,0,0,1-.031-.166.872.872,0,0,1-.01-.166v-.156c.01-.052.02-.114.031-.166s.02-.1.031-.155.031-.1.052-.156.052-.114.072-.166c.011-.02.021-.041.031-.062l3.453-5.993a2.905,2.905,0,0,0,.28-2.2,2.867,2.867,0,0,0-1.348-1.753l-9.062-5.2a2.9,2.9,0,0,0-3.951,1.058l-3.463,6.035a.035.035,0,0,0-.01.02,1.823,1.823,0,0,1-.166.228c-.011.011-.011.021-.021.032a2.139,2.139,0,0,1-.228.207l-.093.062c-.052.031-.1.073-.166.1-.031.021-.073.031-.114.052s-.114.041-.166.062l-.125.031-.176.031c-.052,0-.093.01-.135.01-.02,0-.041.011-.062.011s-.062-.011-.083-.011a1.505,1.505,0,0,1-.218-.031h-.062a29.534,29.534,0,0,0-4.645-.611h-.062l-.2-.032c-.042-.01-.094-.02-.135-.031s-.114-.041-.166-.062-.093-.041-.145-.062-.093-.062-.145-.093a.928.928,0,0,1-.125-.094,1.168,1.168,0,0,1-.124-.114l-.1-.1c-.041-.052-.072-.094-.1-.135a.94.94,0,0,1-.083-.145.854.854,0,0,1-.073-.135c-.021-.062-.041-.114-.062-.176-.011-.021-.021-.042-.031-.063l-1.805-6.708a2.9,2.9,0,0,0-3.546-2.043L90.786,43.611a2.894,2.894,0,0,0-2.032,3.546l1.815,6.74a.627.627,0,0,0,.02.072,1.093,1.093,0,0,1,.021.187c.011.052.011.1.021.156s-.01.1-.01.166a1.079,1.079,0,0,1-.021.165c-.011.052-.021.094-.031.146s-.031.114-.052.166-.042.093-.073.145-.052.093-.072.134a1.269,1.269,0,0,1-.094.135c-.041.042-.072.094-.114.135a1.071,1.071,0,0,1-.114.1c-.041.041-.093.072-.145.114-.021.01-.031.031-.052.041A28.84,28.84,0,0,0,86.172,58.6c-.02.021-.041.031-.062.052l-.124.094-.156.093a.655.655,0,0,1-.124.052,1.083,1.083,0,0,1-.166.072L85.415,59l-.186.031c-.042,0-.094.011-.135.011-.021,0-.041.01-.062.01s-.062-.01-.094-.01c-.062-.011-.124-.011-.186-.021l-.156-.031a1.119,1.119,0,0,1-.166-.062l-.155-.062a.348.348,0,0,0-.093-.042l-6.056-3.484a2.893,2.893,0,0,0-3.94,1.068L68.97,65.469a2.9,2.9,0,0,0,1.068,3.94L76.115,72.9c.02.01.031.031.051.041.052.032.1.073.146.1s.083.073.124.1.073.083.114.124.073.083.1.125.052.093.083.134.052.094.072.146l.063.155c.01.052.031.1.041.156s.021.1.031.166.01.1.01.155v.166c-.01.052-.01.114-.02.176a.148.148,0,0,0-.011.073,27.217,27.217,0,0,0-.591,4.583.208.208,0,0,0-.01.072c-.01.063-.021.115-.031.177s-.021.1-.031.155a1.187,1.187,0,0,0-.052.145c-.021.052-.052.1-.073.156a.576.576,0,0,1-.083.135,1.056,1.056,0,0,1-.093.135.537.537,0,0,1-.1.114.586.586,0,0,1-.114.114,1.126,1.126,0,0,1-.124.1.975.975,0,0,1-.145.083.582.582,0,0,1-.135.073.865.865,0,0,1-.176.072l-.083.032L68.317,82.7a2.875,2.875,0,0,0-2.032,3.535l2.727,10.1a2.867,2.867,0,0,0,1.348,1.752,2.908,2.908,0,0,0,2.2.29l6.75-1.825a.184.184,0,0,1,.073-.01.576.576,0,0,1,.186-.031.745.745,0,0,1,.156-.011h.155c.063.011.115.011.177.021a1.155,1.155,0,0,1,.145.042,1.514,1.514,0,0,1,.166.051.857.857,0,0,1,.135.063.666.666,0,0,1,.145.083.544.544,0,0,1,.135.083c.041.041.093.072.134.114s.063.072.1.114a1.5,1.5,0,0,1,.114.145c.01.021.031.031.042.052A28.283,28.283,0,0,0,84,100.951a.189.189,0,0,0,.042.051c.041.052.072.1.1.146s.063.093.083.134a1.093,1.093,0,0,1,.073.156l.062.156c.011.051.021.093.031.145s.021.114.031.166.011.114.011.165a.745.745,0,0,1-.011.156.839.839,0,0,1-.02.166,1.347,1.347,0,0,1-.042.166c-.01.041-.031.093-.041.145-.031.052-.052.114-.083.166-.011.021-.011.041-.031.062l-3.484,6.076a2.893,2.893,0,0,0,1.068,3.94l9.062,5.206a2.833,2.833,0,0,0,2.188.29A2.9,2.9,0,0,0,94.8,117.1l3.484-6.055a.1.1,0,0,1,.042-.052.587.587,0,0,1,.1-.156,1.142,1.142,0,0,1,.094-.114c.041-.041.093-.083.134-.124a1.039,1.039,0,0,0,.114-.094l.156-.093.124-.062a.6.6,0,0,1,.177-.062.628.628,0,0,1,.134-.042.528.528,0,0,1,.177-.031c.052-.01.1-.01.155-.021a.9.9,0,0,1,.166.011,1.186,1.186,0,0,1,.176.02h.063a27.238,27.238,0,0,0,4.614.6c.031,0,.052.01.083.01.052.011.114.021.166.031l.166.031c.051.021.093.031.145.052a1.286,1.286,0,0,1,.166.083.445.445,0,0,1,.114.073,1.389,1.389,0,0,1,.155.1c.031.032.073.063.1.094l.124.124.094.125c.031.051.062.093.093.145s.041.093.062.145a1.2,1.2,0,0,1,.073.166c0,.031.021.052.021.072l1.814,6.73a2.9,2.9,0,0,0,3.546,2.042l10.089-2.727a2.893,2.893,0,0,0,2.032-3.546l-1.8-6.7a.135.135,0,0,1-.01-.062c-.011-.062-.021-.125-.031-.187a.74.74,0,0,1-.011-.155v-.166c.011-.052.011-.1.021-.156a.811.811,0,0,1,.042-.155.946.946,0,0,1,.051-.156.97.97,0,0,1,.063-.155c.02-.042.051-.094.072-.135a.63.63,0,0,1,.1-.135.656.656,0,0,1,.1-.135,1.066,1.066,0,0,1,.114-.1.781.781,0,0,1,.145-.115.214.214,0,0,1,.052-.041,29.224,29.224,0,0,0,3.7-2.862.205.205,0,0,1,.063-.041,1.116,1.116,0,0,1,.145-.1,1.665,1.665,0,0,1,.145-.093,1.336,1.336,0,0,1,.135-.062.774.774,0,0,1,.166-.063.687.687,0,0,1,.134-.041,1.1,1.1,0,0,1,.177-.021.8.8,0,0,1,.155-.01h.166c.052.01.1.01.156.02a1.123,1.123,0,0,1,.176.042.706.706,0,0,1,.135.052.926.926,0,0,1,.176.072l.062.031,6.024,3.464a2.909,2.909,0,0,0,3.951-1.068l5.205-9.063a2.876,2.876,0,0,0-1.068-3.94l-5.993-3.453a.17.17,0,0,1-.052-.041,1.2,1.2,0,0,1-.155-.1.982.982,0,0,1-.115-.1,1.225,1.225,0,0,1-.114-.114,1.562,1.562,0,0,1-.1-.134c-.031-.042-.052-.083-.083-.135a.656.656,0,0,1-.073-.145l-.062-.156c-.01-.052-.031-.093-.041-.145s-.021-.114-.032-.166-.01-.114-.01-.166v-.155c.01-.063.01-.125.021-.187a.135.135,0,0,1,.01-.062,28.852,28.852,0,0,0,.6-4.666.21.21,0,0,1,.01-.073,1.07,1.07,0,0,1,.021-.186c.01-.042.02-.094.031-.135a1.305,1.305,0,0,1,.072-.187.6.6,0,0,1,.052-.114,2,2,0,0,1,.114-.187.458.458,0,0,1,.042-.072,1.654,1.654,0,0,1,.186-.2l.031-.031c.073-.062.146-.114.218-.166a.152.152,0,0,0,.042-.031,1.585,1.585,0,0,1,.238-.114.588.588,0,0,1,.083-.031c.031-.011.073-.032.1-.042l6.688-1.8a2.868,2.868,0,0,0,1.752-1.348" fill="#270089"/>
            <path id="Path_12644" data-name="Path 12644" d="M146.239,75.485a2.882,2.882,0,0,1-2.032,3.546l-6.688,1.8c-.031.011-.073.031-.1.042a.746.746,0,0,0-.083.031,1.585,1.585,0,0,0-.238.114.152.152,0,0,1-.042.031c-.072.052-.145.1-.218.166l-.031.031a1.654,1.654,0,0,0-.186.2.472.472,0,0,0-.042.073,1.863,1.863,0,0,0-.114.186.6.6,0,0,0-.052.114,1.494,1.494,0,0,0-.072.187c-.011.041-.021.093-.031.135a1.07,1.07,0,0,0-.021.186.213.213,0,0,0-.01.073,28.838,28.838,0,0,1-.6,4.666.135.135,0,0,0-.01.062c-.011.062-.011.125-.021.187v.155c0,.052.01.114.01.166s.021.1.032.166.031.093.041.145l.062.156a.635.635,0,0,0,.073.145c.031.052.052.093.083.135a1.584,1.584,0,0,0,.1.135,1.231,1.231,0,0,0,.115.114.974.974,0,0,0,.114.1,1.2,1.2,0,0,0,.155.1.192.192,0,0,0,.052.042l5.993,3.452a2.875,2.875,0,0,1,1.068,3.94l-5.205,9.063a2.909,2.909,0,0,1-3.951,1.068l-6.024-3.463-.062-.031a.814.814,0,0,0-.176-.073.706.706,0,0,0-.135-.052,1.017,1.017,0,0,0-.176-.041c-.052-.011-.1-.011-.156-.021h-.166a.8.8,0,0,0-.155.01,1.226,1.226,0,0,0-.177.021.687.687,0,0,0-.134.041.8.8,0,0,0-.166.063,1.147,1.147,0,0,0-.135.062,1.458,1.458,0,0,0-.145.093,1.116,1.116,0,0,0-.145.1.226.226,0,0,0-.063.041,29.153,29.153,0,0,1-3.7,2.862.215.215,0,0,0-.052.042.737.737,0,0,0-.145.114,1.066,1.066,0,0,0-.114.1,4805.073,4805.073,0,0,0-.208.27c-.021.041-.052.093-.072.135a1.009,1.009,0,0,0-.063.155.946.946,0,0,0-.051.156.831.831,0,0,0-.042.155c-.01.052-.01.1-.021.156v.166a.735.735,0,0,0,.011.155c.01.063.02.125.031.187a.131.131,0,0,0,.01.061l1.8,6.7a2.9,2.9,0,0,1-2.032,3.547l-10.089,2.726a2.9,2.9,0,0,1-3.546-2.042l-1.814-6.73c0-.02-.021-.041-.021-.072a1.1,1.1,0,0,0-.073-.166c-.021-.053-.041-.094-.062-.145s-.062-.093-.093-.145l-.094-.125-.124-.124c-.031-.031-.073-.063-.1-.093a1.168,1.168,0,0,0-.155-.1.423.423,0,0,0-.114-.074,1.429,1.429,0,0,0-.166-.083c-.052-.019-.094-.03-.145-.05s-.1-.021-.166-.033-.114-.019-.166-.03c-.031,0-.052-.01-.083-.01a27.335,27.335,0,0,1-4.614-.6h-.062a1,1,0,0,0-.177-.021.822.822,0,0,0-.166-.012c-.051.012-.1.012-.155.021a.546.546,0,0,0-.176.032.619.619,0,0,0-.135.042.552.552,0,0,0-.177.062l-.124.062-.155.093a1.036,1.036,0,0,1-.115.094c-.041.041-.093.083-.134.124a1.142,1.142,0,0,0-.094.114.615.615,0,0,0-.1.155.111.111,0,0,0-.042.053L94.8,117.1a2.9,2.9,0,0,1-1.752,1.348,2.837,2.837,0,0,1-2.188-.29L81.8,112.948a2.9,2.9,0,0,1-1.068-3.941l3.484-6.076c.02-.02.02-.041.031-.062.031-.052.052-.114.083-.166.01-.052.031-.1.041-.145a1.347,1.347,0,0,0,.042-.166.839.839,0,0,0,.02-.166.735.735,0,0,0,.011-.155c0-.052-.011-.114-.011-.166s-.02-.1-.031-.166-.02-.093-.031-.145l-.062-.156a.908.908,0,0,0-.073-.155c-.02-.042-.051-.083-.083-.135s-.062-.093-.1-.145a.192.192,0,0,1-.042-.052,28.216,28.216,0,0,1-2.83-3.681c-.011-.021-.031-.031-.042-.052a1.5,1.5,0,0,0-.114-.145c-.041-.042-.072-.083-.1-.114s-.093-.074-.134-.114a.611.611,0,0,0-.135-.083.684.684,0,0,0-.145-.083.769.769,0,0,0-.135-.062,1.34,1.34,0,0,0-.166-.052,1.155,1.155,0,0,0-.145-.042c-.062-.01-.114-.01-.176-.02h-.156a.818.818,0,0,0-.156.01.576.576,0,0,0-.186.031.184.184,0,0,0-.073.01l-6.75,1.824a2.9,2.9,0,0,1-2.2-.289,2.867,2.867,0,0,1-1.348-1.752l-2.727-10.1A2.877,2.877,0,0,1,68.317,82.7l6.761-1.825c.031-.011.052-.021.083-.031a.928.928,0,0,0,.176-.073.579.579,0,0,0,.135-.072,1.072,1.072,0,0,0,.145-.083,1.266,1.266,0,0,0,.124-.1.586.586,0,0,0,.114-.114.537.537,0,0,0,.1-.114,1.056,1.056,0,0,0,.093-.135.544.544,0,0,0,.083-.135c.021-.052.052-.1.073-.155a1.139,1.139,0,0,1,.052-.146c.01-.051.021-.1.031-.155s.021-.114.031-.176a.211.211,0,0,1,.01-.073,27.244,27.244,0,0,1,.591-4.583.148.148,0,0,1,.011-.073c.01-.062.01-.124.021-.176v-.166c0-.052-.011-.1-.011-.155s-.021-.114-.031-.166-.031-.1-.041-.156l-.063-.155c-.02-.052-.051-.094-.072-.145s-.052-.094-.083-.135-.073-.083-.1-.125-.072-.083-.114-.124-.083-.073-.124-.1-.094-.072-.146-.1c-.02-.011-.031-.031-.051-.042l-6.076-3.494a2.893,2.893,0,0,1-1.068-3.94l5.215-9.063a2.893,2.893,0,0,1,3.94-1.068l6.056,3.484a.382.382,0,0,1,.093.042l.155.062a1.119,1.119,0,0,0,.166.062l.156.031c.062.011.124.011.187.021.031,0,.062.01.093.01s.041-.01.062-.01c.042,0,.093-.01.135-.01L85.415,59l.125-.032a1.083,1.083,0,0,0,.166-.072.6.6,0,0,0,.124-.052l.156-.093.124-.094c.021-.02.042-.031.062-.051a28.759,28.759,0,0,1,3.681-2.842c.021-.01.031-.031.052-.041a1.668,1.668,0,0,0,.145-.114,1.188,1.188,0,0,0,.114-.1c.042-.041.073-.093.114-.135a1.251,1.251,0,0,0,.094-.134c.021-.042.052-.094.072-.135s.052-.1.073-.145.031-.1.052-.166.021-.094.031-.145a1.091,1.091,0,0,0,.021-.166c0-.062.01-.114.01-.166s-.01-.1-.021-.156a1.175,1.175,0,0,0-.02-.186.514.514,0,0,1-.021-.073l-1.815-6.74a2.894,2.894,0,0,1,2.033-3.546l10.088-2.728a2.907,2.907,0,0,1,3.547,2.044l1.8,6.709.031.062c.021.062.041.114.062.176a.944.944,0,0,0,.073.135.9.9,0,0,0,.083.145c.031.041.062.083.1.135l.1.1a1.168,1.168,0,0,0,.124.114.928.928,0,0,0,.125.094c.052.031.1.062.145.093s.093.042.145.062.114.042.166.063.093.02.135.031c.072.01.135.02.2.031h.062a29.417,29.417,0,0,1,4.645.612h.062a1.844,1.844,0,0,0,.218.031c.021,0,.052.01.083.01s.042-.01.062-.01c.042,0,.083-.011.135-.011l.176-.031.125-.031c.052-.021.114-.041.166-.062s.083-.031.114-.052c.062-.031.114-.073.166-.1l.093-.062a2.139,2.139,0,0,0,.228-.207c.011-.012.011-.021.021-.031a1.982,1.982,0,0,0,.166-.228.035.035,0,0,1,.01-.021l3.463-6.035a2.9,2.9,0,0,1,3.951-1.058l9.062,5.206a2.862,2.862,0,0,1,1.348,1.752,2.9,2.9,0,0,1-.28,2.2l-3.453,5.993c-.01.021-.02.042-.031.063-.02.051-.052.114-.072.165s-.031.1-.052.156-.021.1-.031.156-.021.114-.031.165V59.6a.872.872,0,0,0,.01.166,1.059,1.059,0,0,0,.031.166c.011.052.021.1.031.145.021.062.042.114.062.166s.042.093.073.145a1.048,1.048,0,0,0,.083.135,1.189,1.189,0,0,0,.1.145.221.221,0,0,1,.041.062,27.6,27.6,0,0,1,2.862,3.712c.01.021.031.031.041.042a1.568,1.568,0,0,0,.2.238l.063.062a1.649,1.649,0,0,0,.311.218.21.21,0,0,0,.083.042c.093.041.176.072.269.1.042.011.073.021.114.031l.27.031c.031,0,.052.011.083.011.01,0,.021-.011.031-.011a1.362,1.362,0,0,0,.4-.051l.031-.011,6.657-1.794a2.9,2.9,0,0,1,3.536,2.043Z" fill="#ef8933"/>
          </g>
        </g>
      </g>
    </g>
    <path id="Path_12645" data-name="Path 12645" d="M149.515,74.6l-2.727-10.1a6.267,6.267,0,0,0-7.694-4.417l-5.526,1.482c-.529-.757-1.1-1.493-1.68-2.187l2.841-4.957a6.287,6.287,0,0,0-2.312-8.564l-9.063-5.216a6.289,6.289,0,0,0-8.575,2.323l-2.861,4.977c-.892-.166-1.805-.28-2.727-.363l-1.5-5.537a6.279,6.279,0,0,0-7.693-4.428L89.9,40.344a6.288,6.288,0,0,0-4.428,7.694l1.514,5.568c-.736.519-1.452,1.078-2.167,1.68L79.816,52.4a6.264,6.264,0,0,0-8.565,2.313l-5.215,9.062a6.3,6.3,0,0,0,2.312,8.575l5.029,2.882c-.156.9-.28,1.794-.353,2.686l-5.589,1.5a6.274,6.274,0,0,0-4.417,7.7l2.717,10.088a6.261,6.261,0,0,0,6.055,4.646,6.442,6.442,0,0,0,1.649-.218l5.589-1.5c.508.737,1.068,1.452,1.648,2.147l-2.882,5.029a6.264,6.264,0,0,0,2.312,8.564l9.062,5.216a6.3,6.3,0,0,0,3.121.84,5.969,5.969,0,0,0,1.639-.228,6.215,6.215,0,0,0,3.805-2.924l2.883-5.009c.912.156,1.814.28,2.706.353l1.5,5.558a6.269,6.269,0,0,0,7.694,4.427l10.089-2.727a6.287,6.287,0,0,0,4.427-7.694l-1.493-5.526c.757-.539,1.483-1.1,2.178-1.69l4.977,2.862a6.272,6.272,0,0,0,8.575-2.313l5.205-9.062a6.28,6.28,0,0,0-2.312-8.575l-4.946-2.841c.166-.933.28-1.846.363-2.758l5.506-1.493a6.274,6.274,0,0,0,4.427-7.694Z" fill="none" stroke="#270089" stroke-miterlimit="10" stroke-width="2"/>
    <path id="Path_12646" data-name="Path 12646" d="M145.959,77.683a2.868,2.868,0,0,1-1.752,1.348l-6.688,1.8c-.031.01-.073.031-.1.042a.588.588,0,0,0-.083.031,1.585,1.585,0,0,0-.238.114.152.152,0,0,1-.042.031c-.072.052-.145.1-.218.166l-.031.031a1.654,1.654,0,0,0-.186.2.458.458,0,0,0-.042.072,2,2,0,0,0-.114.187.6.6,0,0,0-.052.114,1.305,1.305,0,0,0-.072.187c-.011.041-.021.093-.031.135a1.07,1.07,0,0,0-.021.186.21.21,0,0,0-.01.073,28.852,28.852,0,0,1-.6,4.666.135.135,0,0,0-.01.062c-.011.062-.011.124-.021.187v.155c0,.052.01.114.01.166s.021.1.032.166.031.093.041.145l.062.156a.656.656,0,0,0,.073.145c.031.052.052.093.083.135a1.562,1.562,0,0,0,.1.134,1.225,1.225,0,0,0,.114.114.982.982,0,0,0,.115.1,1.2,1.2,0,0,0,.155.1.17.17,0,0,0,.052.041l5.993,3.453a2.876,2.876,0,0,1,1.068,3.94l-5.205,9.063a2.909,2.909,0,0,1-3.951,1.068l-6.024-3.464-.062-.031a.926.926,0,0,0-.176-.072.706.706,0,0,0-.135-.052,1.123,1.123,0,0,0-.176-.042c-.052-.01-.1-.01-.156-.02h-.166a.8.8,0,0,0-.155.01,1.1,1.1,0,0,0-.177.021.687.687,0,0,0-.134.041.774.774,0,0,0-.166.063,1.336,1.336,0,0,0-.135.062,1.665,1.665,0,0,0-.145.093,1.116,1.116,0,0,0-.145.1.205.205,0,0,0-.063.041,29.224,29.224,0,0,1-3.7,2.862.214.214,0,0,0-.052.041.781.781,0,0,0-.145.115,1.066,1.066,0,0,0-.114.1.656.656,0,0,0-.1.135.63.63,0,0,0-.1.135c-.021.041-.052.093-.072.135a.97.97,0,0,0-.063.155.946.946,0,0,0-.051.156.811.811,0,0,0-.042.155c-.01.052-.01.1-.021.156v.166a.74.74,0,0,0,.011.155c.01.062.02.125.031.187a.135.135,0,0,0,.01.062l1.8,6.7a2.893,2.893,0,0,1-2.032,3.546l-10.089,2.727a2.9,2.9,0,0,1-3.546-2.042l-1.814-6.73c0-.02-.021-.041-.021-.072a1.2,1.2,0,0,0-.073-.166c-.021-.052-.041-.093-.062-.145s-.062-.094-.093-.145l-.094-.125-.124-.124c-.031-.031-.073-.062-.1-.094a1.389,1.389,0,0,0-.155-.1.445.445,0,0,0-.114-.073,1.286,1.286,0,0,0-.166-.083c-.052-.021-.094-.031-.145-.052l-.166-.031c-.052-.01-.114-.02-.166-.031-.031,0-.052-.01-.083-.01a27.238,27.238,0,0,1-4.614-.6h-.063a1.186,1.186,0,0,0-.176-.02.9.9,0,0,0-.166-.011c-.052.011-.1.011-.155.021a.528.528,0,0,0-.177.031.628.628,0,0,0-.134.042.6.6,0,0,0-.177.062l-.124.062-.156.093a1.039,1.039,0,0,1-.114.094c-.041.041-.093.083-.134.124a1.142,1.142,0,0,0-.094.114.587.587,0,0,0-.1.156.1.1,0,0,0-.042.052L94.8,117.1a2.9,2.9,0,0,1-1.752,1.348,2.833,2.833,0,0,1-2.188-.29L81.8,112.947a2.893,2.893,0,0,1-1.068-3.94l3.484-6.076c.02-.021.02-.041.031-.062.031-.052.052-.114.083-.166.01-.052.031-.1.041-.145a1.347,1.347,0,0,0,.042-.166.839.839,0,0,0,.02-.166.745.745,0,0,0,.011-.156c0-.051-.011-.114-.011-.165s-.02-.1-.031-.166-.02-.094-.031-.145l-.062-.156a1.093,1.093,0,0,0-.073-.156c-.02-.041-.051-.082-.083-.134s-.062-.094-.1-.146a.189.189,0,0,1-.042-.051,28.283,28.283,0,0,1-2.83-3.681c-.011-.021-.032-.031-.042-.052a1.5,1.5,0,0,0-.114-.145c-.041-.042-.073-.083-.1-.114s-.093-.073-.134-.114a.544.544,0,0,0-.135-.083.666.666,0,0,0-.145-.083.857.857,0,0,0-.135-.063,1.514,1.514,0,0,0-.166-.051,1.155,1.155,0,0,0-.145-.042c-.062-.01-.114-.01-.177-.021h-.155a.745.745,0,0,0-.156.011.576.576,0,0,0-.186.031.184.184,0,0,0-.073.01l-6.75,1.825a2.908,2.908,0,0,1-2.2-.29,2.867,2.867,0,0,1-1.348-1.752l-2.727-10.1A2.875,2.875,0,0,1,68.317,82.7l6.761-1.825.083-.032a.865.865,0,0,0,.176-.072.582.582,0,0,0,.135-.073.975.975,0,0,0,.145-.083,1.126,1.126,0,0,0,.124-.1.586.586,0,0,0,.114-.114.537.537,0,0,0,.1-.114,1.056,1.056,0,0,0,.093-.135.576.576,0,0,0,.083-.135c.021-.052.052-.1.073-.156a1.187,1.187,0,0,1,.052-.145c.01-.052.021-.1.031-.155s.021-.114.031-.177a.208.208,0,0,1,.01-.072,27.217,27.217,0,0,1,.591-4.583.148.148,0,0,1,.011-.073c.01-.062.01-.124.02-.176v-.166c0-.052-.01-.1-.01-.155s-.021-.114-.031-.166-.031-.1-.041-.156l-.063-.155c-.02-.052-.052-.094-.072-.146s-.052-.093-.083-.134-.073-.083-.1-.125-.072-.083-.114-.124-.083-.073-.124-.1-.094-.072-.146-.1c-.02-.01-.031-.031-.051-.041l-6.077-3.494a2.9,2.9,0,0,1-1.068-3.94l5.216-9.063a2.893,2.893,0,0,1,3.94-1.068l6.056,3.484a.348.348,0,0,1,.093.042l.155.062a1.119,1.119,0,0,0,.166.062l.156.031c.062.01.124.01.186.021.032,0,.063.01.094.01s.041-.01.062-.01c.041,0,.093-.011.135-.011L85.415,59l.125-.031a1.083,1.083,0,0,0,.166-.072.655.655,0,0,0,.124-.052l.156-.093.124-.094c.021-.021.042-.031.062-.052a28.84,28.84,0,0,1,3.681-2.841c.021-.01.031-.031.052-.041.052-.042.1-.073.145-.114a1.071,1.071,0,0,0,.114-.1c.042-.041.073-.093.114-.135a1.269,1.269,0,0,0,.094-.135c.02-.041.052-.093.072-.134s.052-.1.073-.145.031-.1.052-.166.02-.094.031-.146a1.079,1.079,0,0,0,.021-.165c0-.063.01-.114.01-.166s-.01-.1-.021-.156a1.093,1.093,0,0,0-.021-.187.627.627,0,0,1-.02-.072l-1.815-6.74a2.894,2.894,0,0,1,2.032-3.546l10.089-2.727a2.9,2.9,0,0,1,3.546,2.043l1.805,6.708c.01.021.02.042.031.063.021.062.041.114.062.176a.854.854,0,0,0,.073.135.94.94,0,0,0,.083.145c.031.041.062.083.1.135l.1.1a1.168,1.168,0,0,0,.124.114.928.928,0,0,0,.125.094c.052.031.1.062.145.093s.093.041.145.062.114.042.166.062.093.021.135.031l.2.032h.062a29.534,29.534,0,0,1,4.645.611h.062a1.505,1.505,0,0,0,.218.031c.021,0,.052.011.083.011s.042-.011.062-.011c.042,0,.083-.01.135-.01l.176-.031.125-.031c.052-.021.114-.042.166-.062s.083-.031.114-.052c.062-.031.114-.073.166-.1l.093-.062a2.139,2.139,0,0,0,.228-.207c.01-.011.01-.021.021-.032a1.823,1.823,0,0,0,.166-.228.035.035,0,0,1,.01-.02l3.463-6.035a2.9,2.9,0,0,1,3.951-1.058l9.062,5.2a2.867,2.867,0,0,1,1.348,1.753,2.905,2.905,0,0,1-.28,2.2l-3.453,5.993c-.01.021-.02.042-.031.062-.02.052-.052.114-.072.166s-.031.1-.052.156-.021.1-.031.155-.021.114-.031.166V59.6a.872.872,0,0,0,.01.166,1.081,1.081,0,0,0,.031.166c.01.051.021.1.031.145.021.062.042.114.062.166s.042.093.073.145a1.048,1.048,0,0,0,.083.135,1.272,1.272,0,0,0,.1.145.208.208,0,0,1,.041.062,27.538,27.538,0,0,1,2.862,3.712c.01.021.031.031.041.041a1.578,1.578,0,0,0,.2.239l.063.062a1.649,1.649,0,0,0,.311.218.2.2,0,0,0,.083.041,2.705,2.705,0,0,0,.269.1c.042.01.073.021.114.031l.27.031c.031,0,.052.011.083.011.01,0,.021-.011.031-.011a1.331,1.331,0,0,0,.4-.052l.031-.01,6.657-1.794a2.9,2.9,0,0,1,3.536,2.043l2.727,10.089A2.86,2.86,0,0,1,145.959,77.683Z" fill="none" stroke="#270089" stroke-miterlimit="10" stroke-width="2"/>
    <g id="Group_2385" data-name="Group 2385">
      <g id="Group_2384" data-name="Group 2384" clip-path="url(#clip-path-6)">
        <g id="Group_2383" data-name="Group 2383">
          <g id="Group_2382" data-name="Group 2382" clip-path="url(#clip-path-6)">
            <path id="Path_12647" data-name="Path 12647" d="M106.264,56.667a24.2,24.2,0,1,1-24.2,24.2,24.232,24.232,0,0,1,24.2-24.2m20.259,24.2a20.259,20.259,0,1,0-20.259,20.259,20.288,20.288,0,0,0,20.259-20.259" fill="#270089"/>
            <path id="Path_12648" data-name="Path 12648" d="M106.264,60.6A20.263,20.263,0,1,1,86,80.87,20.288,20.288,0,0,1,106.264,60.6m8.124,28.693a6.374,6.374,0,0,0,.845-3.146,6.657,6.657,0,0,0-.93-3.363,8.173,8.173,0,0,0-2.883-2.8,12.28,12.28,0,0,0-4.828-1.54h-.065a7.864,7.864,0,0,1-3.165-1A2.262,2.262,0,0,1,102,75.517a1.579,1.579,0,0,1,.591-1.184,4.066,4.066,0,0,1,1.729-.826,9.321,9.321,0,0,1,2.742-.235h.122a8.091,8.091,0,0,1,2.658.5,11.861,11.861,0,0,1,1.54.667,1.071,1.071,0,0,0,1.381-.32l1.315-1.822a1.088,1.088,0,0,0-.347-1.568,16.6,16.6,0,0,0-2-.921,13.938,13.938,0,0,0-3.6-.864V67.806a1.087,1.087,0,0,0-1.08-1.081h-2.207a1.079,1.079,0,0,0-1.071,1.081v1.315a8.709,8.709,0,0,0-3.391,1.361,6.8,6.8,0,0,0-2.075,2.283,5.746,5.746,0,0,0-.7,2.723,5.89,5.89,0,0,0,.583,2.536,7.116,7.116,0,0,0,1.643,2.208,8.863,8.863,0,0,0,2.724,1.681,12.73,12.73,0,0,0,3.494.864,7.354,7.354,0,0,1,3.579,1.277,2.631,2.631,0,0,1,1.221,2.066,2.114,2.114,0,0,1-.461,1.287,3.226,3.226,0,0,1-1.333,1,5.212,5.212,0,0,1-2.085.385h-.151a8.292,8.292,0,0,1-5.278-1.447,6.692,6.692,0,0,1-.7-.666,1.084,1.084,0,0,0-1.418-.188L97.6,87.736a1.079,1.079,0,0,0-.225,1.578A12.555,12.555,0,0,0,98.8,90.741a10.836,10.836,0,0,0,4.978,2.161v1.653a1.079,1.079,0,0,0,1.071,1.08h2.207a1.087,1.087,0,0,0,1.08-1.08V93.108a8.65,8.65,0,0,0,3.8-1.268,7.2,7.2,0,0,0,2.451-2.545" fill="#fff"/>
            <path id="Path_12649" data-name="Path 12649" d="M115.234,86.149a6.382,6.382,0,0,1-.845,3.146,7.194,7.194,0,0,1-2.452,2.546,8.675,8.675,0,0,1-3.8,1.268v1.446a1.086,1.086,0,0,1-1.08,1.08h-2.207a1.078,1.078,0,0,1-1.071-1.08V92.9a10.836,10.836,0,0,1-4.977-2.16,12.74,12.74,0,0,1-1.419-1.428,1.08,1.08,0,0,1,.226-1.578l1.831-1.249a1.083,1.083,0,0,1,1.418.188,6.706,6.706,0,0,0,.7.667,8.3,8.3,0,0,0,5.278,1.446h.15a5.188,5.188,0,0,0,2.085-.385,3.213,3.213,0,0,0,1.334-1,2.115,2.115,0,0,0,.46-1.287,2.629,2.629,0,0,0-1.221-2.066,7.349,7.349,0,0,0-3.578-1.278,12.685,12.685,0,0,1-3.494-.864,8.844,8.844,0,0,1-2.724-1.681A7.1,7.1,0,0,1,98.2,78.025a5.879,5.879,0,0,1-.583-2.536,5.761,5.761,0,0,1,.695-2.724,6.788,6.788,0,0,1,2.076-2.282,8.714,8.714,0,0,1,3.39-1.362V67.806a1.078,1.078,0,0,1,1.071-1.08h2.207a1.086,1.086,0,0,1,1.08,1.08v1.136a13.948,13.948,0,0,1,3.6.865,16.426,16.426,0,0,1,2,.92,1.089,1.089,0,0,1,.348,1.568l-1.315,1.823a1.071,1.071,0,0,1-1.381.319,12.061,12.061,0,0,0-1.54-.667,8.1,8.1,0,0,0-2.658-.5h-.122a9.365,9.365,0,0,0-2.743.235,4.062,4.062,0,0,0-1.728.827A1.577,1.577,0,0,0,102,75.517a2.264,2.264,0,0,0,1.362,1.925,7.833,7.833,0,0,0,3.165,1h.066a12.3,12.3,0,0,1,4.828,1.541,8.173,8.173,0,0,1,2.883,2.8,6.654,6.654,0,0,1,.93,3.362" fill="#270089"/>
          </g>
        </g>
      </g>
    </g>
    <circle id="Ellipse_125" data-name="Ellipse 125" cx="24.204" cy="24.204" r="24.204" transform="translate(82.06 56.666)" fill="none" stroke="#270089" stroke-miterlimit="10" stroke-width="1"/>
    <path id="Path_12650" data-name="Path 12650" d="M106.264,60.6A20.263,20.263,0,1,1,86,80.87,20.289,20.289,0,0,1,106.264,60.6Z" fill="none" stroke="#270089" stroke-miterlimit="10" stroke-width="1"/>
    <path id="Path_12651" data-name="Path 12651" d="M98.8,90.742a10.829,10.829,0,0,0,4.978,2.16v1.653a1.078,1.078,0,0,0,1.071,1.08h2.207a1.086,1.086,0,0,0,1.08-1.08V93.109a8.65,8.65,0,0,0,3.8-1.268,7.2,7.2,0,0,0,2.451-2.545,6.377,6.377,0,0,0,.845-3.147,6.665,6.665,0,0,0-.929-3.362,8.177,8.177,0,0,0-2.884-2.8,12.28,12.28,0,0,0-4.827-1.54h-.066a7.864,7.864,0,0,1-3.165-1A2.264,2.264,0,0,1,102,75.517a1.577,1.577,0,0,1,.591-1.183,4.078,4.078,0,0,1,1.729-.827,9.389,9.389,0,0,1,2.742-.235h.122a8.117,8.117,0,0,1,2.658.5,12.016,12.016,0,0,1,1.541.667,1.069,1.069,0,0,0,1.38-.319l1.315-1.822a1.09,1.09,0,0,0-.347-1.569,16.373,16.373,0,0,0-2-.92,13.938,13.938,0,0,0-3.6-.864V67.806a1.086,1.086,0,0,0-1.08-1.08h-2.207a1.078,1.078,0,0,0-1.071,1.08v1.315a8.725,8.725,0,0,0-3.391,1.362,6.785,6.785,0,0,0-2.075,2.282,5.749,5.749,0,0,0-.695,2.724,5.892,5.892,0,0,0,.582,2.536,7.089,7.089,0,0,0,1.644,2.207,8.851,8.851,0,0,0,2.723,1.681,12.659,12.659,0,0,0,3.494.864,7.354,7.354,0,0,1,3.579,1.278,2.631,2.631,0,0,1,1.221,2.066,2.116,2.116,0,0,1-.461,1.287,3.216,3.216,0,0,1-1.333,1,5.194,5.194,0,0,1-2.085.385h-.151a8.3,8.3,0,0,1-5.278-1.446,6.694,6.694,0,0,1-.7-.667,1.083,1.083,0,0,0-1.418-.188L97.6,87.736a1.079,1.079,0,0,0-.225,1.578A12.645,12.645,0,0,0,98.8,90.742Z" fill="none" stroke="#270089" stroke-miterlimit="10" stroke-width="1"/>
    <path id="Path_12652" data-name="Path 12652" d="M24.949,12.549l1.5.228a1.94,1.94,0,0,0-.229,1.876,3.107,3.107,0,0,0,1.506,1.4,9.16,9.16,0,0,0,2.735.808,16.7,16.7,0,0,0,3.183.159,20.491,20.491,0,0,0,3.372-.412,18.178,18.178,0,0,0,3.35-1.025,14.241,14.241,0,0,0,2.81-1.541A10.386,10.386,0,0,1,46.5,12.527,7.76,7.76,0,0,1,49.5,12.3a2.777,2.777,0,0,1,1.225.445.927.927,0,0,1,.43.816,1.693,1.693,0,0,1-.658,1.076l-.077.072A9.721,9.721,0,0,1,46,17q-.556.132-1.127.225c-.65.1-1.061.38-.949.649l.458,1.107c.132.316.914.493,1.683.379q1.179-.174,2.364-.438A17.16,17.16,0,0,0,53.5,16.9l1.88.286a2.5,2.5,0,0,0,1.786-.334l1.156-1.065c.312-.287.017-.6-.659-.706l-1.643-.25a2.125,2.125,0,0,0,.547-2.061,3.074,3.074,0,0,0-1.607-1.629,9.958,9.958,0,0,0-3.129-.952,19.265,19.265,0,0,0-4.313-.131,20.869,20.869,0,0,0-4.7.912,15.576,15.576,0,0,0-4.284,2.067l-.031.028A10.213,10.213,0,0,1,35.7,14.419a6.4,6.4,0,0,1-2.9.325,1.56,1.56,0,0,1-1.037-.491.919.919,0,0,1-.035-.982,4.161,4.161,0,0,1,1.168-1.365l.062-.057a7.613,7.613,0,0,1,1.971-1.2q.8-.363,1.563-.628c.539-.187.7-.495.361-.724l-1.39-.948a2.653,2.653,0,0,0-1.961-.1q-1.038.343-2.1.807a15.04,15.04,0,0,0-2.865,1.591l-1.3-.2a2.5,2.5,0,0,0-1.787.334L24.29,11.843c-.311.287-.016.6.659.706" fill="#270089"/>
    <path id="Path_12653" data-name="Path 12653" d="M24.949,12.549l1.5.228a1.94,1.94,0,0,0-.229,1.876,3.107,3.107,0,0,0,1.506,1.4,9.16,9.16,0,0,0,2.735.808,16.7,16.7,0,0,0,3.183.159,20.491,20.491,0,0,0,3.372-.412,18.178,18.178,0,0,0,3.35-1.025,14.241,14.241,0,0,0,2.81-1.541A10.386,10.386,0,0,1,46.5,12.527,7.76,7.76,0,0,1,49.5,12.3a2.777,2.777,0,0,1,1.225.445.927.927,0,0,1,.43.816,1.693,1.693,0,0,1-.658,1.076l-.077.072A9.721,9.721,0,0,1,46,17q-.556.132-1.127.225c-.65.1-1.061.38-.949.649l.458,1.107c.132.316.914.493,1.683.379q1.179-.174,2.364-.438A17.16,17.16,0,0,0,53.5,16.9l1.88.286a2.5,2.5,0,0,0,1.786-.334l1.156-1.065c.312-.287.017-.6-.659-.706l-1.643-.25a2.125,2.125,0,0,0,.547-2.061,3.074,3.074,0,0,0-1.607-1.629,9.958,9.958,0,0,0-3.129-.952,19.265,19.265,0,0,0-4.313-.131,20.869,20.869,0,0,0-4.7.912,15.576,15.576,0,0,0-4.284,2.067l-.031.028A10.213,10.213,0,0,1,35.7,14.419a6.4,6.4,0,0,1-2.9.325,1.56,1.56,0,0,1-1.037-.491.919.919,0,0,1-.035-.982,4.161,4.161,0,0,1,1.168-1.365l.062-.057a7.613,7.613,0,0,1,1.971-1.2q.8-.363,1.563-.628c.539-.187.7-.495.361-.724l-1.39-.948a2.653,2.653,0,0,0-1.961-.1q-1.038.343-2.1.807a15.04,15.04,0,0,0-2.865,1.591l-1.3-.2a2.5,2.5,0,0,0-1.787.334L24.29,11.843C23.979,12.13,24.274,12.446,24.949,12.549Z" fill="none" stroke="#270089" stroke-miterlimit="10" stroke-width="1"/>
  </g>
</svg>
