<svg id="Group_2268" data-name="Group 2268" xmlns="http://www.w3.org/2000/svg" xmlns:xlink="http://www.w3.org/1999/xlink" width="209.098" height="169.876" viewBox="0 0 209.098 169.876">
  <defs>
    <clipPath id="clip-path">
      <rect id="Rectangle_1144" data-name="Rectangle 1144" width="209.098" height="169.876" fill="none"/>
    </clipPath>
    <clipPath id="clip-path-2">
      <rect id="Rectangle_1133" data-name="Rectangle 1133" width="208.483" height="169.26" fill="none"/>
    </clipPath>
  </defs>
  <g id="Group_2267" data-name="Group 2267" clip-path="url(#clip-path)">
    <g id="Group_2266" data-name="Group 2266" transform="translate(0.307 0.309)">
      <g id="Group_2265" data-name="Group 2265" clip-path="url(#clip-path-2)">
        <g id="Group_2264" data-name="Group 2264">
          <g id="Group_2263" data-name="Group 2263" clip-path="url(#clip-path-2)">
            <path id="Path_12509" data-name="Path 12509" d="M208.49,83.633a2.249,2.249,0,0,1-1.119,3.086c-.049.025-.111.049-.172.086a6.524,6.524,0,0,0-2.89,8.767.384.384,0,0,1,.061.123,2.285,2.285,0,0,1-.922,3.16l-85.276,43a.368.368,0,0,1-.1.049A51.7,51.7,0,1,1,32.405,84.961c-.664.615-1.328,1.267-1.967,1.943-9.8,10.366-13.92,25.22-12.223,44.144.1,1.082.258,2.385.455,3.91,1.119,8.829,2.8,22.17-3.714,29.573-2.914,3.308-7.1,4.98-12.444,4.98a2.256,2.256,0,1,1,0-4.513c4.046,0,7.009-1.131,9.062-3.455,5.164-5.865,3.566-18.481,2.619-26.019-.209-1.562-.369-2.914-.48-4.07-1.451-16.268,1.18-29.806,7.821-40.394a2.261,2.261,0,0,1-1.23-1.082L16.334,82.12a2.274,2.274,0,0,1,1.119-3.086c.061-.025.111-.061.172-.086a6.534,6.534,0,0,0,2.914-8.718A2.265,2.265,0,0,1,21.547,67.2L153.832.5a2.248,2.248,0,0,1,3.025.984,6.556,6.556,0,0,0,8.743,2.84,1.124,1.124,0,0,1,.172-.086,2.234,2.234,0,0,1,1.771-.221A2.259,2.259,0,0,1,168.92,5.17l3.959,7.845A2.24,2.24,0,0,1,171.76,16.1c-.049.025-.111.061-.172.086a6.527,6.527,0,1,0,5.878,11.657.751.751,0,0,0,.172-.086,2.266,2.266,0,0,1,3.148.935l3.959,7.87a2.256,2.256,0,0,1-1.107,3.086.751.751,0,0,0-.172.086,6.521,6.521,0,0,0-2.89,8.767,6.534,6.534,0,0,0,8.767,2.89c.061-.037.111-.061.16-.086a2.21,2.21,0,0,1,1.783-.209,2.273,2.273,0,0,1,1.377,1.144l3.959,7.857a2.274,2.274,0,0,1-1.119,3.086c-.061.025-.111.049-.172.074a6.533,6.533,0,0,0,5.878,11.669c.061-.037.123-.061.172-.086a2.234,2.234,0,0,1,1.771-.221,2.3,2.3,0,0,1,1.377,1.156Zm-4.968.16-2.078-4.119a11.046,11.046,0,0,1-9.8-19.416l-2.078-4.119a11.043,11.043,0,0,1-9.788-19.416L177.7,32.6A11.074,11.074,0,0,1,164.665,27,11.084,11.084,0,0,1,167.9,13.187l-2.066-4.119a11.122,11.122,0,0,1-11.768-3.64L139.052,13l.725,1.451a2.25,2.25,0,0,1-1,3.025,2.189,2.189,0,0,1-1.021.246,2.269,2.269,0,0,1-2.017-1.242l-.725-1.451L25.372,70.341a11.1,11.1,0,0,1-4.058,11.608l2.078,4.119c.012,0,.037-.012.049-.012a2.267,2.267,0,0,1,1.611.135c.676-.824,1.389-1.635,2.127-2.41,17.485-18.469,44.845-17.744,46-17.707.037,0,.061.012.086.012a51.724,51.724,0,0,1,47.7,69.315l59.6-30.065-.541-1.057a2.263,2.263,0,0,1,.725-2.865c.086-.049.184-.111.283-.16a2.239,2.239,0,0,1,3.025,1l.541,1.057,14.952-7.538a11.036,11.036,0,0,1,3.972-11.977m-83.984,34A47.257,47.257,0,0,0,72.331,70.586c-.713,0-1.426.025-2.127.061-.2.012-.406.012-.627.025a47.2,47.2,0,1,0,49.96,47.12" transform="translate(-0.25 -0.251)" fill="#270089"/>
            <path id="Path_12510" data-name="Path 12510" d="M175.763,78.707l2.078,4.119A11.036,11.036,0,0,0,173.869,94.8l-14.952,7.538-.541-1.057a2.239,2.239,0,0,0-3.025-1c-.1.049-.2.111-.283.16l-1.66-1.746a2.189,2.189,0,0,0,1.021-.246,2.25,2.25,0,0,0,1-3.025l-2.951-5.853a2.253,2.253,0,0,0-3.037-1c-.1.049-.2.111-.283.16l-1.648-1.746a2.189,2.189,0,0,0,1.021-.246,2.25,2.25,0,0,0,1-3.025l-2.951-5.853a2.253,2.253,0,0,0-3.037-1c-.1.049-.2.111-.283.16L141.6,75.288a2.189,2.189,0,0,0,1.021-.246,2.26,2.26,0,0,0,1-3.025l-2.951-5.853a2.253,2.253,0,0,0-3.037-1c-.1.049-.2.111-.283.16L135.7,63.582a2.107,2.107,0,0,0,1.008-.246,2.254,2.254,0,0,0,1.008-3.025l-2.951-5.853a2.253,2.253,0,0,0-3.037-1c-.1.049-.2.111-.283.16L129.8,51.876a2.107,2.107,0,0,0,1.008-.246,2.239,2.239,0,0,0,1-3.025l-2.951-5.853a2.239,2.239,0,0,0-3.025-1c-.1.049-.2.111-.283.16L123.9,40.17a2.141,2.141,0,0,0,1.008-.246,2.239,2.239,0,0,0,1-3.025l-2.951-5.853a2.239,2.239,0,0,0-3.025-1c-.1.049-.2.111-.283.16l-1.66-1.746A2.189,2.189,0,0,0,119,28.218a2.25,2.25,0,0,0,1-3.025l-2.951-5.853a2.242,2.242,0,0,0-3.025-1c-.1.049-.2.111-.283.16l-1.66-1.746a2.189,2.189,0,0,0,1.021-.246,2.25,2.25,0,0,0,1-3.025l-.725-1.451,15.014-7.575A11.122,11.122,0,0,0,140.153,8.1l2.066,4.119a11.084,11.084,0,0,0-3.234,13.809,11.074,11.074,0,0,0,13.034,5.607l2.078,4.119a11.042,11.042,0,0,0,9.788,19.416l2.078,4.119a11.045,11.045,0,0,0,9.8,19.416" transform="translate(25.431 0.716)" fill="#fff"/>
            <path id="Path_12511" data-name="Path 12511" d="M148.679,79.766a2.25,2.25,0,0,1-1,3.025,2.189,2.189,0,0,1-1.021.246,2.269,2.269,0,0,1-2.017-1.242l-2.951-5.853a2.273,2.273,0,0,1,.713-2.865c.086-.049.184-.111.283-.16a2.253,2.253,0,0,1,3.037,1Z" transform="translate(32.176 16.38)" fill="#270089"/>
            <path id="Path_12512" data-name="Path 12512" d="M175.155,96.907l1.66,1.746a2.263,2.263,0,0,0-.725,2.865l.541,1.057-59.6,30.065a51.724,51.724,0,0,0-47.7-69.315c-.025,0-.049-.012-.086-.012-1.156-.037-28.515-.762-46,17.707-.738.775-1.451,1.586-2.127,2.41a2.267,2.267,0,0,0-1.611-.135c-.012,0-.037.012-.049.012L17.38,79.188A11.1,11.1,0,0,0,21.438,67.58L131.085,12.271l.725,1.451a2.269,2.269,0,0,0,2.017,1.242l1.66,1.746a2.263,2.263,0,0,0-.725,2.865l2.951,5.853a2.269,2.269,0,0,0,2.017,1.242l1.66,1.746a2.263,2.263,0,0,0-.725,2.865l2.963,5.853a2.241,2.241,0,0,0,2.017,1.242l1.648,1.746a2.245,2.245,0,0,0-.713,2.865l2.951,5.853a2.255,2.255,0,0,0,2.017,1.242l1.648,1.746a2.245,2.245,0,0,0-.713,2.865l2.951,5.853a2.255,2.255,0,0,0,2.017,1.242l1.648,1.746a2.259,2.259,0,0,0-.713,2.865l2.951,5.853a2.255,2.255,0,0,0,2.017,1.242L165,75.241a2.259,2.259,0,0,0-.713,2.865l2.951,5.853a2.255,2.255,0,0,0,2.017,1.242l1.648,1.746a2.273,2.273,0,0,0-.713,2.865l2.951,5.853a2.269,2.269,0,0,0,2.017,1.242" transform="translate(3.684 2.509)" fill="#fff"/>
            <path id="Path_12513" data-name="Path 12513" d="M143.88,70.246a2.25,2.25,0,0,1-1,3.025,2.189,2.189,0,0,1-1.021.246,2.255,2.255,0,0,1-2.017-1.242L136.9,66.422a2.259,2.259,0,0,1,.713-2.865c.086-.049.184-.111.283-.16a2.253,2.253,0,0,1,3.037,1Z" transform="translate(31.073 14.193)" fill="#270089"/>
            <path id="Path_12514" data-name="Path 12514" d="M139.08,60.726a2.26,2.26,0,0,1-1,3.025,2.189,2.189,0,0,1-1.021.246,2.255,2.255,0,0,1-2.017-1.242L132.1,56.9a2.259,2.259,0,0,1,.713-2.865c.086-.049.184-.111.283-.16a2.253,2.253,0,0,1,3.037,1Z" transform="translate(29.971 12.007)" fill="#270089"/>
            <path id="Path_12515" data-name="Path 12515" d="M134.28,51.206a2.254,2.254,0,0,1-1.008,3.025,2.107,2.107,0,0,1-1.008.246,2.255,2.255,0,0,1-2.017-1.242L127.3,47.382a2.245,2.245,0,0,1,.713-2.865c.086-.049.184-.111.283-.16a2.253,2.253,0,0,1,3.037,1Z" transform="translate(28.868 9.821)" fill="#270089"/>
            <path id="Path_12516" data-name="Path 12516" d="M129.468,41.686a2.239,2.239,0,0,1-1,3.025,2.107,2.107,0,0,1-1.008.246,2.255,2.255,0,0,1-2.017-1.242L122.5,37.862A2.245,2.245,0,0,1,123.209,35c.086-.049.184-.111.283-.16a2.239,2.239,0,0,1,3.025,1Z" transform="translate(27.766 7.635)" fill="#270089"/>
            <path id="Path_12517" data-name="Path 12517" d="M124.669,32.166a2.239,2.239,0,0,1-1,3.025,2.141,2.141,0,0,1-1.008.246,2.241,2.241,0,0,1-2.017-1.242l-2.963-5.853a2.263,2.263,0,0,1,.725-2.865c.086-.049.184-.111.283-.16a2.239,2.239,0,0,1,3.025,1Z" transform="translate(26.663 5.449)" fill="#270089"/>
            <path id="Path_12518" data-name="Path 12518" d="M119.869,22.646a2.25,2.25,0,0,1-1,3.025,2.189,2.189,0,0,1-1.021.246,2.269,2.269,0,0,1-2.017-1.242l-2.951-5.853a2.263,2.263,0,0,1,.725-2.865c.086-.049.184-.111.283-.16a2.242,2.242,0,0,1,3.025,1Z" transform="translate(25.561 3.262)" fill="#270089"/>
            <path id="Path_12519" data-name="Path 12519" d="M94.894,78.816a12.808,12.808,0,1,1-17.5-4.685,12.833,12.833,0,0,1,17.5,4.685M87.947,92.4a8.289,8.289,0,1,0-11.325-3.037A8.3,8.3,0,0,0,87.947,92.4" transform="translate(15.995 16.322)" fill="#270089"/>
            <path id="Path_12520" data-name="Path 12520" d="M90.208,100.161a12.8,12.8,0,1,1-17.5,4.685,12.816,12.816,0,0,1,17.5-4.685m.775,15.235a8.294,8.294,0,1,0-11.325,3.025A8.3,8.3,0,0,0,90.982,115.4" transform="translate(15.996 22.299)" fill="#270089"/>
            <path id="Path_12521" data-name="Path 12521" d="M90.14,80.235a8.3,8.3,0,1,1-7.193-4.144,8.3,8.3,0,0,1,7.193,4.144" transform="translate(16.839 17.165)" fill="#fff"/>
            <path id="Path_12522" data-name="Path 12522" d="M87.1,103.229a8.286,8.286,0,1,1-11.325,3.025A8.3,8.3,0,0,1,87.1,103.229" transform="translate(16.839 23.141)" fill="#fff"/>
            <path id="Path_12523" data-name="Path 12523" d="M67.686,57.451a47.306,47.306,0,1,1-2.754.086c.221-.012.43-.012.627-.025.7-.037,1.414-.061,2.127-.061m34.123,42.3a12.822,12.822,0,1,0-6.382,1.709,12.833,12.833,0,0,0,6.382-1.709m4.685,27.31a12.8,12.8,0,1,0-11.116,6.406,12.816,12.816,0,0,0,11.116-6.406M80.486,72.649a12.8,12.8,0,1,0-12.8,12.813,12.815,12.815,0,0,0,12.8-12.813m0,64.015a12.8,12.8,0,1,0-12.8,12.8,12.815,12.815,0,0,0,12.8-12.8m-2.545-32.008a10.255,10.255,0,1,0-10.255,10.255,10.265,10.265,0,0,0,10.255-10.255m-26.88-9.6a12.808,12.808,0,1,0-11.116,6.406,12.816,12.816,0,0,0,11.116-6.406m-4.685,36.692a12.714,12.714,0,1,0-6.382,1.721,12.816,12.816,0,0,0,6.382-1.721" transform="translate(4.396 12.884)" fill="#ef8933"/>
            <path id="Path_12524" data-name="Path 12524" d="M61.261,59.4a12.807,12.807,0,1,1-12.8,12.8,12.815,12.815,0,0,1,12.8-12.8m8.288,12.8a8.288,8.288,0,1,0-8.288,8.3,8.3,8.3,0,0,0,8.288-8.3" transform="translate(10.821 13.332)" fill="#270089"/>
            <path id="Path_12525" data-name="Path 12525" d="M61.261,111.461a12.8,12.8,0,1,1-12.8,12.8,12.815,12.815,0,0,1,12.8-12.8m8.288,12.8a8.288,8.288,0,1,0-8.288,8.288,8.292,8.292,0,0,0,8.288-8.288" transform="translate(10.821 25.287)" fill="#270089"/>
            <path id="Path_12526" data-name="Path 12526" d="M60.785,87.5A10.255,10.255,0,1,1,50.53,97.756,10.265,10.265,0,0,1,60.785,87.5m5.742,10.255a5.742,5.742,0,1,0-5.742,5.742,5.749,5.749,0,0,0,5.742-5.742" transform="translate(11.296 19.785)" fill="#270089"/>
            <path id="Path_12527" data-name="Path 12527" d="M60.418,63.071a8.294,8.294,0,1,1-8.288,8.288,8.3,8.3,0,0,1,8.288-8.288" transform="translate(11.664 14.175)" fill="#fff"/>
            <path id="Path_12528" data-name="Path 12528" d="M60.418,115.131a8.288,8.288,0,1,1-8.288,8.288,8.292,8.292,0,0,1,8.288-8.288" transform="translate(11.664 26.13)" fill="#fff"/>
            <path id="Path_12529" data-name="Path 12529" d="M59.942,91.171A5.742,5.742,0,1,1,54.2,96.913a5.749,5.749,0,0,1,5.742-5.742" transform="translate(12.139 20.628)" fill="#fff"/>
            <path id="Path_12530" data-name="Path 12530" d="M45.127,74.132a12.818,12.818,0,1,1-9.714-1.279,12.816,12.816,0,0,1,9.714,1.279M45.9,89.368a8.3,8.3,0,0,0-3.037-11.325A8.3,8.3,0,0,0,31.54,81.08,8.291,8.291,0,0,0,45.9,89.368" transform="translate(5.644 16.32)" fill="#270089"/>
            <path id="Path_12531" data-name="Path 12531" d="M49.812,104.846a12.806,12.806,0,1,1-17.485-4.685,12.816,12.816,0,0,1,17.485,4.685m-6.947,13.575a8.285,8.285,0,1,0-6.283.836,8.3,8.3,0,0,0,6.283-.836" transform="translate(5.644 22.299)" fill="#270089"/>
            <path id="Path_12532" data-name="Path 12532" d="M42.022,77.2a8.3,8.3,0,1,1-6.283-.824,8.2,8.2,0,0,1,6.283.824" transform="translate(6.487 17.164)" fill="#fff"/>
            <path id="Path_12533" data-name="Path 12533" d="M45.059,106.254a8.294,8.294,0,1,1-11.325-3.025,8.3,8.3,0,0,1,11.325,3.025" transform="translate(6.487 23.141)" fill="#fff"/>
          </g>
        </g>
      </g>
    </g>
    <path id="Path_12534" data-name="Path 12534" d="M123.209,35a2.245,2.245,0,0,0-.713,2.865l2.951,5.853a2.255,2.255,0,0,0,2.017,1.242,2.107,2.107,0,0,0,1.008-.246,2.239,2.239,0,0,0,1-3.025l-2.951-5.853a2.239,2.239,0,0,0-3.025-1C123.394,34.886,123.3,34.948,123.209,35Z" transform="translate(28.073 7.943)" fill="none" stroke="#270089" stroke-miterlimit="10" stroke-width="0.5"/>
    <path id="Path_12535" data-name="Path 12535" d="M118.41,25.477a2.263,2.263,0,0,0-.725,2.865l2.963,5.853a2.241,2.241,0,0,0,2.017,1.242,2.141,2.141,0,0,0,1.008-.246,2.239,2.239,0,0,0,1-3.025l-2.951-5.853a2.239,2.239,0,0,0-3.025-1C118.594,25.366,118.5,25.428,118.41,25.477Z" transform="translate(26.97 5.757)" fill="none" stroke="#270089" stroke-miterlimit="10" stroke-width="0.5"/>
    <path id="Path_12536" data-name="Path 12536" d="M113.61,15.957a2.263,2.263,0,0,0-.725,2.865l2.951,5.853a2.269,2.269,0,0,0,2.017,1.242,2.189,2.189,0,0,0,1.021-.246,2.25,2.25,0,0,0,1-3.025l-2.951-5.853a2.242,2.242,0,0,0-3.025-1C113.794,15.846,113.7,15.908,113.61,15.957Z" transform="translate(25.868 3.571)" fill="none" stroke="#270089" stroke-miterlimit="10" stroke-width="0.5"/>
    <path id="Path_12537" data-name="Path 12537" d="M128.009,44.517a2.245,2.245,0,0,0-.713,2.865l2.951,5.853a2.255,2.255,0,0,0,2.017,1.242,2.107,2.107,0,0,0,1.008-.246,2.254,2.254,0,0,0,1.008-3.025l-2.951-5.853a2.253,2.253,0,0,0-3.037-1C128.194,44.406,128.1,44.468,128.009,44.517Z" transform="translate(29.176 10.13)" fill="none" stroke="#270089" stroke-miterlimit="10" stroke-width="0.5"/>
    <path id="Path_12538" data-name="Path 12538" d="M132.809,54.037A2.259,2.259,0,0,0,132.1,56.9l2.951,5.853A2.255,2.255,0,0,0,137.063,64a2.189,2.189,0,0,0,1.021-.246,2.26,2.26,0,0,0,1-3.025l-2.951-5.853a2.253,2.253,0,0,0-3.037-1C132.993,53.926,132.895,53.988,132.809,54.037Z" transform="translate(30.278 12.316)" fill="none" stroke="#270089" stroke-miterlimit="10" stroke-width="0.5"/>
    <path id="Path_12539" data-name="Path 12539" d="M146.662,83.037a2.189,2.189,0,0,0,1.021-.246,2.25,2.25,0,0,0,1-3.025l-2.951-5.853a2.253,2.253,0,0,0-3.037-1c-.1.049-.2.111-.283.16a2.273,2.273,0,0,0-.713,2.865l2.951,5.853A2.269,2.269,0,0,0,146.662,83.037Z" transform="translate(32.484 16.688)" fill="none" stroke="#270089" stroke-miterlimit="10" stroke-width="0.5"/>
    <path id="Path_12540" data-name="Path 12540" d="M141.863,73.517a2.189,2.189,0,0,0,1.021-.246,2.25,2.25,0,0,0,1-3.025l-2.951-5.853a2.253,2.253,0,0,0-3.037-1c-.1.049-.2.111-.283.16a2.259,2.259,0,0,0-.713,2.865l2.951,5.853A2.255,2.255,0,0,0,141.863,73.517Z" transform="translate(31.381 14.502)" fill="none" stroke="#270089" stroke-miterlimit="10" stroke-width="0.5"/>
    <path id="Path_12541" data-name="Path 12541" d="M208.49,83.633l-3.959-7.857a2.3,2.3,0,0,0-1.377-1.156,2.234,2.234,0,0,0-1.771.221c-.049.025-.111.049-.172.086a6.533,6.533,0,0,1-5.878-11.669c.061-.025.111-.049.172-.074a2.274,2.274,0,0,0,1.119-3.086l-3.959-7.857a2.273,2.273,0,0,0-1.377-1.144,2.21,2.21,0,0,0-1.783.209c-.049.025-.1.049-.16.086a6.527,6.527,0,1,1-5.878-11.657.751.751,0,0,1,.172-.086,2.256,2.256,0,0,0,1.107-3.086l-3.959-7.87a2.266,2.266,0,0,0-3.148-.935.751.751,0,0,1-.172.086,6.527,6.527,0,0,1-5.878-11.657c.061-.025.123-.061.172-.086a2.24,2.24,0,0,0,1.119-3.086L168.92,5.17a2.259,2.259,0,0,0-1.377-1.156,2.234,2.234,0,0,0-1.771.221,1.124,1.124,0,0,0-.172.086,6.556,6.556,0,0,1-8.743-2.84A2.248,2.248,0,0,0,153.832.5L21.547,67.2a2.265,2.265,0,0,0-1.008,3.025,6.534,6.534,0,0,1-2.914,8.718c-.061.025-.111.061-.172.086a2.274,2.274,0,0,0-1.119,3.086l3.972,7.857a2.261,2.261,0,0,0,1.23,1.082c-6.64,10.587-9.271,24.126-7.821,40.394.111,1.156.271,2.508.48,4.07.947,7.538,2.545,20.154-2.619,26.019C9.521,163.867,6.558,165,2.513,165a2.256,2.256,0,1,0,0,4.513c5.349,0,9.53-1.672,12.444-4.98,6.517-7.4,4.832-20.744,3.714-29.573-.2-1.525-.357-2.828-.455-3.91-1.7-18.924,2.422-33.778,12.223-44.144.639-.676,1.3-1.328,1.967-1.943a51.7,51.7,0,1,0,85.669,56.945.368.368,0,0,0,.1-.049l85.276-43a2.285,2.285,0,0,0,.922-3.16.384.384,0,0,0-.061-.123,6.524,6.524,0,0,1,2.89-8.767c.061-.037.123-.061.172-.086a2.249,2.249,0,0,0,1.119-3.086Z" transform="translate(0.057 0.058)" fill="none" stroke="#270089" stroke-miterlimit="10" stroke-width="0.5"/>
    <path id="Path_12542" data-name="Path 12542" d="M67.686,151.863a47.2,47.2,0,0,1-2.754-94.326c.221-.012.43-.012.627-.025.7-.037,1.414-.061,2.127-.061a47.206,47.206,0,0,1,0,94.412Z" transform="translate(4.703 13.193)" fill="none" stroke="#270089" stroke-miterlimit="10" stroke-width="0.5"/>
    <path id="Path_12543" data-name="Path 12543" d="M133.827,16.757a2.189,2.189,0,0,0,1.021-.246,2.25,2.25,0,0,0,1-3.025l-.725-1.451,15.014-7.575A11.122,11.122,0,0,0,161.9,8.1l2.066,4.119a11.084,11.084,0,0,0-3.234,13.809,11.074,11.074,0,0,0,13.034,5.607l2.078,4.119a11.042,11.042,0,0,0,9.788,19.416l2.078,4.119a11.045,11.045,0,0,0,9.8,19.416l2.078,4.119A11.036,11.036,0,0,0,195.616,94.8l-14.952,7.538-.541-1.057a2.239,2.239,0,0,0-3.025-1c-.1.049-.2.111-.283.16a2.263,2.263,0,0,0-.725,2.865l.541,1.057-59.6,30.065a51.724,51.724,0,0,0-47.7-69.315c-.025,0-.049-.012-.086-.012-1.156-.037-28.515-.762-46,17.707-.738.775-1.451,1.586-2.127,2.41a2.267,2.267,0,0,0-1.611-.135c-.012,0-.037.012-.049.012L17.38,80.981a11.1,11.1,0,0,0,4.058-11.608L131.085,14.064l.725,1.451A2.269,2.269,0,0,0,133.827,16.757Z" transform="translate(3.991 1.024)" fill="none" stroke="#270089" stroke-miterlimit="10" stroke-width="0.5"/>
    <circle id="Ellipse_121" data-name="Ellipse 121" cx="10.255" cy="10.255" r="10.255" transform="translate(62.134 107.595)" fill="none" stroke="#270089" stroke-miterlimit="10" stroke-width="0.5"/>
    <circle id="Ellipse_122" data-name="Ellipse 122" cx="5.742" cy="5.742" r="5.742" transform="translate(66.646 112.107)" fill="none" stroke="#270089" stroke-miterlimit="10" stroke-width="0.5"/>
    <path id="Path_12544" data-name="Path 12544" d="M61.261,59.4a12.807,12.807,0,1,0,12.8,12.8A12.815,12.815,0,0,0,61.261,59.4Z" transform="translate(11.128 13.641)" fill="none" stroke="#270089" stroke-miterlimit="10" stroke-width="0.5"/>
    <path id="Path_12545" data-name="Path 12545" d="M60.418,79.659a8.294,8.294,0,1,1,8.288-8.3A8.3,8.3,0,0,1,60.418,79.659Z" transform="translate(11.971 14.484)" fill="none" stroke="#270089" stroke-miterlimit="10" stroke-width="0.5"/>
    <circle id="Ellipse_123" data-name="Ellipse 123" cx="12.801" cy="12.801" r="12.801" transform="translate(59.588 137.057)" fill="none" stroke="#270089" stroke-miterlimit="10" stroke-width="0.5"/>
    <circle id="Ellipse_124" data-name="Ellipse 124" cx="8.288" cy="8.288" r="8.288" transform="translate(64.101 141.57)" fill="none" stroke="#270089" stroke-miterlimit="10" stroke-width="0.5"/>
    <path id="Path_12546" data-name="Path 12546" d="M32.327,100.161a12.8,12.8,0,1,0,17.485,4.685A12.809,12.809,0,0,0,32.327,100.161Z" transform="translate(5.952 22.608)" fill="none" stroke="#270089" stroke-miterlimit="10" stroke-width="0.5"/>
    <path id="Path_12547" data-name="Path 12547" d="M42.022,117.579a8.286,8.286,0,1,1,3.037-11.325A8.256,8.256,0,0,1,42.022,117.579Z" transform="translate(6.795 23.45)" fill="none" stroke="#270089" stroke-miterlimit="10" stroke-width="0.5"/>
    <path id="Path_12548" data-name="Path 12548" d="M83.827,98.023a12.808,12.808,0,1,0-11.116-6.406A12.813,12.813,0,0,0,83.827,98.023Z" transform="translate(16.302 16.63)" fill="none" stroke="#270089" stroke-miterlimit="10" stroke-width="0.5"/>
    <path id="Path_12549" data-name="Path 12549" d="M74.954,82.227a8.289,8.289,0,1,1,.824,6.3A8.237,8.237,0,0,1,74.954,82.227Z" transform="translate(17.146 17.474)" fill="none" stroke="#270089" stroke-miterlimit="10" stroke-width="0.5"/>
    <path id="Path_12550" data-name="Path 12550" d="M90.208,100.161a12.8,12.8,0,1,0,4.685,17.485A12.827,12.827,0,0,0,90.208,100.161Z" transform="translate(16.304 22.608)" fill="none" stroke="#270089" stroke-miterlimit="10" stroke-width="0.5"/>
    <path id="Path_12551" data-name="Path 12551" d="M90.139,114.554A8.294,8.294,0,1,1,87.1,103.229,8.306,8.306,0,0,1,90.139,114.554Z" transform="translate(17.147 23.45)" fill="none" stroke="#270089" stroke-miterlimit="10" stroke-width="0.5"/>
    <path id="Path_12552" data-name="Path 12552" d="M45.127,74.132a12.8,12.8,0,1,0,4.685,17.485A12.724,12.724,0,0,0,45.127,74.132Z" transform="translate(5.952 16.629)" fill="none" stroke="#270089" stroke-miterlimit="10" stroke-width="0.5"/>
    <path id="Path_12553" data-name="Path 12553" d="M45.059,88.524a8.291,8.291,0,1,1-9.321-12.149,8.2,8.2,0,0,1,6.283.824A8.3,8.3,0,0,1,45.059,88.524Z" transform="translate(6.795 17.472)" fill="none" stroke="#270089" stroke-miterlimit="10" stroke-width="0.5"/>
    <rect id="Rectangle_1134" data-name="Rectangle 1134" width="18.499" height="3.421" transform="translate(128.679 67.488) rotate(-27.394)" fill="#270089"/>
    <rect id="Rectangle_1135" data-name="Rectangle 1135" width="18.5" height="6.842" transform="matrix(0.888, -0.46, 0.46, 0.888, 125.007, 60.399)" fill="#270089"/>
    <rect id="Rectangle_1136" data-name="Rectangle 1136" width="18.5" height="15.963" transform="translate(113.469 38.124) rotate(-27.382)" fill="#270089"/>
    <rect id="Rectangle_1137" data-name="Rectangle 1137" width="18.499" height="5.701" transform="translate(121.336 53.312) rotate(-27.389)" fill="#270089"/>
    <rect id="Rectangle_1138" data-name="Rectangle 1138" width="18.499" height="11.402" transform="translate(132.349 74.575) rotate(-27.383)" fill="#270089"/>
    <rect id="Rectangle_1139" data-name="Rectangle 1139" width="18.499" height="5.131" transform="matrix(0.888, -0.46, 0.46, 0.888, 110.585, 32.555)" fill="#270089"/>
    <rect id="Rectangle_1140" data-name="Rectangle 1140" width="18.5" height="5.131" transform="translate(150.18 109) rotate(-27.381)" fill="#270089"/>
    <rect id="Rectangle_1141" data-name="Rectangle 1141" width="18.499" height="9.122" transform="matrix(0.888, -0.46, 0.46, 0.888, 144.936, 98.875)" fill="#270089"/>
    <rect id="Rectangle_1142" data-name="Rectangle 1142" width="18.5" height="2.28" transform="translate(143.363 95.837) rotate(-27.38)" fill="#270089"/>
    <rect id="Rectangle_1143" data-name="Rectangle 1143" width="18.5" height="6.842" transform="matrix(0.888, -0.46, 0.46, 0.888, 138.118, 85.711)" fill="#270089"/>
  </g>
</svg>
