<svg id="Group_2114" data-name="Group 2114" xmlns="http://www.w3.org/2000/svg" xmlns:xlink="http://www.w3.org/1999/xlink" width="211.337" height="173.7" viewBox="0 0 211.337 173.7">
  <defs>
    <clipPath id="clip-path">
      <rect id="Rectangle_1038" data-name="Rectangle 1038" width="211.337" height="173.7" fill="none"/>
    </clipPath>
    <clipPath id="clip-path-2">
      <rect id="Rectangle_1035" data-name="Rectangle 1035" width="52.951" height="78.297" fill="none"/>
    </clipPath>
    <clipPath id="clip-path-4">
      <rect id="Rectangle_1037" data-name="Rectangle 1037" width="34.084" height="34.084" fill="none"/>
    </clipPath>
    <clipPath id="clip-path-7">
      <rect id="Rectangle_1040" data-name="Rectangle 1040" width="209.059" height="81.995" fill="none"/>
    </clipPath>
  </defs>
  <g id="Group_2107" data-name="Group 2107">
    <g id="Group_2106" data-name="Group 2106" clip-path="url(#clip-path)">
      <g id="Group_2101" data-name="Group 2101" transform="translate(68.514 0.683)">
        <g id="Group_2100" data-name="Group 2100" clip-path="url(#clip-path-2)">
          <g id="Group_2099" data-name="Group 2099">
            <g id="Group_2098" data-name="Group 2098" clip-path="url(#clip-path-2)">
              <path id="Path_12170" data-name="Path 12170" d="M127.895,23.749c1.348,8.553-2.487,14.31-6.185,19.875-.765,1.148-1.548,2.332-2.3,3.543l-.556.893c-4.135,6.686-11.832,19.137-14.51,29a2.7,2.7,0,0,1-5.219-.027C96.807,68.117,90.176,57.2,85.8,49.982c-.747-1.23-1.43-2.359-2.04-3.379-.51-.856-1.157-1.84-1.84-2.869-2.824-4.254-6.695-10.083-6.695-16.5A26.572,26.572,0,0,1,101.325.759c.128-.009.246-.009.373-.009,13.1,0,24.092,9.619,26.2,23m-9.036,17.98c3.643-5.483,6.786-10.211,5.647-17.443-1.84-11.7-11.4-20.112-22.817-20.112-.1,0-.209,0-.319.009A23.125,23.125,0,0,0,78.645,27.229c0,5.392,3.4,10.5,6.121,14.61.71,1.075,1.385,2.086,1.931,3.015.6,1.011,1.293,2.141,2.031,3.352,4.108,6.786,10.156,16.742,13.025,25.6,3.252-9.855,10.284-21.223,14.2-27.553l.547-.893c.774-1.257,1.576-2.468,2.359-3.634" transform="translate(-75.22 -0.75)" fill="#270089"/>
              <path id="Path_12171" data-name="Path 12171" d="M124.842,24.622c1.139,7.232-2,11.96-5.647,17.443-.783,1.166-1.585,2.377-2.359,3.634l-.547.893c-3.917,6.33-10.948,17.7-14.2,27.553-2.869-8.863-8.917-18.818-13.025-25.6-.738-1.211-1.43-2.341-2.031-3.352-.547-.929-1.221-1.94-1.931-3.015-2.723-4.108-6.121-9.218-6.121-14.61A23.125,23.125,0,0,1,101.706,4.519c.109-.009.219-.009.319-.009,11.413,0,20.977,8.407,22.817,20.112" transform="translate(-75.555 -1.085)" fill="#ef8933"/>
            </g>
          </g>
        </g>
      </g>
      <path id="Path_12172" data-name="Path 12172" d="M83.755,46.6c.61,1.02,1.293,2.15,2.04,3.379C90.176,57.2,96.807,68.117,99.13,77.034a2.7,2.7,0,0,0,5.219.027c2.678-9.865,10.375-22.316,14.51-29l.556-.893c.747-1.211,1.53-2.4,2.3-3.543,3.7-5.565,7.533-11.322,6.185-19.875-2.1-13.38-13.1-23-26.2-23-.128,0-.246,0-.373.009A26.572,26.572,0,0,0,75.22,27.229c0,6.422,3.871,12.251,6.695,16.5C82.6,44.763,83.245,45.746,83.755,46.6Z" transform="translate(-6.706 -0.067)" fill="none" stroke="#270089" stroke-miterlimit="10" stroke-width="1.5"/>
      <path id="Path_12173" data-name="Path 12173" d="M101.706,4.519c.109-.009.219-.009.319-.009,11.413,0,20.977,8.407,22.817,20.112,1.139,7.232-2,11.96-5.647,17.443-.783,1.166-1.585,2.377-2.359,3.634l-.547.893c-3.917,6.33-10.948,17.7-14.2,27.553-2.869-8.863-8.917-18.818-13.025-25.6-.738-1.211-1.43-2.341-2.031-3.352-.547-.929-1.221-1.94-1.931-3.015-2.723-4.108-6.121-9.218-6.121-14.61A23.125,23.125,0,0,1,101.706,4.519Z" transform="translate(-7.041 -0.402)" fill="none" stroke="#270089" stroke-miterlimit="10" stroke-width="1.5"/>
      <g id="Group_2105" data-name="Group 2105" transform="translate(77.951 9.127)">
        <g id="Group_2104" data-name="Group 2104" clip-path="url(#clip-path-4)">
          <g id="Group_2103" data-name="Group 2103">
            <g id="Group_2102" data-name="Group 2102" clip-path="url(#clip-path-4)">
              <path id="Path_12174" data-name="Path 12174" d="M102.622,10.02A17.042,17.042,0,1,1,85.58,27.062,17.063,17.063,0,0,1,102.622,10.02" transform="translate(-85.58 -10.02)" fill="#fff"/>
            </g>
          </g>
        </g>
      </g>
      <circle id="Ellipse_115" data-name="Ellipse 115" cx="17.042" cy="17.042" r="17.042" transform="translate(77.951 9.127)" fill="none" stroke="#270089" stroke-miterlimit="10" stroke-width="5"/>
    </g>
  </g>
  <text id="P" transform="translate(87.925 34.6)" fill="#270089" font-size="23" font-family="Arial-Black, Arial Black" font-weight="800"><tspan x="0" y="0">P</tspan></text>
  <g id="Group_2113" data-name="Group 2113">
    <g id="Group_2112" data-name="Group 2112" clip-path="url(#clip-path)">
      <g id="Group_2111" data-name="Group 2111" transform="translate(1.139 90.566)">
        <g id="Group_2110" data-name="Group 2110" clip-path="url(#clip-path-7)">
          <g id="Group_2109" data-name="Group 2109">
            <g id="Group_2108" data-name="Group 2108" clip-path="url(#clip-path-7)">
              <path id="Path_12175" data-name="Path 12175" d="M226.01,152.82v1.539h-4.855a5.369,5.369,0,0,1,0-10.739h1.74a14.727,14.727,0,0,1,3.115,9.2" transform="translate(-20.375 -103.369)" fill="#fff"/>
              <path id="Path_12176" data-name="Path 12176" d="M188.455,153.73A14.555,14.555,0,1,1,173.9,168.285a14.574,14.574,0,0,1,14.555-14.555m4.281,14.555a4.281,4.281,0,1,0-4.281,4.281,4.288,4.288,0,0,0,4.281-4.281" transform="translate(-16.641 -104.271)" fill="#fff"/>
              <path id="Path_12177" data-name="Path 12177" d="M16.268,133.835a.4.4,0,0,1,.055.355L12.27,146.222a2.7,2.7,0,0,1-2.578,1.858H5.01v-14.4H15.949a.384.384,0,0,1,.319.155" transform="translate(-1.585 -102.483)" fill="#fff"/>
              <path id="Path_12178" data-name="Path 12178" d="M43.665,153.73A14.555,14.555,0,1,1,29.11,168.285,14.574,14.574,0,0,1,43.665,153.73m4.281,14.555a4.281,4.281,0,1,0-4.281,4.281,4.288,4.288,0,0,0,4.281-4.281" transform="translate(-3.734 -104.271)" fill="#fff"/>
              <path id="Path_12179" data-name="Path 12179" d="M207.22,155.636v3.489c0,5.511-7.086,8.562-11.987,8.562h-4.044a17.981,17.981,0,1,0-35.578,0h-96.3a17.969,17.969,0,1,0-35.769-2.45c0,.073.009.137.009.21L11.4,161.4a8.881,8.881,0,0,1-6.385-8.5v-2.66H9.692a6.153,6.153,0,0,0,5.829-4.19l4.044-12.042a3.809,3.809,0,0,0-3.616-5.019H5.01v-.856a4.665,4.665,0,0,1,4.654-4.664h13.6a11.092,11.092,0,0,0,2.25-.219A49.526,49.526,0,0,0,35.2,119.53v.073c0,2.714,1.84,5.9,6.977,5.957l106.279,4.4a5.275,5.275,0,0,0,.656.036,8.391,8.391,0,0,0,5.328-2.049,4.6,4.6,0,0,0,1.066-1.394,35.829,35.829,0,0,0,9.783,3.206l30.286,6.112a17.945,17.945,0,0,1,5.019,2.359,8.794,8.794,0,0,0,1.776,17.406Z" transform="translate(-1.585 -101.222)" fill="#fff"/>
              <path id="Path_12180" data-name="Path 12180" d="M160.731,123.405a1.012,1.012,0,0,1,.128.355,4.854,4.854,0,0,1-3.607,1.357l-55.325-2.3L100.46,103.43l3.853.036,8.6.118c0-.036,4.718.009,4.718.009,4.381.036,8.817,1.785,12.98,3.571,6.74,2.887,14.774,7.505,21.87,11.577,2.942,1.685,5.757,3.3,8.252,4.664" transform="translate(-10.094 -99.787)" fill="#fff"/>
              <path id="Path_12181" data-name="Path 12181" d="M91.8,103.381l1.466,19.274-47.711-1.977c-1.667-.018-3.643-.474-3.643-2.532a2.66,2.66,0,0,1,.9-2.2c2.687-1.366,5.438-2.815,8.07-4.208,2.978-1.576,5.784-3.06,8.052-4.172.72-.346,1.457-.729,2.2-1.111,3.1-1.612,6.3-3.27,9.364-3.27Z" transform="translate(-4.875 -99.765)" fill="#fff"/>
              <path id="Path_12182" data-name="Path 12182" d="M210.309,148.88v8.453c0,7.815-8.945,11.987-15.412,11.987h-4.864a17.946,17.946,0,0,1-33.938,0H58.151a17.957,17.957,0,0,1-34.494-1.9L10.04,162.88a12.316,12.316,0,0,1-8.79-11.768V126.346a8.091,8.091,0,0,1,8.079-8.088h13.6a7.337,7.337,0,0,0,1.53-.146c4.691-1,13.845-5.839,21.2-9.728,3.006-1.594,5.839-3.088,8.152-4.217.7-.346,1.412-.71,2.131-1.084,3.3-1.712,7.05-3.653,10.948-3.653l7.76.073,3.425-.055,17.4.237,5.174.055,3.425.027,4.746.046c5.019.046,9.819,1.922,14.31,3.853,6.913,2.96,15.047,7.633,22.216,11.75,4.09,2.35,7.961,4.563,10.967,6.1a33.176,33.176,0,0,0,9.273,3.088l30.55,6.166c8.617,2.541,14.182,9.646,14.182,18.108m-3.425,8.453v-3.489H202.03a8.794,8.794,0,0,1-1.776-17.406,17.945,17.945,0,0,0-5.019-2.359l-30.286-6.112a35.829,35.829,0,0,1-9.783-3.206,4.6,4.6,0,0,1-1.066,1.394,8.391,8.391,0,0,1-5.328,2.049,5.275,5.275,0,0,1-.656-.036l-106.279-4.4c-5.137-.055-6.977-3.243-6.977-5.957v-.073a49.526,49.526,0,0,1-9.682,3.725,11.092,11.092,0,0,1-2.25.219H9.329a4.665,4.665,0,0,0-4.654,4.664v.856H15.614a3.809,3.809,0,0,1,3.616,5.019l-4.044,12.042a6.153,6.153,0,0,1-5.829,4.19H4.675v2.66a8.881,8.881,0,0,0,6.385,8.5l12.151,4.044c0-.073-.009-.137-.009-.21a17.976,17.976,0,1,1,35.769,2.45h96.3a17.981,17.981,0,1,1,35.578,0H194.9c4.9,0,11.987-3.051,11.987-8.562m0-6.913V148.88a14.727,14.727,0,0,0-3.115-9.2h-1.74a5.369,5.369,0,0,0,0,10.739ZM187.62,163.445A14.555,14.555,0,1,0,173.065,178a14.574,14.574,0,0,0,14.555-14.555M152.015,123.4a1.012,1.012,0,0,0-.128-.355c-2.5-1.366-5.31-2.979-8.252-4.664-7.1-4.072-15.129-8.69-21.87-11.577-4.163-1.785-8.6-3.534-12.98-3.571,0,0-4.718-.046-4.718-.009l-8.6-.118-3.853-.036,1.466,19.392,55.325,2.3a4.854,4.854,0,0,0,3.607-1.357M89.639,122.32l-1.466-19.274-21.3-.191c-3.06,0-6.267,1.658-9.364,3.27-.747.383-1.485.765-2.2,1.111-2.268,1.111-5.073,2.6-8.052,4.172-2.632,1.394-5.383,2.842-8.07,4.208a2.66,2.66,0,0,0-.9,2.2c0,2.059,1.977,2.514,3.643,2.532Zm-33.9,41.125A14.555,14.555,0,1,0,41.182,178a14.574,14.574,0,0,0,14.555-14.555m-39.75-32.308a.4.4,0,0,0-.055-.355.384.384,0,0,0-.319-.155H4.675v14.4H9.357a2.7,2.7,0,0,0,2.578-1.858Z" transform="translate(-1.25 -99.43)" fill="#270089"/>
              <path id="Path_12183" data-name="Path 12183" d="M189.461,165.01a4.281,4.281,0,1,1-4.281,4.281,4.288,4.288,0,0,1,4.281-4.281" transform="translate(-17.646 -105.276)" fill="#270089"/>
              <path id="Path_12184" data-name="Path 12184" d="M44.671,165.01a4.281,4.281,0,1,1-4.281,4.281,4.288,4.288,0,0,1,4.281-4.281" transform="translate(-4.739 -105.276)" fill="#270089"/>
            </g>
          </g>
        </g>
      </g>
      <path id="Path_12185" data-name="Path 12185" d="M196.127,130.773l-30.55-6.166a33.176,33.176,0,0,1-9.273-3.088c-3.006-1.539-6.877-3.753-10.967-6.1-7.168-4.117-15.3-8.79-22.216-11.75-4.491-1.931-9.291-3.807-14.31-3.853l-4.746-.046-3.425-.027-5.174-.055-17.4-.237-3.425.055-7.76-.073c-3.9,0-7.651,1.94-10.948,3.653-.72.373-1.43.738-2.131,1.084-2.314,1.129-5.146,2.623-8.152,4.217-7.351,3.889-16.5,8.726-21.2,9.728a7.337,7.337,0,0,1-1.53.146H9.329a8.091,8.091,0,0,0-8.079,8.088v24.766a12.316,12.316,0,0,0,8.79,11.768l13.617,4.536a17.957,17.957,0,0,0,34.494,1.9H156.1a17.946,17.946,0,0,0,33.938,0H194.9c6.467,0,15.412-4.172,15.412-11.987V148.88C210.309,140.418,204.744,133.314,196.127,130.773Z" transform="translate(-0.111 -8.864)" fill="none" stroke="#270089" stroke-miterlimit="10" stroke-width="2.5"/>
      <path id="Path_12186" data-name="Path 12186" d="M104.313,103.466l8.6.118c0-.036,4.718.009,4.718.009,4.381.036,8.817,1.785,12.98,3.571,6.74,2.887,14.774,7.505,21.87,11.577,2.942,1.685,5.757,3.3,8.252,4.664a1.012,1.012,0,0,1,.128.355,4.854,4.854,0,0,1-3.607,1.357l-55.325-2.3L100.46,103.43Z" transform="translate(-8.956 -9.22)" fill="none" stroke="#270089" stroke-miterlimit="10" stroke-width="2.5"/>
      <path id="Path_12187" data-name="Path 12187" d="M42.812,115.951c2.687-1.366,5.438-2.815,8.07-4.208,2.978-1.576,5.784-3.06,8.052-4.172.72-.346,1.457-.729,2.2-1.111,3.1-1.612,6.3-3.27,9.364-3.27l21.3.191,1.466,19.274-47.711-1.977c-1.667-.018-3.643-.474-3.643-2.532A2.66,2.66,0,0,1,42.812,115.951Z" transform="translate(-3.736 -9.199)" fill="none" stroke="#270089" stroke-miterlimit="10" stroke-width="2.5"/>
      <path id="Path_12188" data-name="Path 12188" d="M5.01,133.68H15.949a.384.384,0,0,1,.319.155.4.4,0,0,1,.055.355L12.27,146.222a2.7,2.7,0,0,1-2.578,1.858H5.01Z" transform="translate(-0.447 -11.917)" fill="none" stroke="#270089" stroke-miterlimit="10" stroke-width="2.5"/>
      <circle id="Ellipse_116" data-name="Ellipse 116" cx="14.555" cy="14.555" r="14.555" transform="translate(26.515 140.026)" fill="none" stroke="#270089" stroke-miterlimit="10" stroke-width="2.5"/>
      <circle id="Ellipse_117" data-name="Ellipse 117" cx="14.555" cy="14.555" r="14.555" transform="translate(158.398 140.026)" fill="none" stroke="#270089" stroke-miterlimit="10" stroke-width="2.5"/>
      <path id="Path_12189" data-name="Path 12189" d="M207.22,159.125c0,5.511-7.086,8.562-11.987,8.562h-4.044a17.981,17.981,0,1,0-35.578,0h-96.3a17.969,17.969,0,1,0-35.769-2.45c0,.073.009.137.009.21L11.4,161.4a8.881,8.881,0,0,1-6.385-8.5v-2.66H9.692a6.153,6.153,0,0,0,5.829-4.19l4.044-12.042a3.809,3.809,0,0,0-3.616-5.019H5.01v-.856a4.665,4.665,0,0,1,4.654-4.664h13.6a11.092,11.092,0,0,0,2.25-.219A49.526,49.526,0,0,0,35.2,119.53v.073c0,2.714,1.84,5.9,6.977,5.957l106.279,4.4a5.275,5.275,0,0,0,.656.036,8.391,8.391,0,0,0,5.328-2.049,4.6,4.6,0,0,0,1.066-1.394,35.829,35.829,0,0,0,9.783,3.206l30.286,6.112a17.945,17.945,0,0,1,5.019,2.359,8.794,8.794,0,0,0,1.776,17.406h4.855Z" transform="translate(-0.447 -10.656)" fill="none" stroke="#270089" stroke-miterlimit="10" stroke-width="2.5"/>
      <path id="Path_12190" data-name="Path 12190" d="M226.01,154.359h-4.855a5.369,5.369,0,0,1,0-10.739h1.74a14.727,14.727,0,0,1,3.115,9.2Z" transform="translate(-19.237 -12.803)" fill="none" stroke="#270089" stroke-miterlimit="10" stroke-width="2.5"/>
      <circle id="Ellipse_118" data-name="Ellipse 118" cx="4.281" cy="4.281" r="4.281" transform="translate(36.789 150.3)" fill="none" stroke="#270089" stroke-miterlimit="10" stroke-width="2.5"/>
      <circle id="Ellipse_119" data-name="Ellipse 119" cx="4.281" cy="4.281" r="4.281" transform="translate(168.672 150.3)" fill="none" stroke="#270089" stroke-miterlimit="10" stroke-width="2.5"/>
    </g>
  </g>
</svg>
