<svg id="Group_2373" data-name="Group 2373" xmlns="http://www.w3.org/2000/svg" xmlns:xlink="http://www.w3.org/1999/xlink" width="199" height="155.708" viewBox="0 0 199 155.708">
  <defs>
    <clipPath id="clip-path">
      <rect id="Rectangle_1181" data-name="Rectangle 1181" width="199" height="155.708" fill="none"/>
    </clipPath>
    <clipPath id="clip-path-2">
      <rect id="Rectangle_1178" data-name="Rectangle 1178" width="176.198" height="142.201" fill="none"/>
    </clipPath>
    <clipPath id="clip-path-4">
      <rect id="Rectangle_1180" data-name="Rectangle 1180" width="77.471" height="87.936" fill="none"/>
    </clipPath>
  </defs>
  <g id="Group_2372" data-name="Group 2372" clip-path="url(#clip-path)">
    <g id="Group_2367" data-name="Group 2367" transform="translate(0.514 0.514)">
      <g id="Group_2366" data-name="Group 2366" clip-path="url(#clip-path-2)">
        <g id="Group_2365" data-name="Group 2365">
          <g id="Group_2364" data-name="Group 2364" clip-path="url(#clip-path-2)">
            <path id="Path_12582" data-name="Path 12582" d="M176.628,96.918a1.647,1.647,0,0,1-1.1,2.049L102.635,120.8,29.746,142.631a1.646,1.646,0,0,1-2.049-1.1L.568,50.954a1.642,1.642,0,0,1,.346-1.562l11.605-13.2a1.374,1.374,0,0,1,.159-.169l.037-.037c.019-.02.047-.038.066-.057s.065-.046.094-.075a.032.032,0,0,0,.019-.009,1.729,1.729,0,0,1,.5-.224l33.377-10c8.183-2.45,17.629.907,26.625,4.891l2.525,1.123,1.5-2.329c5.321-8.276,11.372-16.273,19.554-18.723L130.411.566c.018,0,.037-.009.056-.009a.276.276,0,0,1,.084-.019c.028-.01.047-.01.075-.02s.056-.009.084-.009A.18.18,0,0,0,130.784.5h.178c.019,0,.038.009.057.009.046,0,.094.009.131.009l.009.009a1.094,1.094,0,0,1,.244.057l16.954,4.648a1.656,1.656,0,0,1,1.15,1.112Zm-3.62-.626-26.4-88.133-5.133-1.4L167.21,92.692a1.646,1.646,0,0,1-1.1,2.048l-38.558,11.55a38.461,38.461,0,0,0-10.249,4.817l-5.079,3.385Zm-9.417-4.228L137.845,6.111a1.747,1.747,0,0,1-.066-.365l-4.47-1.235,24.765,82.681a1.646,1.646,0,0,1-1.1,2.048L123.537,99.247c-6.182,1.853-11.185,7.65-15.636,14.168l7.575-5.05a41.913,41.913,0,0,1,11.128-5.227Zm-9.146-5.508L129.784,4.194,97.922,13.733c-7.164,2.152-12.757,9.6-17.732,17.348l-1.852,2.881,24.371,81.371.328-.514c5.311-8.267,11.363-16.264,19.554-18.723ZM99.558,116.268,75.187,34.906l-3.124-1.385c-8.407-3.74-17.179-6.892-24.342-4.751L15.858,38.31l24.671,82.362,31.853-9.539c8.192-2.45,17.647.9,26.634,4.891Zm-14.486,1.206,9.108.057c-7.3-3-14.673-5.1-20.854-3.246L39.893,124.3a1.646,1.646,0,0,1-2.048-1.1L13.081,40.526l-3.059,3.479a1.275,1.275,0,0,1,.15.346L35.918,130.3,72.9,119.223a41.549,41.549,0,0,1,12.168-1.749M30.372,139,91.16,120.8l-6.107-.038a38.519,38.519,0,0,0-11.2,1.609l-38.567,11.55a1.647,1.647,0,0,1-2.049-1.1L7.5,46.877l-3.516,4Z" transform="translate(-0.5 -0.5)" fill="#270089"/>
            <path id="Path_12583" data-name="Path 12583" d="M143.555,7.988l26.4,88.133-60.787,18.2,5.078-3.385a38.468,38.468,0,0,1,10.25-4.817l38.558-11.55a1.645,1.645,0,0,0,1.1-2.048L138.421,6.586Z" transform="translate(2.554 -0.329)" fill="#fff"/>
            <path id="Path_12584" data-name="Path 12584" d="M134.909,6l25.746,85.953-36.987,11.074a41.913,41.913,0,0,0-11.128,5.227l-7.575,5.05c4.451-6.518,9.454-12.316,15.636-14.168l33.433-10.006a1.644,1.644,0,0,0,1.1-2.048L130.373,4.4l4.47,1.234a1.683,1.683,0,0,0,.066.365" transform="translate(2.435 -0.39)" fill="#fff"/>
            <path id="Path_12585" data-name="Path 12585" d="M127.657,4.093l24.661,82.363-31.854,9.539c-8.192,2.459-14.242,10.456-19.554,18.723l-.327.514L76.212,33.861l1.852-2.881c4.975-7.744,10.567-15.2,17.731-17.348Zm13.046,73a1.645,1.645,0,0,0-.945-3.151L109.85,82.9a1.645,1.645,0,0,0,.945,3.151Zm-9.577-9.3a1.649,1.649,0,0,0-.944-3.16l-23.67,7.1a1.645,1.645,0,1,0,.944,3.151Zm-3.348-11.175a1.645,1.645,0,1,0-.945-3.151l-19.7,5.9a1.649,1.649,0,0,0,.945,3.16ZM124.43,45.457a1.645,1.645,0,1,0-.944-3.151l-23.67,7.089a1.645,1.645,0,1,0,.944,3.151Zm-.458-24.193a1.65,1.65,0,0,0-.945-3.161l-29.9,8.96a1.645,1.645,0,1,0,.945,3.151ZM112.366,36.9a1.645,1.645,0,0,0-.945-3.151L94.924,38.7a1.645,1.645,0,1,0,.945,3.151Z" transform="translate(1.627 -0.399)" fill="#fff"/>
            <path id="Path_12586" data-name="Path 12586" d="M140.918,73.139a1.652,1.652,0,0,1-1.1,2.048l-29.907,8.959a1.645,1.645,0,1,1-.945-3.151l29.907-8.959a1.645,1.645,0,0,1,2.048,1.1" transform="translate(2.515 1.508)" fill="#270089"/>
            <path id="Path_12587" data-name="Path 12587" d="M131.433,64.1a1.646,1.646,0,0,1-1.1,2.049l-23.67,7.088a1.644,1.644,0,1,1-.945-3.15l23.67-7.1a1.65,1.65,0,0,1,2.048,1.111" transform="translate(2.424 1.254)" fill="#270089"/>
            <path id="Path_12588" data-name="Path 12588" d="M128.069,53.227a1.637,1.637,0,0,1-1.1,2.048l-19.7,5.911a1.65,1.65,0,0,1-.945-3.161l19.7-5.9a1.645,1.645,0,0,1,2.048,1.1" transform="translate(2.44 0.949)" fill="#270089"/>
            <path id="Path_12589" data-name="Path 12589" d="M124.93,42.366a1.652,1.652,0,0,1-1.112,2.048L100.148,51.5a1.645,1.645,0,0,1-.945-3.151l23.669-7.089a1.652,1.652,0,0,1,2.058,1.1" transform="translate(2.241 0.643)" fill="#270089"/>
            <path id="Path_12590" data-name="Path 12590" d="M124.645,18.834a1.645,1.645,0,0,1-1.1,2.048l-29.9,8.95a1.645,1.645,0,0,1-.945-3.151l29.9-8.959a1.65,1.65,0,0,1,2.048,1.112" transform="translate(2.058 -0.018)" fill="#270089"/>
            <path id="Path_12591" data-name="Path 12591" d="M112.99,34.043a1.63,1.63,0,0,1-1.1,2.048l-16.5,4.947a1.645,1.645,0,1,1-.945-3.151l16.5-4.947a1.637,1.637,0,0,1,2.048,1.1" transform="translate(2.107 0.41)" fill="#270089"/>
            <path id="Path_12592" data-name="Path 12592" d="M74.768,34.153l24.371,81.362-.543-.243c-8.987-3.994-18.442-7.342-26.634-4.892l-31.853,9.539L15.439,37.557,47.3,28.018c7.164-2.142,15.936,1.01,24.343,4.751Zm-.2,62.611a1.65,1.65,0,0,0-.945-3.161l-29.9,8.96a1.645,1.645,0,1,0,.945,3.151ZM64.536,63.256a1.645,1.645,0,0,0-.944-3.152l-29.9,8.96a1.645,1.645,0,1,0,.944,3.151ZM63.919,75.61a1.645,1.645,0,0,0-.945-3.151L37.041,80.23a1.645,1.645,0,1,0,.945,3.151ZM58.972,89.264a1.645,1.645,0,1,0-.945-3.152L40.38,91.4a1.645,1.645,0,1,0,.945,3.151Zm-1.123-48.34a1.645,1.645,0,1,0-.944-3.152l-29.9,8.95a1.65,1.65,0,0,0,.944,3.161ZM53.632,54.353a1.645,1.645,0,0,0-.945-3.151L30.345,57.9a1.645,1.645,0,1,0,.945,3.151Z" transform="translate(-0.08 0.254)" fill="#ef8933"/>
            <path id="Path_12593" data-name="Path 12593" d="M93.92,116.437l-9.109-.057a41.542,41.542,0,0,0-12.167,1.749L35.659,129.2,9.913,43.258a1.336,1.336,0,0,0-.151-.345l3.059-3.479L37.584,122.1a1.646,1.646,0,0,0,2.048,1.1l33.433-10.016c6.182-1.853,13.551.243,20.855,3.245" transform="translate(-0.24 0.594)" fill="#fff"/>
            <path id="Path_12594" data-name="Path 12594" d="M91.065,119.537l-60.787,18.2L3.886,49.612l3.516-4,25.736,85.945a1.645,1.645,0,0,0,2.048,1.1l38.568-11.55a38.483,38.483,0,0,1,11.2-1.608Z" transform="translate(-0.405 0.768)" fill="#fff"/>
            <path id="Path_12595" data-name="Path 12595" d="M74.933,92.906a1.645,1.645,0,0,1-1.1,2.048l-29.9,8.95a1.645,1.645,0,1,1-.945-3.151l29.9-8.959a1.65,1.65,0,0,1,2.048,1.112" transform="translate(0.661 2.063)" fill="#270089"/>
            <path id="Path_12596" data-name="Path 12596" d="M65.173,60.313a1.644,1.644,0,0,1-1.1,2.048l-29.9,8.959a1.644,1.644,0,1,1-.945-3.15l29.9-8.96a1.646,1.646,0,0,1,2.048,1.1" transform="translate(0.387 1.148)" fill="#270089"/>
            <path id="Path_12597" data-name="Path 12597" d="M64.464,72.33a1.645,1.645,0,0,1-1.1,2.048L37.427,82.149A1.645,1.645,0,1,1,36.483,79l25.933-7.771a1.645,1.645,0,0,1,2.048,1.1" transform="translate(0.478 1.485)" fill="#270089"/>
            <path id="Path_12598" data-name="Path 12598" d="M59.436,85.61a1.65,1.65,0,0,1-1.112,2.048L40.676,92.942a1.645,1.645,0,0,1-.945-3.152l17.647-5.283a1.651,1.651,0,0,1,2.057,1.1" transform="translate(0.569 1.859)" fill="#270089"/>
            <path id="Path_12599" data-name="Path 12599" d="M58.669,38.591a1.645,1.645,0,0,1-1.1,2.048L27.668,49.6a1.649,1.649,0,0,1-.945-3.16l29.9-8.95a1.645,1.645,0,0,1,2.048,1.1" transform="translate(0.204 0.537)" fill="#270089"/>
            <path id="Path_12600" data-name="Path 12600" d="M54.36,51.654a1.645,1.645,0,0,1-1.1,2.048L30.914,60.4a1.645,1.645,0,1,1-.944-3.151l22.342-6.7a1.645,1.645,0,0,1,2.048,1.1" transform="translate(0.295 0.904)" fill="#270089"/>
          </g>
        </g>
      </g>
    </g>
    <path id="Path_12601" data-name="Path 12601" d="M27.668,49.6l29.9-8.959a1.645,1.645,0,0,0-.945-3.152l-29.9,8.95a1.65,1.65,0,0,0,.945,3.161Z" transform="translate(0.718 1.051)" fill="none" stroke="#270089" stroke-miterlimit="10" stroke-width="1"/>
    <path id="Path_12602" data-name="Path 12602" d="M30.915,60.4l22.342-6.7a1.645,1.645,0,1,0-.945-3.151l-22.342,6.7a1.645,1.645,0,1,0,.945,3.151Z" transform="translate(0.809 1.418)" fill="none" stroke="#270089" stroke-miterlimit="10" stroke-width="1"/>
    <path id="Path_12603" data-name="Path 12603" d="M34.171,71.321l29.9-8.959a1.645,1.645,0,0,0-.945-3.152l-29.9,8.96a1.645,1.645,0,1,0,.945,3.151Z" transform="translate(0.901 1.662)" fill="none" stroke="#270089" stroke-miterlimit="10" stroke-width="1"/>
    <path id="Path_12604" data-name="Path 12604" d="M37.428,82.149l25.933-7.771a1.645,1.645,0,1,0-.945-3.152L36.483,79a1.645,1.645,0,1,0,.945,3.151Z" transform="translate(0.992 1.999)" fill="none" stroke="#270089" stroke-miterlimit="10" stroke-width="1"/>
    <path id="Path_12605" data-name="Path 12605" d="M40.675,92.942l17.647-5.283a1.645,1.645,0,1,0-.945-3.152L39.73,89.791a1.645,1.645,0,1,0,.945,3.151Z" transform="translate(1.083 2.373)" fill="none" stroke="#270089" stroke-miterlimit="10" stroke-width="1"/>
    <path id="Path_12606" data-name="Path 12606" d="M74.933,92.906a1.65,1.65,0,0,0-2.048-1.112l-29.9,8.959a1.645,1.645,0,1,0,.945,3.151l29.9-8.95A1.645,1.645,0,0,0,74.933,92.906Z" transform="translate(1.175 2.577)" fill="none" stroke="#270089" stroke-miterlimit="10" stroke-width="1"/>
    <path id="Path_12607" data-name="Path 12607" d="M148.357,5.232,131.4.584a1.019,1.019,0,0,0-.243-.056l-.009-.01c-.038,0-.084-.009-.132-.009-.018,0-.037-.009-.055-.009h-.178a.183.183,0,0,1-.075.009c-.028,0-.056.009-.084.009s-.046.01-.074.02a.27.27,0,0,0-.084.019c-.018,0-.038.009-.057.009L96.978,10.582C88.794,13.032,82.744,21.028,77.422,29.3l-1.5,2.329L73.4,30.51c-9-3.984-18.442-7.341-26.625-4.891l-33.377,10a1.735,1.735,0,0,0-.506.224.032.032,0,0,1-.019.009c-.028.029-.065.047-.094.075s-.046.038-.065.057l-.038.037a1.366,1.366,0,0,0-.158.169L.914,49.392a1.642,1.642,0,0,0-.345,1.562L27.7,141.528a1.645,1.645,0,0,0,2.048,1.1L102.636,120.8l72.889-21.837a1.645,1.645,0,0,0,1.1-2.048L149.508,6.345A1.66,1.66,0,0,0,148.357,5.232Z" transform="translate(0.014 0.014)" fill="none" stroke="#270089" stroke-miterlimit="10" stroke-width="1"/>
    <path id="Path_12608" data-name="Path 12608" d="M154.034,89.131a1.643,1.643,0,0,0,1.1-2.047L130.373,4.4l4.47,1.236a1.686,1.686,0,0,0,.066.364l25.746,85.954-36.987,11.073a41.882,41.882,0,0,0-11.128,5.227l-7.576,5.05c4.452-6.518,9.455-12.317,15.637-14.167Z" transform="translate(2.949 0.124)" fill="none" stroke="#270089" stroke-miterlimit="10" stroke-width="1"/>
    <path id="Path_12609" data-name="Path 12609" d="M78.063,30.98c4.975-7.744,10.568-15.2,17.732-17.348l31.862-9.539,24.661,82.363-31.853,9.539c-8.193,2.459-14.243,10.455-19.555,18.723l-.327.514L76.211,33.861Z" transform="translate(2.142 0.115)" fill="none" stroke="#270089" stroke-miterlimit="10" stroke-width="1"/>
    <path id="Path_12610" data-name="Path 12610" d="M15.439,37.557,47.3,28.018c7.164-2.142,15.936,1.01,24.343,4.751l3.123,1.384,24.371,81.362-.542-.243c-8.988-3.994-18.442-7.342-26.635-4.892l-31.853,9.539Z" transform="translate(0.434 0.768)" fill="none" stroke="#270089" stroke-miterlimit="10" stroke-width="1"/>
    <path id="Path_12611" data-name="Path 12611" d="M12.821,39.433,37.584,122.1a1.645,1.645,0,0,0,2.048,1.1l33.434-10.016c6.181-1.852,13.55.243,20.854,3.245l-9.108-.056a41.515,41.515,0,0,0-12.168,1.749L35.658,129.2,9.912,43.258a1.268,1.268,0,0,0-.15-.345Z" transform="translate(0.274 1.108)" fill="none" stroke="#270089" stroke-miterlimit="10" stroke-width="1"/>
    <path id="Path_12612" data-name="Path 12612" d="M30.277,137.735,3.886,49.611l3.516-4,25.736,85.944a1.647,1.647,0,0,0,2.049,1.1l38.567-11.55a38.519,38.519,0,0,1,11.2-1.609l6.107.038Z" transform="translate(0.109 1.282)" fill="none" stroke="#270089" stroke-miterlimit="10" stroke-width="1"/>
    <path id="Path_12613" data-name="Path 12613" d="M169.955,96.121l-60.787,18.2,5.078-3.385a38.468,38.468,0,0,1,10.25-4.817l38.558-11.55a1.645,1.645,0,0,0,1.1-2.048L138.421,6.586l5.134,1.4Z" transform="translate(3.068 0.185)" fill="none" stroke="#270089" stroke-miterlimit="10" stroke-width="1"/>
    <path id="Path_12614" data-name="Path 12614" d="M93.643,29.832l29.9-8.95a1.65,1.65,0,0,0-.945-3.161l-29.9,8.96a1.645,1.645,0,0,0,.945,3.151Z" transform="translate(2.572 0.496)" fill="none" stroke="#270089" stroke-miterlimit="10" stroke-width="1"/>
    <path id="Path_12615" data-name="Path 12615" d="M95.39,41.038l16.5-4.947a1.645,1.645,0,0,0-.945-3.151l-16.5,4.947a1.645,1.645,0,1,0,.945,3.151Z" transform="translate(2.621 0.924)" fill="none" stroke="#270089" stroke-miterlimit="10" stroke-width="1"/>
    <path id="Path_12616" data-name="Path 12616" d="M122.872,41.263,99.2,48.352a1.645,1.645,0,0,0,.945,3.151l23.67-7.089a1.645,1.645,0,1,0-.945-3.151Z" transform="translate(2.755 1.157)" fill="none" stroke="#270089" stroke-miterlimit="10" stroke-width="1"/>
    <path id="Path_12617" data-name="Path 12617" d="M126.021,52.124l-19.7,5.9a1.649,1.649,0,0,0,.945,3.16l19.7-5.911a1.645,1.645,0,1,0-.945-3.151Z" transform="translate(2.954 1.463)" fill="none" stroke="#270089" stroke-miterlimit="10" stroke-width="1"/>
    <path id="Path_12618" data-name="Path 12618" d="M106.66,73.235l23.67-7.089a1.65,1.65,0,0,0-.945-3.161l-23.67,7.1a1.645,1.645,0,0,0,.945,3.151Z" transform="translate(2.938 1.768)" fill="none" stroke="#270089" stroke-miterlimit="10" stroke-width="1"/>
    <path id="Path_12619" data-name="Path 12619" d="M138.87,72.036l-29.907,8.959a1.645,1.645,0,0,0,.945,3.152l29.907-8.96a1.645,1.645,0,0,0-.945-3.151Z" transform="translate(3.029 2.022)" fill="none" stroke="#270089" stroke-miterlimit="10" stroke-width="1"/>
    <g id="Group_2371" data-name="Group 2371" transform="translate(118.912 65.155)">
      <g id="Group_2370" data-name="Group 2370" clip-path="url(#clip-path-4)">
        <g id="Group_2369" data-name="Group 2369">
          <g id="Group_2368" data-name="Group 2368" clip-path="url(#clip-path-4)">
            <path id="Path_12620" data-name="Path 12620" d="M192.455,63.823V77.665a.459.459,0,0,1-.459.458H140.253a.459.459,0,0,1-.459-.458V63.823a.452.452,0,0,1,.459-.449H192a.451.451,0,0,1,.459.449" transform="translate(-114.984 -63.374)" fill="#fff"/>
            <path id="Path_12621" data-name="Path 12621" d="M187.1,77.981v61.648a3.178,3.178,0,0,1-3.18,3.18H157.263v-1.347c.019-3.151-2.591-4.676-5.294-5.648a11.246,11.246,0,0,0-4.2-.552h-2.908V77.719H187.1Z" transform="translate(-114.841 -62.971)" fill="#ef8933"/>
            <path id="Path_12622" data-name="Path 12622" d="M157.734,143.134c.018,3.161-2.591,4.676-5.294,5.648a11.245,11.245,0,0,1-4.2.552h-10.68a11.269,11.269,0,0,1-4.208-.552c-2.646-.954-5.2-2.431-5.284-5.452a.555.555,0,0,0,.094-.075,11.18,11.18,0,0,0,2.582-3.366l2.675-4.62.729-1.272a13.005,13.005,0,0,1,3.413-.308h10.68a11.266,11.266,0,0,1,4.2.551c2.7.973,5.312,2.5,5.294,5.649v3.245Z" transform="translate(-115.313 -61.398)" fill="#fff"/>
            <path id="Path_12623" data-name="Path 12623" d="M135.807,119.78c2.749,1.552,2.758,4.573,2.244,7.4a11.2,11.2,0,0,1-1.618,3.919l-1.935,3.357-6.079,9.333c-2.169,1.815-4.76,3.264-7.444,1.684l-2.806-1.627c-2.749-1.562-2.758-4.573-2.244-7.406a11.226,11.226,0,0,1,1.618-3.91l2.665-4.629,2.675-4.63a11.288,11.288,0,0,1,2.581-3.358c2.189-1.852,4.817-3.357,7.538-1.758Z" transform="translate(-115.662 -61.854)" fill="#fff"/>
            <path id="Path_12624" data-name="Path 12624" d="M134.148,133.989l-.73,1.272-2.674,4.62a11.18,11.18,0,0,1-2.582,3.366.555.555,0,0,1-.094.075Z" transform="translate(-115.313 -61.39)" fill="#fff"/>
          </g>
        </g>
      </g>
    </g>
    <path id="Path_12625" data-name="Path 12625" d="M186.764,77.974v61.648a3.178,3.178,0,0,1-3.18,3.18H156.969" transform="translate(4.411 2.191)" fill="none" stroke="#270089" stroke-linecap="round" stroke-miterlimit="22.926" stroke-width="5.09"/>
    <line id="Line_154" data-name="Line 154" y1="57.084" transform="translate(148.932 80.165)" fill="none" stroke="#270089" stroke-linecap="round" stroke-miterlimit="22.926" stroke-width="5.09"/>
    <path id="Path_12626" data-name="Path 12626" d="M145,78.122h-4.751a.459.459,0,0,1-.459-.459V63.823a.451.451,0,0,1,.459-.449H192a.451.451,0,0,1,.459.449v13.84a.459.459,0,0,1-.459.459H145Z" transform="translate(3.928 1.781)" fill="none" stroke="#270089" stroke-linecap="round" stroke-miterlimit="22.926" stroke-width="5.09"/>
    <line id="Line_155" data-name="Line 155" x2="27.729" transform="translate(156.189 95.409)" fill="none" stroke="#270089" stroke-linecap="round" stroke-miterlimit="22.926" stroke-width="5.09"/>
    <line id="Line_156" data-name="Line 156" x2="27.729" transform="translate(156.189 129.487)" fill="none" stroke="#270089" stroke-linecap="round" stroke-miterlimit="22.926" stroke-width="5.09"/>
    <path id="Path_12627" data-name="Path 12627" d="M134.148,134a13.005,13.005,0,0,1,3.413-.308h10.68a11.246,11.246,0,0,1,4.2.552c2.7.973,5.312,2.5,5.294,5.648v3.245c.018,3.161-2.591,4.676-5.294,5.648a11.245,11.245,0,0,1-4.2.552h-10.68a11.269,11.269,0,0,1-4.208-.552c-2.646-.954-5.2-2.431-5.284-5.452" transform="translate(3.599 3.757)" fill="none" stroke="#270089" stroke-linecap="round" stroke-miterlimit="22.926" stroke-width="5.09"/>
    <path id="Path_12628" data-name="Path 12628" d="M134.5,134.453l-.73,1.272-2.674,4.62a11.18,11.18,0,0,1-2.582,3.366.555.555,0,0,1-.094.075c-2.169,1.815-4.76,3.264-7.443,1.683l-2.806-1.626c-2.75-1.562-2.759-4.573-2.244-7.407a11.218,11.218,0,0,1,1.617-3.909l2.666-4.63,2.674-4.628a11.291,11.291,0,0,1,2.582-3.358c2.188-1.852,4.817-3.357,7.538-1.758l2.8,1.627c2.75,1.552,2.759,4.573,2.245,7.4a11.185,11.185,0,0,1-1.618,3.918Z" transform="translate(3.25 3.301)" fill="none" stroke="#270089" stroke-linecap="round" stroke-miterlimit="22.926" stroke-width="5.09"/>
  </g>
</svg>
