<svg id="Group_2262" data-name="Group 2262" xmlns="http://www.w3.org/2000/svg" xmlns:xlink="http://www.w3.org/1999/xlink" width="213.905" height="145.222" viewBox="0 0 213.905 145.222">
  <defs>
    <clipPath id="clip-path">
      <rect id="Rectangle_1131" data-name="Rectangle 1131" width="213.905" height="145.222" fill="none"/>
    </clipPath>
  </defs>
  <g id="Group_2261" data-name="Group 2261" clip-path="url(#clip-path)">
    <path id="Path_12489" data-name="Path 12489" d="M107.05,143.222a70.729,70.729,0,0,1-51.823-22.659H55.22l-.608-.659A70.616,70.616,0,0,1,107.05,2a70.62,70.62,0,0,1,70.611,70.612,70.69,70.69,0,0,1-70.611,70.611" fill="#ee7e1a"/>
    <path id="Path_12490" data-name="Path 12490" d="M107.05,4A68.611,68.611,0,1,1,56.108,118.563H56.1A68.615,68.615,0,0,1,107.05,4m0-4A72.615,72.615,0,0,0,53.128,121.244l1.191,1.319h.041A72.607,72.607,0,1,0,151.944,15.544,71.812,71.812,0,0,0,107.05,0" fill="#270089"/>
    <circle id="Ellipse_120" data-name="Ellipse 120" cx="52.626" cy="52.626" r="52.626" transform="translate(54.421 19.986)" fill="none" stroke="#fff" stroke-miterlimit="10" stroke-width="2"/>
    <path id="Path_12491" data-name="Path 12491" d="M17.45,132.509h0a4.214,4.214,0,0,1-4.214-4.213V67.058h8.428V128.3a4.214,4.214,0,0,1-4.214,4.213" fill="#fff"/>
    <path id="Path_12492" data-name="Path 12492" d="M17.45,132.509h0a4.214,4.214,0,0,1-4.214-4.213V67.058h8.428V128.3A4.214,4.214,0,0,1,17.45,132.509Z" fill="none" stroke="#22296a" stroke-miterlimit="10" stroke-width="1"/>
    <path id="Path_12493" data-name="Path 12493" d="M30.893,31.439V54.318A13.7,13.7,0,0,1,19.686,67.977,13.466,13.466,0,0,1,4,54.712V31.458a3.114,3.114,0,0,1,3.114-3.113V53.817h3.328V30.767a2.422,2.422,0,0,1,2.422-2.422,2.91,2.91,0,0,1,2.91,2.91V53.817H19.12V31.8a3.452,3.452,0,0,1,3.452-3.452,1.88,1.88,0,0,1,1.88,1.88V53.817H27.8V28.345a3.094,3.094,0,0,1,3.094,3.094" fill="#fff"/>
    <path id="Path_12494" data-name="Path 12494" d="M30.893,31.439V54.318A13.7,13.7,0,0,1,19.686,67.977,13.466,13.466,0,0,1,4,54.712V31.458a3.114,3.114,0,0,1,3.114-3.113V53.817h3.328V30.767a2.422,2.422,0,0,1,2.422-2.422,2.91,2.91,0,0,1,2.91,2.91V53.817H19.12V31.8a3.452,3.452,0,0,1,3.452-3.452,1.88,1.88,0,0,1,1.88,1.88V53.817H27.8V28.345A3.094,3.094,0,0,1,30.893,31.439Z" fill="none" stroke="#22296a" stroke-miterlimit="10" stroke-width="1"/>
    <path id="Path_12495" data-name="Path 12495" d="M194.9,132.693a5.965,5.965,0,0,1-5.96-5.971l.048-56.513c-6.385-3.555-10.565-12.239-10.556-22.277C178.439,34.738,185.952,24,195.176,24c4.635,0,8.923,2.6,12.086,7.322A30.064,30.064,0,0,1,211.9,47.961c-.009,10.1-4.466,19.078-10.99,22.465l-.048,56.307a5.973,5.973,0,0,1-5.965,5.96Z" fill="#fff"/>
    <path id="Path_12496" data-name="Path 12496" d="M195.177,26h.009c8.139.007,14.73,9.836,14.719,21.955-.008,10.176-4.675,18.706-10.989,21.182l-.049,57.59a3.964,3.964,0,0,1-3.965,3.962h0a3.966,3.966,0,0,1-3.963-3.969l.049-57.632h.287c-6.254-2.543-10.852-11.042-10.843-21.159C180.439,35.819,187.041,26,195.177,26m0-4c-10.5,0-18.736,11.387-18.748,25.927-.009,10.218,4.129,19.175,10.555,23.4l-.048,55.391a7.966,7.966,0,0,0,15.931.013l.047-55.138c6.663-4.1,10.982-13.182,10.991-23.634a32.077,32.077,0,0,0-4.981-17.75c-3.546-5.289-8.424-8.2-13.735-8.208h-.012Z" fill="#270089"/>
    <path id="Path_12497" data-name="Path 12497" d="M125.869,105.879H88.878a6.861,6.861,0,0,1-6.861-6.861V66.6H132.73v32.42a6.861,6.861,0,0,1-6.861,6.861" fill="#fff"/>
    <path id="Path_12498" data-name="Path 12498" d="M99.522,68.215A15.887,15.887,0,1,1,83.635,52.328,15.887,15.887,0,0,1,99.522,68.215" fill="#fff"/>
    <path id="Path_12499" data-name="Path 12499" d="M148.617,68.215A15.887,15.887,0,1,1,132.73,52.328a15.887,15.887,0,0,1,15.887,15.887" fill="#fff"/>
    <path id="Path_12500" data-name="Path 12500" d="M125.429,55.67a18.744,18.744,0,1,1-18.744-18.744A18.744,18.744,0,0,1,125.429,55.67" fill="#fff"/>
    <path id="Path_12501" data-name="Path 12501" d="M103.2,63.266s13.983,6,21.891-8.625c0,0,.346,8.958-6.755,12.208-6.92,3.168-15.513-3.741-15.513-3.741" fill="#270089"/>
    <path id="Path_12502" data-name="Path 12502" d="M93.234,98.988h0a2.7,2.7,0,0,1-2.7-2.7V84.459a2.7,2.7,0,0,1,5.409,0V96.284a2.7,2.7,0,0,1-2.705,2.7" fill="#270089"/>
    <path id="Path_12503" data-name="Path 12503" d="M106.685,98.988h0a2.7,2.7,0,0,1-2.706-2.7V84.459a2.705,2.705,0,0,1,5.41,0V96.284a2.7,2.7,0,0,1-2.7,2.7" fill="#270089"/>
    <path id="Path_12504" data-name="Path 12504" d="M120.135,98.988h0a2.7,2.7,0,0,1-2.705-2.7V84.459a2.7,2.7,0,0,1,5.409,0V96.284a2.7,2.7,0,0,1-2.7,2.7" fill="#270089"/>
    <path id="Path_12505" data-name="Path 12505" d="M190.235,34.558c4.639-1.784,18.161-.729,12.372,24.922,0,0,9.232-16.994-2.233-25.684a7.361,7.361,0,0,0-7.759-.678,18.4,18.4,0,0,0-2.38,1.44" fill="#270089"/>
    <path id="Path_12506" data-name="Path 12506" d="M190.235,34.558c4.639-1.784,18.161-.729,12.372,24.922,0,0,9.232-16.994-2.233-25.684a7.361,7.361,0,0,0-7.759-.678A18.4,18.4,0,0,0,190.235,34.558Z" fill="none" stroke="#270089" stroke-linecap="round" stroke-linejoin="round" stroke-width="1"/>
    <path id="Path_12507" data-name="Path 12507" d="M17.45,134.509a6.22,6.22,0,0,1-6.214-6.213V68.838A15.415,15.415,0,0,1,2,54.713V31.458a5.119,5.119,0,0,1,5.114-5.113h2v2.08a4.42,4.42,0,0,1,3.749-2.08,4.917,4.917,0,0,1,4.666,3.38,5.46,5.46,0,0,1,5.043-3.38A3.879,3.879,0,0,1,25.8,28.072V26.345h2a5.1,5.1,0,0,1,5.094,5.094V54.318a16.013,16.013,0,0,1-9.23,14.524V128.3a6.22,6.22,0,0,1-6.213,6.213" fill="#fff"/>
    <path id="Path_12508" data-name="Path 12508" d="M27.8,28.345a3.094,3.094,0,0,1,3.094,3.094V54.318a13.83,13.83,0,0,1-9.23,13.16v60.817a4.214,4.214,0,1,1-8.427,0V67.466A13.458,13.458,0,0,1,4,54.713V31.458a3.113,3.113,0,0,1,3.113-3.113V53.817h3.328V30.767a2.422,2.422,0,0,1,2.422-2.422,2.91,2.91,0,0,1,2.91,2.91V53.817H19.12V31.8a3.452,3.452,0,0,1,3.452-3.452,1.88,1.88,0,0,1,1.88,1.88V53.818H27.8Zm0-4h-4v.129a5.838,5.838,0,0,0-1.227-.129,7.4,7.4,0,0,0-4.963,1.892,6.885,6.885,0,0,0-4.746-1.892,6.4,6.4,0,0,0-1.75.242v-.242h-4A7.114,7.114,0,0,0,0,31.458V54.713A17.4,17.4,0,0,0,9.236,70.09v58.205a8.214,8.214,0,1,0,16.427,0V70.078a18.107,18.107,0,0,0,9.23-15.76V31.439A7.1,7.1,0,0,0,27.8,24.345" fill="#270089"/>
  </g>
</svg>
